%TF.GenerationSoftware,KiCad,Pcbnew,9.0.0*%
%TF.CreationDate,2025-08-28T01:19:51+05:30*%
%TF.ProjectId,mm3.0,6d6d332e-302e-46b6-9963-61645f706362,v3.0*%
%TF.SameCoordinates,Original*%
%TF.FileFunction,Profile,NP*%
%FSLAX46Y46*%
G04 Gerber Fmt 4.6, Leading zero omitted, Abs format (unit mm)*
G04 Created by KiCad (PCBNEW 9.0.0) date 2025-08-28 01:19:51*
%MOMM*%
%LPD*%
G01*
G04 APERTURE LIST*
%TA.AperFunction,Profile*%
%ADD10C,0.050000*%
%TD*%
G04 APERTURE END LIST*
D10*
X266420000Y-46175000D02*
X256420000Y-46175000D01*
X223430000Y-46175000D02*
X209420000Y-46175000D01*
X176423718Y-94153139D02*
X176423718Y-78196861D01*
X176423718Y-78196861D02*
G75*
G02*
X209419999Y-46174997I39800002J-7999999D01*
G01*
X223610000Y-117175000D02*
X256420000Y-117175000D01*
X276420000Y-116175000D02*
X276420000Y-56175000D01*
X223610000Y-117175000D02*
X223610000Y-126165000D01*
X223610000Y-126165000D02*
X209420000Y-126175000D01*
X256420000Y-126175000D02*
X266420000Y-126175000D01*
X276420000Y-56175000D02*
X266420000Y-46175000D01*
X256420000Y-55175000D02*
X223430000Y-55175000D01*
X266420000Y-126175000D02*
X276420000Y-116175000D01*
X223430000Y-55175000D02*
X223430000Y-46175000D01*
X256420000Y-117175000D02*
X256420000Y-126175000D01*
X209420000Y-126175000D02*
G75*
G02*
X176423674Y-94153148I6803700J40021900D01*
G01*
X256420000Y-46175000D02*
X256420000Y-55175000D01*
%TO.C,N20*%
X233070000Y-98645000D02*
G75*
G02*
X229070000Y-98645000I-2000000J0D01*
G01*
X229070000Y-98645000D02*
G75*
G02*
X233070000Y-98645000I2000000J0D01*
G01*
X251570000Y-98395000D02*
G75*
G02*
X247570000Y-98395000I-2000000J0D01*
G01*
X247570000Y-98395000D02*
G75*
G02*
X251570000Y-98395000I2000000J0D01*
G01*
X233200000Y-74165000D02*
G75*
G02*
X229200000Y-74165000I-2000000J0D01*
G01*
X229200000Y-74165000D02*
G75*
G02*
X233200000Y-74165000I2000000J0D01*
G01*
X251700000Y-73915000D02*
G75*
G02*
X247700000Y-73915000I-2000000J0D01*
G01*
X247700000Y-73915000D02*
G75*
G02*
X251700000Y-73915000I2000000J0D01*
G01*
%TD*%
M02*
