%TF.GenerationSoftware,KiCad,Pcbnew,8.0.1*%
%TF.CreationDate,2024-08-25T23:19:24+05:30*%
%TF.ProjectId,mm3.0,6d6d332e-302e-46b6-9963-61645f706362,v3.0*%
%TF.SameCoordinates,Original*%
%TF.FileFunction,Soldermask,Bot*%
%TF.FilePolarity,Negative*%
%FSLAX46Y46*%
G04 Gerber Fmt 4.6, Leading zero omitted, Abs format (unit mm)*
G04 Created by KiCad (PCBNEW 8.0.1) date 2024-08-25 23:19:24*
%MOMM*%
%LPD*%
G01*
G04 APERTURE LIST*
G04 Aperture macros list*
%AMRoundRect*
0 Rectangle with rounded corners*
0 $1 Rounding radius*
0 $2 $3 $4 $5 $6 $7 $8 $9 X,Y pos of 4 corners*
0 Add a 4 corners polygon primitive as box body*
4,1,4,$2,$3,$4,$5,$6,$7,$8,$9,$2,$3,0*
0 Add four circle primitives for the rounded corners*
1,1,$1+$1,$2,$3*
1,1,$1+$1,$4,$5*
1,1,$1+$1,$6,$7*
1,1,$1+$1,$8,$9*
0 Add four rect primitives between the rounded corners*
20,1,$1+$1,$2,$3,$4,$5,0*
20,1,$1+$1,$4,$5,$6,$7,0*
20,1,$1+$1,$6,$7,$8,$9,0*
20,1,$1+$1,$8,$9,$2,$3,0*%
%AMRotRect*
0 Rectangle, with rotation*
0 The origin of the aperture is its center*
0 $1 length*
0 $2 width*
0 $3 Rotation angle, in degrees counterclockwise*
0 Add horizontal line*
21,1,$1,$2,0,0,$3*%
G04 Aperture macros list end*
%ADD10C,1.304000*%
%ADD11R,1.800000X1.800000*%
%ADD12C,1.800000*%
%ADD13C,2.000000*%
%ADD14R,2.000000X2.000000*%
%ADD15RotRect,1.800000X1.800000X315.000000*%
%ADD16RoundRect,0.102000X-0.654000X0.654000X-0.654000X-0.654000X0.654000X-0.654000X0.654000X0.654000X0*%
%ADD17C,1.512000*%
%ADD18O,1.700000X1.700000*%
%ADD19R,1.700000X1.700000*%
%ADD20O,1.800000X1.800000*%
%ADD21O,1.500000X1.500000*%
%ADD22C,1.200000*%
%ADD23RoundRect,0.250000X-0.600000X-0.750000X0.600000X-0.750000X0.600000X0.750000X-0.600000X0.750000X0*%
%ADD24O,1.700000X2.000000*%
%ADD25RotRect,1.800000X1.800000X45.000000*%
G04 APERTURE END LIST*
D10*
%TO.C,X2*%
X161575000Y-150275000D03*
X163075000Y-150275000D03*
X164575000Y-150275000D03*
X166075000Y-150275000D03*
X167575000Y-150275000D03*
X169075000Y-150275000D03*
%TD*%
%TO.C,X1*%
X140855000Y-149325000D03*
X142355000Y-149325000D03*
X143855000Y-149325000D03*
X145355000Y-149325000D03*
X146855000Y-149325000D03*
X148355000Y-149325000D03*
%TD*%
D11*
%TO.C,D5*%
X114225000Y-80700000D03*
D12*
X116765000Y-80700000D03*
%TD*%
D11*
%TO.C,Q1*%
X120025000Y-78200000D03*
D12*
X122565000Y-78200000D03*
%TD*%
D13*
%TO.C,BZ1*%
X187450000Y-139250000D03*
D14*
X179850000Y-139250000D03*
%TD*%
D15*
%TO.C,Q7*%
X161903949Y-57503949D03*
D12*
X163700000Y-59300000D03*
%TD*%
D16*
%TO.C,S1*%
X116900000Y-135900000D03*
D17*
X116900000Y-137900000D03*
X116900000Y-139900000D03*
X111900000Y-135900000D03*
X111900000Y-137900000D03*
X111900000Y-139900000D03*
%TD*%
D18*
%TO.C,U1*%
X174050000Y-84670000D03*
D19*
X174050000Y-87210000D03*
D18*
X174050000Y-89750000D03*
X126020000Y-78320000D03*
X128560000Y-78320000D03*
D19*
X131100000Y-78320000D03*
D18*
X133640000Y-78320000D03*
X136180000Y-78320000D03*
X138720000Y-78320000D03*
X141260000Y-78320000D03*
D19*
X143800000Y-78320000D03*
D18*
X146340000Y-78320000D03*
X148880000Y-78320000D03*
X151420000Y-78320000D03*
X153960000Y-78320000D03*
D19*
X156500000Y-78320000D03*
D18*
X159040000Y-78320000D03*
X161580000Y-78320000D03*
X164120000Y-78320000D03*
X166660000Y-78320000D03*
D19*
X169200000Y-78320000D03*
D18*
X171740000Y-78320000D03*
X174280000Y-78320000D03*
X174280000Y-96100000D03*
X171740000Y-96100000D03*
D19*
X169200000Y-96100000D03*
D18*
X166660000Y-96100000D03*
X164120000Y-96100000D03*
X161580000Y-96100000D03*
X159040000Y-96100000D03*
D19*
X156500000Y-96100000D03*
D18*
X153960000Y-96100000D03*
X151420000Y-96100000D03*
X148880000Y-96100000D03*
X146340000Y-96100000D03*
D19*
X143800000Y-96100000D03*
D18*
X141260000Y-96100000D03*
X138720000Y-96100000D03*
X136180000Y-96100000D03*
X133640000Y-96100000D03*
D19*
X131100000Y-96100000D03*
D18*
X128560000Y-96100000D03*
X126020000Y-96100000D03*
D20*
X126150000Y-84485000D03*
D21*
X129180000Y-84785000D03*
X129180000Y-89635000D03*
D20*
X126150000Y-89935000D03*
%TD*%
D22*
%TO.C,J1*%
X120400000Y-137500000D03*
D23*
X122000000Y-135500000D03*
D24*
X124500000Y-135500000D03*
%TD*%
D25*
%TO.C,Q6*%
X136600000Y-59500000D03*
D12*
X138396051Y-57703949D03*
%TD*%
D15*
%TO.C,D4*%
X155125000Y-56000000D03*
D12*
X156921051Y-57796051D03*
%TD*%
D22*
%TO.C,J2*%
X120600000Y-148100000D03*
D23*
X122200000Y-146100000D03*
D24*
X124700000Y-146100000D03*
%TD*%
D25*
%TO.C,D3*%
X143200000Y-57800000D03*
D12*
X144996051Y-56003949D03*
%TD*%
D11*
%TO.C,D2*%
X185800000Y-80400000D03*
D12*
X183260000Y-80400000D03*
%TD*%
D11*
%TO.C,Q3*%
X180000000Y-78200000D03*
D12*
X177460000Y-78200000D03*
%TD*%
M02*
