%TF.GenerationSoftware,KiCad,Pcbnew,8.0.1*%
%TF.CreationDate,2024-08-25T23:19:24+05:30*%
%TF.ProjectId,mm3.0,6d6d332e-302e-46b6-9963-61645f706362,v3.0*%
%TF.SameCoordinates,Original*%
%TF.FileFunction,Copper,L2,Bot*%
%TF.FilePolarity,Positive*%
%FSLAX46Y46*%
G04 Gerber Fmt 4.6, Leading zero omitted, Abs format (unit mm)*
G04 Created by KiCad (PCBNEW 8.0.1) date 2024-08-25 23:19:24*
%MOMM*%
%LPD*%
G01*
G04 APERTURE LIST*
G04 Aperture macros list*
%AMRoundRect*
0 Rectangle with rounded corners*
0 $1 Rounding radius*
0 $2 $3 $4 $5 $6 $7 $8 $9 X,Y pos of 4 corners*
0 Add a 4 corners polygon primitive as box body*
4,1,4,$2,$3,$4,$5,$6,$7,$8,$9,$2,$3,0*
0 Add four circle primitives for the rounded corners*
1,1,$1+$1,$2,$3*
1,1,$1+$1,$4,$5*
1,1,$1+$1,$6,$7*
1,1,$1+$1,$8,$9*
0 Add four rect primitives between the rounded corners*
20,1,$1+$1,$2,$3,$4,$5,0*
20,1,$1+$1,$4,$5,$6,$7,0*
20,1,$1+$1,$6,$7,$8,$9,0*
20,1,$1+$1,$8,$9,$2,$3,0*%
%AMRotRect*
0 Rectangle, with rotation*
0 The origin of the aperture is its center*
0 $1 length*
0 $2 width*
0 $3 Rotation angle, in degrees counterclockwise*
0 Add horizontal line*
21,1,$1,$2,0,0,$3*%
G04 Aperture macros list end*
%TA.AperFunction,ComponentPad*%
%ADD10C,1.100000*%
%TD*%
%TA.AperFunction,ComponentPad*%
%ADD11R,1.800000X1.800000*%
%TD*%
%TA.AperFunction,ComponentPad*%
%ADD12C,1.800000*%
%TD*%
%TA.AperFunction,ComponentPad*%
%ADD13C,2.000000*%
%TD*%
%TA.AperFunction,ComponentPad*%
%ADD14R,2.000000X2.000000*%
%TD*%
%TA.AperFunction,ComponentPad*%
%ADD15RotRect,1.800000X1.800000X315.000000*%
%TD*%
%TA.AperFunction,ComponentPad*%
%ADD16R,1.308000X1.308000*%
%TD*%
%TA.AperFunction,ComponentPad*%
%ADD17C,1.308000*%
%TD*%
%TA.AperFunction,ComponentPad*%
%ADD18O,1.700000X1.700000*%
%TD*%
%TA.AperFunction,ComponentPad*%
%ADD19R,1.700000X1.700000*%
%TD*%
%TA.AperFunction,ComponentPad*%
%ADD20RoundRect,0.250000X-0.600000X-0.750000X0.600000X-0.750000X0.600000X0.750000X-0.600000X0.750000X0*%
%TD*%
%TA.AperFunction,ComponentPad*%
%ADD21O,1.700000X2.000000*%
%TD*%
%TA.AperFunction,ComponentPad*%
%ADD22RotRect,1.800000X1.800000X45.000000*%
%TD*%
%TA.AperFunction,ViaPad*%
%ADD23C,0.700000*%
%TD*%
%TA.AperFunction,ViaPad*%
%ADD24C,0.600000*%
%TD*%
%TA.AperFunction,Conductor*%
%ADD25C,0.300000*%
%TD*%
%TA.AperFunction,Conductor*%
%ADD26C,0.500000*%
%TD*%
%TA.AperFunction,Conductor*%
%ADD27C,0.700000*%
%TD*%
G04 APERTURE END LIST*
D10*
%TO.P,X2,6*%
%TO.N,/Mpow2B*%
X161575000Y-150275000D03*
%TO.P,X2,5*%
%TO.N,+3.3V*%
X163075000Y-150275000D03*
%TO.P,X2,4*%
%TO.N,/GPIO12*%
X164575000Y-150275000D03*
%TO.P,X2,3*%
%TO.N,/GPIO13*%
X166075000Y-150275000D03*
%TO.P,X2,2*%
%TO.N,GND*%
X167575000Y-150275000D03*
%TO.P,X2,1*%
%TO.N,/Mpow1B*%
X169075000Y-150275000D03*
%TD*%
%TO.P,X1,1*%
%TO.N,/Mpow1A*%
X140855000Y-149325000D03*
%TO.P,X1,2*%
%TO.N,GND*%
X142355000Y-149325000D03*
%TO.P,X1,3*%
%TO.N,/GPIO0*%
X143855000Y-149325000D03*
%TO.P,X1,4*%
%TO.N,/GPIO1*%
X145355000Y-149325000D03*
%TO.P,X1,5*%
%TO.N,+3.3V*%
X146855000Y-149325000D03*
%TO.P,X1,6*%
%TO.N,/Mpow2A*%
X148355000Y-149325000D03*
%TD*%
D11*
%TO.P,D5,1,K*%
%TO.N,Net-(D5-K)*%
X114225000Y-80700000D03*
D12*
%TO.P,D5,2,A*%
%TO.N,+5V*%
X116765000Y-80700000D03*
%TD*%
D11*
%TO.P,Q1,1,C*%
%TO.N,+3.3V*%
X120025000Y-78200000D03*
D12*
%TO.P,Q1,2,E*%
%TO.N,LF_Reciever*%
X122565000Y-78200000D03*
%TD*%
D13*
%TO.P,BZ1,2,-*%
%TO.N,Net-(BZ1--)*%
X187450000Y-139250000D03*
D14*
%TO.P,BZ1,1,+*%
%TO.N,+3.3V*%
X179850000Y-139250000D03*
%TD*%
D15*
%TO.P,Q7,1,C*%
%TO.N,+3.3V*%
X161903949Y-57503949D03*
D12*
%TO.P,Q7,2,E*%
%TO.N,R_Reciever*%
X163700000Y-59300000D03*
%TD*%
D16*
%TO.P,S1,1*%
%TO.N,unconnected-(S1-Pad1)*%
X116900000Y-135900000D03*
D17*
%TO.P,S1,2*%
%TO.N,Net-(J2-Pad1)*%
X116900000Y-137900000D03*
%TO.P,S1,3*%
%TO.N,+7.4V*%
X116900000Y-139900000D03*
%TO.P,S1,4*%
%TO.N,unconnected-(S1-Pad4)*%
X111900000Y-135900000D03*
%TO.P,S1,5*%
%TO.N,unconnected-(S1-Pad5)*%
X111900000Y-137900000D03*
%TO.P,S1,6*%
%TO.N,unconnected-(S1-Pad6)*%
X111900000Y-139900000D03*
%TD*%
D18*
%TO.P,U1,43,SWDIO*%
%TO.N,unconnected-(U1-SWDIO-Pad43)*%
X174050000Y-84670000D03*
D19*
%TO.P,U1,42,GND*%
%TO.N,unconnected-(U1-GND-Pad42)*%
X174050000Y-87210000D03*
D18*
%TO.P,U1,41,SWCLK*%
%TO.N,unconnected-(U1-SWCLK-Pad41)*%
X174050000Y-89750000D03*
%TO.P,U1,40,VBUS*%
%TO.N,unconnected-(U1-VBUS-Pad40)*%
X126020000Y-78320000D03*
%TO.P,U1,39,VSYS*%
%TO.N,+5V*%
X128560000Y-78320000D03*
D19*
%TO.P,U1,38,GND*%
%TO.N,unconnected-(U1-GND-Pad38)*%
X131100000Y-78320000D03*
D18*
%TO.P,U1,37,3V3_EN*%
%TO.N,unconnected-(U1-3V3_EN-Pad37)*%
X133640000Y-78320000D03*
%TO.P,U1,36,3V3*%
%TO.N,+3.3V*%
X136180000Y-78320000D03*
%TO.P,U1,35,ADC_VREF*%
%TO.N,unconnected-(U1-ADC_VREF-Pad35)*%
X138720000Y-78320000D03*
%TO.P,U1,34,GPIO28_ADC2*%
%TO.N,unconnected-(U1-GPIO28_ADC2-Pad34)*%
X141260000Y-78320000D03*
D19*
%TO.P,U1,33,AGND*%
%TO.N,unconnected-(U1-AGND-Pad33)*%
X143800000Y-78320000D03*
D18*
%TO.P,U1,32,GPIO27_ADC1*%
%TO.N,unconnected-(U1-GPIO27_ADC1-Pad32)*%
X146340000Y-78320000D03*
%TO.P,U1,31,GPIO26_ADC0*%
%TO.N,unconnected-(U1-GPIO26_ADC0-Pad31)*%
X148880000Y-78320000D03*
%TO.P,U1,30,RUN*%
%TO.N,unconnected-(U1-RUN-Pad30)*%
X151420000Y-78320000D03*
%TO.P,U1,29,GPIO22*%
%TO.N,LF_Reciever*%
X153960000Y-78320000D03*
D19*
%TO.P,U1,28,GND*%
%TO.N,GND*%
X156500000Y-78320000D03*
D18*
%TO.P,U1,27,GPIO21*%
%TO.N,LF_emitter*%
X159040000Y-78320000D03*
%TO.P,U1,26,GPIO20*%
%TO.N,L_Reciever*%
X161580000Y-78320000D03*
%TO.P,U1,25,GPIO19*%
%TO.N,diagonal_emitter*%
X164120000Y-78320000D03*
%TO.P,U1,24,GPIO18*%
%TO.N,R_Reciever*%
X166660000Y-78320000D03*
D19*
%TO.P,U1,23,GND*%
%TO.N,GND*%
X169200000Y-78320000D03*
D18*
%TO.P,U1,22,GPIO17*%
%TO.N,RF_emitter*%
X171740000Y-78320000D03*
%TO.P,U1,21,GPIO16*%
%TO.N,RF_Reciever*%
X174280000Y-78320000D03*
%TO.P,U1,20,GPIO15*%
%TO.N,buzzer*%
X174280000Y-96100000D03*
%TO.P,U1,19,GPIO14*%
%TO.N,unconnected-(U1-GPIO14-Pad19)*%
X171740000Y-96100000D03*
D19*
%TO.P,U1,18,GND*%
%TO.N,GND*%
X169200000Y-96100000D03*
D18*
%TO.P,U1,17,GPIO13*%
%TO.N,/GPIO13*%
X166660000Y-96100000D03*
%TO.P,U1,16,GPIO12*%
%TO.N,/GPIO12*%
X164120000Y-96100000D03*
%TO.P,U1,15,GPIO11*%
%TO.N,/IMU_SCL*%
X161580000Y-96100000D03*
%TO.P,U1,14,GPIO10*%
%TO.N,/IMU_SDA*%
X159040000Y-96100000D03*
D19*
%TO.P,U1,13,GND*%
%TO.N,GND*%
X156500000Y-96100000D03*
D18*
%TO.P,U1,12,GPIO9*%
%TO.N,/IMU_INT*%
X153960000Y-96100000D03*
%TO.P,U1,11,GPIO8*%
%TO.N,/GPIO8*%
X151420000Y-96100000D03*
%TO.P,U1,10,GPIO7*%
%TO.N,/GPIO7*%
X148880000Y-96100000D03*
%TO.P,U1,9,GPIO6*%
%TO.N,/GPIO6*%
X146340000Y-96100000D03*
D19*
%TO.P,U1,8,GND*%
%TO.N,GND*%
X143800000Y-96100000D03*
D18*
%TO.P,U1,7,GPIO5*%
%TO.N,/GPIO5*%
X141260000Y-96100000D03*
%TO.P,U1,6,GPIO4*%
%TO.N,/GPIO4*%
X138720000Y-96100000D03*
%TO.P,U1,5,GPIO3*%
%TO.N,/GPIO3*%
X136180000Y-96100000D03*
%TO.P,U1,4,GPIO2*%
%TO.N,/GPIO2*%
X133640000Y-96100000D03*
D19*
%TO.P,U1,3,GND*%
%TO.N,GND*%
X131100000Y-96100000D03*
D18*
%TO.P,U1,2,GPIO1*%
%TO.N,/GPIO1*%
X128560000Y-96100000D03*
%TO.P,U1,1,GPIO0*%
%TO.N,/GPIO0*%
X126020000Y-96100000D03*
%TD*%
D20*
%TO.P,J1,1,1*%
%TO.N,Net-(J1-Pad1)*%
X122000000Y-135500000D03*
D21*
%TO.P,J1,2,2*%
%TO.N,GND*%
X124500000Y-135500000D03*
%TD*%
D22*
%TO.P,Q6,1,C*%
%TO.N,+3.3V*%
X136600000Y-59500000D03*
D12*
%TO.P,Q6,2,E*%
%TO.N,L_Reciever*%
X138396051Y-57703949D03*
%TD*%
D15*
%TO.P,D4,1,K*%
%TO.N,Net-(D4-K)*%
X155125000Y-56000000D03*
D12*
%TO.P,D4,2,A*%
%TO.N,Net-(D3-K)*%
X156921051Y-57796051D03*
%TD*%
D20*
%TO.P,J2,1,1*%
%TO.N,Net-(J2-Pad1)*%
X122200000Y-146100000D03*
D21*
%TO.P,J2,2,2*%
%TO.N,Net-(J1-Pad1)*%
X124700000Y-146100000D03*
%TD*%
D22*
%TO.P,D3,1,K*%
%TO.N,Net-(D3-K)*%
X143200000Y-57800000D03*
D12*
%TO.P,D3,2,A*%
%TO.N,+5V*%
X144996051Y-56003949D03*
%TD*%
D11*
%TO.P,D2,1,K*%
%TO.N,Net-(D2-K)*%
X185800000Y-80400000D03*
D12*
%TO.P,D2,2,A*%
%TO.N,+5V*%
X183260000Y-80400000D03*
%TD*%
D11*
%TO.P,Q3,1,C*%
%TO.N,+3.3V*%
X180000000Y-78200000D03*
D12*
%TO.P,Q3,2,E*%
%TO.N,RF_Reciever*%
X177460000Y-78200000D03*
%TD*%
D23*
%TO.N,GND*%
X184150000Y-97420000D03*
X183010000Y-96280000D03*
X173450000Y-146370000D03*
X173430000Y-142450000D03*
X172670000Y-142440000D03*
X113750000Y-85690000D03*
X113780000Y-84770000D03*
X115580000Y-87570000D03*
X119490000Y-94600000D03*
X119520000Y-93790000D03*
X116590000Y-91720000D03*
X116570000Y-90820000D03*
X116590000Y-90020000D03*
X116590000Y-89190000D03*
X157380000Y-68530000D03*
X157440000Y-67710000D03*
X157420000Y-66870000D03*
X149900000Y-68680000D03*
X149420000Y-70840000D03*
X148450000Y-70840000D03*
X149920000Y-69610000D03*
%TO.N,+3.3V*%
X147075000Y-147500000D03*
%TO.N,/GPIO1*%
X146050000Y-147425000D03*
D24*
%TO.N,/GPIO0*%
X145050000Y-147375000D03*
D23*
%TO.N,GND*%
X177200000Y-130800000D03*
X177200000Y-129850000D03*
X186400000Y-86300000D03*
X130800000Y-137500000D03*
X158200000Y-61350000D03*
X158750000Y-61850000D03*
X150250000Y-56400000D03*
X149900000Y-55600000D03*
X149400000Y-56200000D03*
X138100000Y-63750000D03*
X137500000Y-64350000D03*
X126850000Y-66650000D03*
X125750000Y-66700000D03*
X177300000Y-85800000D03*
D24*
%TO.N,+3.3V*%
X176600000Y-93150000D03*
X147150000Y-141850000D03*
D23*
X155100000Y-138850000D03*
D24*
X134300000Y-82500000D03*
%TO.N,+7.4V*%
X164700000Y-138300000D03*
X166900000Y-137150000D03*
X164950000Y-136050000D03*
X167100000Y-136050000D03*
D23*
%TO.N,GND*%
X147500000Y-135650000D03*
D24*
X174400000Y-137500000D03*
D23*
X154450000Y-141700000D03*
X150650000Y-144400000D03*
X154500000Y-142650000D03*
X143350000Y-141850000D03*
D24*
X169500000Y-143000000D03*
X175200000Y-137500000D03*
D23*
X132600000Y-137600000D03*
X156300000Y-137550000D03*
D24*
X185450000Y-87200000D03*
D23*
X157100000Y-134000000D03*
D24*
X134200000Y-149200000D03*
X133550000Y-149150000D03*
D23*
X150100000Y-140350000D03*
X156350000Y-134000000D03*
D24*
X169500000Y-140000000D03*
X165000000Y-143000000D03*
D23*
X150650000Y-143650000D03*
X142450000Y-141850000D03*
D24*
X138750000Y-64850000D03*
X153650000Y-140650000D03*
X167850000Y-132650000D03*
D23*
X156550000Y-136850000D03*
D24*
X165500000Y-140000000D03*
%TO.N,+5V*%
X174950000Y-111050000D03*
X144800000Y-132550000D03*
X141650000Y-135750000D03*
X180050000Y-105050000D03*
%TO.N,Net-(J1-Pad1)*%
X127250000Y-141300000D03*
X128300000Y-144700000D03*
%TO.N,LF_emitter*%
X142200000Y-90050000D03*
X140850000Y-91450000D03*
%TO.N,RF_emitter*%
X173000000Y-93150000D03*
X180560000Y-94460000D03*
%TO.N,/IMU_SDA*%
X149550000Y-132400000D03*
%TO.N,/IMU_INT*%
X148150000Y-131800000D03*
%TO.N,/GPIO0*%
X145100000Y-144500000D03*
%TO.N,/IMU_SCL*%
X151550000Y-132850000D03*
%TO.N,/GPIO1*%
X146050000Y-144550000D03*
%TD*%
D25*
%TO.N,RF_emitter*%
X180320000Y-94700000D02*
X180560000Y-94460000D01*
X174550000Y-94700000D02*
X180320000Y-94700000D01*
X173000000Y-93150000D02*
X174550000Y-94700000D01*
%TO.N,LF_emitter*%
X140850000Y-91400000D02*
X142200000Y-90050000D01*
X140850000Y-91450000D02*
X140850000Y-91400000D01*
%TO.N,+3.3V*%
X144950000Y-63000000D02*
X154550000Y-63000000D01*
%TO.N,/GPIO13*%
X166075000Y-150275000D02*
X160150000Y-144350000D01*
X160150000Y-143850000D02*
X160150000Y-110250000D01*
X160150000Y-144350000D02*
X160150000Y-143850000D01*
%TO.N,/GPIO12*%
X158700000Y-144400000D02*
X158700000Y-143875000D01*
X158700000Y-143875000D02*
X158700000Y-109050000D01*
X164575000Y-150275000D02*
X158700000Y-144400000D01*
X164120000Y-103630000D02*
X164120000Y-96100000D01*
X158700000Y-109050000D02*
X164120000Y-103630000D01*
D26*
%TO.N,+3.3V*%
X147075000Y-141925000D02*
X147150000Y-141850000D01*
X147075000Y-147500000D02*
X147075000Y-141925000D01*
%TO.N,/GPIO0*%
X145050000Y-144550000D02*
X145100000Y-144500000D01*
X145050000Y-147375000D02*
X145050000Y-144550000D01*
%TO.N,/GPIO1*%
X146050000Y-147425000D02*
X146050000Y-144550000D01*
D27*
%TO.N,Net-(D3-K)*%
X145550000Y-60150000D02*
X154567102Y-60150000D01*
X143200000Y-57800000D02*
X145550000Y-60150000D01*
X154567102Y-60150000D02*
X156921051Y-57796051D01*
D26*
%TO.N,+3.3V*%
X122350000Y-80450000D02*
X120400000Y-80450000D01*
X125100000Y-82700000D02*
X124600000Y-82700000D01*
X125150000Y-82750000D02*
X125100000Y-82700000D01*
X134050000Y-82750000D02*
X125150000Y-82750000D01*
D25*
X153680761Y-139700000D02*
X151530761Y-141850000D01*
X160046051Y-57503949D02*
X161903949Y-57503949D01*
D27*
X180000000Y-85250000D02*
X178200000Y-87050000D01*
D25*
X141450000Y-59500000D02*
X144950000Y-63000000D01*
X136600000Y-59500000D02*
X141450000Y-59500000D01*
D26*
X124600000Y-82700000D02*
X122350000Y-80450000D01*
D25*
X154550000Y-63000000D02*
X160046051Y-57503949D01*
X151530761Y-141850000D02*
X147150000Y-141850000D01*
X153680761Y-139700000D02*
X154250000Y-139700000D01*
D27*
X177400000Y-92750000D02*
X177000000Y-93150000D01*
D26*
X120025000Y-80075000D02*
X120025000Y-78200000D01*
D27*
X180000000Y-78200000D02*
X180000000Y-85250000D01*
X178200000Y-87050000D02*
X177400000Y-87850000D01*
D26*
X120025000Y-78200000D02*
X120600000Y-78200000D01*
D27*
X177400000Y-87850000D02*
X177400000Y-92750000D01*
D26*
X120400000Y-80450000D02*
X120025000Y-80075000D01*
D25*
X154250000Y-139700000D02*
X155100000Y-138850000D01*
D26*
X134300000Y-82500000D02*
X134050000Y-82750000D01*
D27*
X177000000Y-93150000D02*
X176600000Y-93150000D01*
%TO.N,+7.4V*%
X164700000Y-138300000D02*
X165750000Y-138300000D01*
D25*
X164950000Y-136050000D02*
X167100000Y-136050000D01*
D27*
X165750000Y-138300000D02*
X166900000Y-137150000D01*
%TO.N,+5V*%
X174950000Y-110150000D02*
X174950000Y-111050000D01*
D26*
X141650000Y-135700000D02*
X144800000Y-132550000D01*
X141650000Y-135750000D02*
X141650000Y-135700000D01*
D27*
X180050000Y-105050000D02*
X174950000Y-110150000D01*
%TO.N,Net-(J1-Pad1)*%
X128300000Y-142350000D02*
X127250000Y-141300000D01*
X128300000Y-144700000D02*
X128300000Y-142350000D01*
D26*
%TO.N,LF_Reciever*%
X122565000Y-78200000D02*
X125365000Y-81000000D01*
X125365000Y-81000000D02*
X152800000Y-81000000D01*
X152800000Y-81000000D02*
X153960000Y-79840000D01*
X153960000Y-79840000D02*
X153960000Y-78320000D01*
D25*
%TO.N,/GPIO13*%
X166660000Y-103740000D02*
X166660000Y-96100000D01*
X160150000Y-110250000D02*
X166660000Y-103740000D01*
%TO.N,/IMU_SDA*%
X159040000Y-100260000D02*
X159040000Y-96100000D01*
X153700000Y-128250000D02*
X153700000Y-105600000D01*
X153700000Y-105600000D02*
X159040000Y-100260000D01*
X149550000Y-132400000D02*
X153700000Y-128250000D01*
%TO.N,/IMU_INT*%
X147100000Y-130750000D02*
X147100000Y-116000000D01*
X151800000Y-111300000D02*
X151800000Y-102550000D01*
X147100000Y-116000000D02*
X151800000Y-111300000D01*
X148150000Y-131800000D02*
X147100000Y-130750000D01*
X151800000Y-102550000D02*
X153960000Y-100390000D01*
X153960000Y-100390000D02*
X153960000Y-96100000D01*
%TO.N,/IMU_SCL*%
X156350000Y-107000000D02*
X161580000Y-101770000D01*
X156350000Y-128050000D02*
X156350000Y-107000000D01*
X161580000Y-101770000D02*
X161580000Y-96100000D01*
X151550000Y-132850000D02*
X156350000Y-128050000D01*
%TD*%
%TA.AperFunction,Conductor*%
%TO.N,GND*%
G36*
X157990468Y-52006246D02*
G01*
X158606560Y-52132617D01*
X158609833Y-52133336D01*
X159858747Y-52425823D01*
X159862490Y-52426762D01*
X161101304Y-52758612D01*
X161104999Y-52759665D01*
X162332615Y-53130576D01*
X162336336Y-53131764D01*
X162871548Y-53312164D01*
X163551595Y-53541383D01*
X163555298Y-53542697D01*
X164756924Y-53990592D01*
X164760583Y-53992022D01*
X164760588Y-53992024D01*
X165947471Y-54477782D01*
X165951038Y-54479308D01*
X167121937Y-55002423D01*
X167125416Y-55004044D01*
X168279166Y-55563997D01*
X168282672Y-55565767D01*
X169253246Y-56075422D01*
X169418078Y-56161976D01*
X169421509Y-56163848D01*
X169844239Y-56403209D01*
X170537455Y-56795726D01*
X170540842Y-56797716D01*
X170983079Y-57066971D01*
X171524809Y-57396803D01*
X171636174Y-57464607D01*
X171639491Y-57466699D01*
X172713167Y-58167970D01*
X172716404Y-58170157D01*
X173569819Y-58766971D01*
X173767330Y-58905095D01*
X173770514Y-58907397D01*
X174797633Y-59675261D01*
X174800740Y-59677661D01*
X175803060Y-60477713D01*
X175806022Y-60480156D01*
X176782449Y-61311522D01*
X176785400Y-61314116D01*
X177734992Y-62175992D01*
X177737859Y-62178678D01*
X178659685Y-63070219D01*
X178662449Y-63072979D01*
X179555567Y-63993274D01*
X179558258Y-63996136D01*
X180421730Y-64944217D01*
X180424330Y-64947163D01*
X181257398Y-65922199D01*
X181259873Y-65925191D01*
X181582993Y-66328580D01*
X182061612Y-66926101D01*
X182064019Y-66929206D01*
X182833628Y-67954987D01*
X182835936Y-67958167D01*
X183572661Y-69007816D01*
X183574867Y-69011067D01*
X184277971Y-70083531D01*
X184280073Y-70086850D01*
X184948872Y-71181087D01*
X184950867Y-71184472D01*
X185584618Y-72299265D01*
X185586506Y-72302710D01*
X186184667Y-73437104D01*
X186186444Y-73440608D01*
X186748352Y-74593357D01*
X186750017Y-74596916D01*
X187275110Y-75766853D01*
X187276662Y-75770462D01*
X187764451Y-76956504D01*
X187765887Y-76960161D01*
X188215827Y-78160979D01*
X188217148Y-78164679D01*
X188628850Y-79379241D01*
X188630052Y-79382982D01*
X189003054Y-80609922D01*
X189004137Y-80613698D01*
X189338087Y-81851852D01*
X189339050Y-81855661D01*
X189633613Y-83103801D01*
X189634454Y-83107639D01*
X189889364Y-84364663D01*
X189890001Y-84368043D01*
X189998163Y-84989446D01*
X190000000Y-85010710D01*
X190000000Y-99876000D01*
X189980315Y-99943039D01*
X189927511Y-99988794D01*
X189876000Y-100000000D01*
X181000000Y-100000000D01*
X181000000Y-132000000D01*
X189876000Y-132000000D01*
X189943039Y-132019685D01*
X189988794Y-132072489D01*
X190000000Y-132124000D01*
X190000000Y-141948638D01*
X189980315Y-142015677D01*
X189963681Y-142036319D01*
X180036319Y-151963681D01*
X179974996Y-151997166D01*
X179948638Y-152000000D01*
X120051362Y-152000000D01*
X119984323Y-151980315D01*
X119963681Y-151963681D01*
X119174023Y-151174023D01*
X167029528Y-151174023D01*
X167171233Y-151249766D01*
X167369165Y-151309808D01*
X167575000Y-151330080D01*
X167780834Y-151309808D01*
X167978764Y-151249766D01*
X168120470Y-151174022D01*
X167575001Y-150628553D01*
X167575000Y-150628553D01*
X167029528Y-151174023D01*
X119174023Y-151174023D01*
X118224023Y-150224023D01*
X141809528Y-150224023D01*
X141951233Y-150299766D01*
X142149165Y-150359808D01*
X142355000Y-150380080D01*
X142560834Y-150359808D01*
X142758764Y-150299766D01*
X142900470Y-150224022D01*
X142355001Y-149678553D01*
X142355000Y-149678553D01*
X141809528Y-150224023D01*
X118224023Y-150224023D01*
X117325002Y-149325002D01*
X140099751Y-149325002D01*
X140118685Y-149493056D01*
X140174545Y-149652694D01*
X140174547Y-149652697D01*
X140264518Y-149795884D01*
X140264523Y-149795890D01*
X140384109Y-149915476D01*
X140384115Y-149915481D01*
X140527302Y-150005452D01*
X140527305Y-150005454D01*
X140527309Y-150005455D01*
X140527310Y-150005456D01*
X140599913Y-150030860D01*
X140686943Y-150061314D01*
X140854997Y-150080249D01*
X140855000Y-150080249D01*
X140855003Y-150080249D01*
X141023056Y-150061314D01*
X141026540Y-150060095D01*
X141182690Y-150005456D01*
X141325890Y-149915477D01*
X141337751Y-149903615D01*
X141399071Y-149870131D01*
X141443627Y-149868638D01*
X141455976Y-149870469D01*
X141955369Y-149371078D01*
X142005000Y-149371078D01*
X142028852Y-149460095D01*
X142074930Y-149539905D01*
X142140095Y-149605070D01*
X142219905Y-149651148D01*
X142308922Y-149675000D01*
X142401078Y-149675000D01*
X142490095Y-149651148D01*
X142569905Y-149605070D01*
X142635070Y-149539905D01*
X142681148Y-149460095D01*
X142705000Y-149371078D01*
X142705000Y-149325000D01*
X142708553Y-149325000D01*
X143254022Y-149870469D01*
X143266373Y-149868638D01*
X143335575Y-149878273D01*
X143372248Y-149903615D01*
X143384109Y-149915476D01*
X143384115Y-149915481D01*
X143527302Y-150005452D01*
X143527305Y-150005454D01*
X143527309Y-150005455D01*
X143527310Y-150005456D01*
X143599913Y-150030860D01*
X143686943Y-150061314D01*
X143854997Y-150080249D01*
X143855000Y-150080249D01*
X143855003Y-150080249D01*
X144023056Y-150061314D01*
X144046302Y-150053180D01*
X144182690Y-150005456D01*
X144182692Y-150005454D01*
X144182694Y-150005454D01*
X144182697Y-150005452D01*
X144325884Y-149915481D01*
X144325888Y-149915478D01*
X144325890Y-149915477D01*
X144445477Y-149795890D01*
X144500006Y-149709107D01*
X144552341Y-149662817D01*
X144621395Y-149652169D01*
X144685243Y-149680544D01*
X144709994Y-149709108D01*
X144764523Y-149795890D01*
X144884109Y-149915476D01*
X144884115Y-149915481D01*
X145027302Y-150005452D01*
X145027305Y-150005454D01*
X145027309Y-150005455D01*
X145027310Y-150005456D01*
X145099913Y-150030860D01*
X145186943Y-150061314D01*
X145354997Y-150080249D01*
X145355000Y-150080249D01*
X145355003Y-150080249D01*
X145523056Y-150061314D01*
X145546302Y-150053180D01*
X145682690Y-150005456D01*
X145682692Y-150005454D01*
X145682694Y-150005454D01*
X145682697Y-150005452D01*
X145825884Y-149915481D01*
X145825888Y-149915478D01*
X145825890Y-149915477D01*
X145945477Y-149795890D01*
X146000006Y-149709107D01*
X146052341Y-149662817D01*
X146121395Y-149652169D01*
X146185243Y-149680544D01*
X146209994Y-149709108D01*
X146264523Y-149795890D01*
X146384109Y-149915476D01*
X146384115Y-149915481D01*
X146527302Y-150005452D01*
X146527305Y-150005454D01*
X146527309Y-150005455D01*
X146527310Y-150005456D01*
X146599913Y-150030860D01*
X146686943Y-150061314D01*
X146854997Y-150080249D01*
X146855000Y-150080249D01*
X146855003Y-150080249D01*
X147023056Y-150061314D01*
X147046302Y-150053180D01*
X147182690Y-150005456D01*
X147182692Y-150005454D01*
X147182694Y-150005454D01*
X147182697Y-150005452D01*
X147325884Y-149915481D01*
X147325888Y-149915478D01*
X147325890Y-149915477D01*
X147445477Y-149795890D01*
X147500006Y-149709107D01*
X147552341Y-149662817D01*
X147621395Y-149652169D01*
X147685243Y-149680544D01*
X147709994Y-149709108D01*
X147764523Y-149795890D01*
X147884109Y-149915476D01*
X147884115Y-149915481D01*
X148027302Y-150005452D01*
X148027305Y-150005454D01*
X148027309Y-150005455D01*
X148027310Y-150005456D01*
X148099913Y-150030860D01*
X148186943Y-150061314D01*
X148354997Y-150080249D01*
X148355000Y-150080249D01*
X148355003Y-150080249D01*
X148523056Y-150061314D01*
X148546302Y-150053180D01*
X148682690Y-150005456D01*
X148682692Y-150005454D01*
X148682694Y-150005454D01*
X148682697Y-150005452D01*
X148825884Y-149915481D01*
X148825888Y-149915478D01*
X148825890Y-149915477D01*
X148945477Y-149795890D01*
X148986024Y-149731360D01*
X149035452Y-149652697D01*
X149035454Y-149652694D01*
X149035454Y-149652692D01*
X149035456Y-149652690D01*
X149091313Y-149493059D01*
X149091313Y-149493058D01*
X149091314Y-149493056D01*
X149110249Y-149325002D01*
X149110249Y-149324997D01*
X149091314Y-149156943D01*
X149052119Y-149044930D01*
X149035456Y-148997310D01*
X149035455Y-148997309D01*
X149035454Y-148997305D01*
X149035452Y-148997302D01*
X148945481Y-148854115D01*
X148945476Y-148854109D01*
X148825890Y-148734523D01*
X148825884Y-148734518D01*
X148682697Y-148644547D01*
X148682694Y-148644545D01*
X148523056Y-148588685D01*
X148355003Y-148569751D01*
X148354997Y-148569751D01*
X148186943Y-148588685D01*
X148027305Y-148644545D01*
X148027302Y-148644547D01*
X147884115Y-148734518D01*
X147884109Y-148734523D01*
X147764523Y-148854109D01*
X147764521Y-148854112D01*
X147709993Y-148940892D01*
X147657658Y-148987183D01*
X147588605Y-148997830D01*
X147524756Y-148969455D01*
X147500007Y-148940892D01*
X147445478Y-148854112D01*
X147445476Y-148854109D01*
X147325890Y-148734523D01*
X147325884Y-148734518D01*
X147182697Y-148644547D01*
X147182694Y-148644545D01*
X147023056Y-148588685D01*
X146855003Y-148569751D01*
X146854997Y-148569751D01*
X146686943Y-148588685D01*
X146527305Y-148644545D01*
X146527302Y-148644547D01*
X146384115Y-148734518D01*
X146384109Y-148734523D01*
X146264523Y-148854109D01*
X146264521Y-148854112D01*
X146209993Y-148940892D01*
X146157658Y-148987183D01*
X146088605Y-148997830D01*
X146024756Y-148969455D01*
X146000007Y-148940892D01*
X145945478Y-148854112D01*
X145945476Y-148854109D01*
X145825890Y-148734523D01*
X145825884Y-148734518D01*
X145682697Y-148644547D01*
X145682694Y-148644545D01*
X145523056Y-148588685D01*
X145355003Y-148569751D01*
X145354997Y-148569751D01*
X145186943Y-148588685D01*
X145027305Y-148644545D01*
X145027302Y-148644547D01*
X144884115Y-148734518D01*
X144884109Y-148734523D01*
X144764523Y-148854109D01*
X144764521Y-148854112D01*
X144709993Y-148940892D01*
X144657658Y-148987183D01*
X144588605Y-148997830D01*
X144524756Y-148969455D01*
X144500007Y-148940892D01*
X144445478Y-148854112D01*
X144445476Y-148854109D01*
X144325890Y-148734523D01*
X144325884Y-148734518D01*
X144182697Y-148644547D01*
X144182694Y-148644545D01*
X144023056Y-148588685D01*
X143855003Y-148569751D01*
X143854997Y-148569751D01*
X143686943Y-148588685D01*
X143527305Y-148644545D01*
X143527302Y-148644547D01*
X143384112Y-148734520D01*
X143384103Y-148734527D01*
X143372242Y-148746388D01*
X143310917Y-148779870D01*
X143266373Y-148781360D01*
X143254022Y-148779528D01*
X142708553Y-149324999D01*
X142708553Y-149325000D01*
X142705000Y-149325000D01*
X142705000Y-149278922D01*
X142681148Y-149189905D01*
X142635070Y-149110095D01*
X142569905Y-149044930D01*
X142490095Y-148998852D01*
X142401078Y-148975000D01*
X142308922Y-148975000D01*
X142219905Y-148998852D01*
X142140095Y-149044930D01*
X142074930Y-149110095D01*
X142028852Y-149189905D01*
X142005000Y-149278922D01*
X142005000Y-149371078D01*
X141955369Y-149371078D01*
X142001447Y-149325000D01*
X141455974Y-148779527D01*
X141443623Y-148781360D01*
X141374421Y-148771724D01*
X141337750Y-148746383D01*
X141325890Y-148734523D01*
X141325884Y-148734518D01*
X141182697Y-148644547D01*
X141182694Y-148644545D01*
X141023056Y-148588685D01*
X140855003Y-148569751D01*
X140854997Y-148569751D01*
X140686943Y-148588685D01*
X140527305Y-148644545D01*
X140527302Y-148644547D01*
X140384115Y-148734518D01*
X140384109Y-148734523D01*
X140264523Y-148854109D01*
X140264518Y-148854115D01*
X140174547Y-148997302D01*
X140174545Y-148997305D01*
X140118685Y-149156943D01*
X140099751Y-149324997D01*
X140099751Y-149325002D01*
X117325002Y-149325002D01*
X116183771Y-148183771D01*
X119749500Y-148183771D01*
X119782182Y-148348074D01*
X119782184Y-148348082D01*
X119846295Y-148502860D01*
X119939373Y-148642162D01*
X120057837Y-148760626D01*
X120088868Y-148781360D01*
X120197137Y-148853703D01*
X120197138Y-148853703D01*
X120197139Y-148853704D01*
X120232201Y-148868227D01*
X120351918Y-148917816D01*
X120467930Y-148940892D01*
X120516228Y-148950499D01*
X120516232Y-148950500D01*
X120516233Y-148950500D01*
X120683768Y-148950500D01*
X120683769Y-148950499D01*
X120848082Y-148917816D01*
X121002863Y-148853703D01*
X121142162Y-148760626D01*
X121260626Y-148642162D01*
X121353703Y-148502863D01*
X121385551Y-148425976D01*
X141809529Y-148425976D01*
X142355000Y-148971447D01*
X142355001Y-148971447D01*
X142900469Y-148425976D01*
X142900469Y-148425975D01*
X142758766Y-148350233D01*
X142560834Y-148290191D01*
X142355000Y-148269919D01*
X142149166Y-148290191D01*
X141951234Y-148350234D01*
X141809529Y-148425975D01*
X141809529Y-148425976D01*
X121385551Y-148425976D01*
X121417816Y-148348082D01*
X121450500Y-148183767D01*
X121450500Y-148016233D01*
X121417816Y-147851918D01*
X121353703Y-147697137D01*
X121265719Y-147565460D01*
X121260626Y-147557837D01*
X121142162Y-147439373D01*
X121045820Y-147375000D01*
X144544353Y-147375000D01*
X144564834Y-147517456D01*
X144622493Y-147643709D01*
X144624623Y-147648373D01*
X144718872Y-147757143D01*
X144839947Y-147834953D01*
X144839950Y-147834954D01*
X144839949Y-147834954D01*
X144978036Y-147875499D01*
X144978038Y-147875500D01*
X144978039Y-147875500D01*
X145121962Y-147875500D01*
X145121962Y-147875499D01*
X145260053Y-147834953D01*
X145381128Y-147757143D01*
X145403477Y-147731349D01*
X145462253Y-147693575D01*
X145532123Y-147693574D01*
X145590902Y-147731348D01*
X145595565Y-147737065D01*
X145626689Y-147777625D01*
X145657379Y-147817621D01*
X145772375Y-147905861D01*
X145906291Y-147961330D01*
X146033280Y-147978048D01*
X146049999Y-147980250D01*
X146050000Y-147980250D01*
X146050001Y-147980250D01*
X146064977Y-147978278D01*
X146193709Y-147961330D01*
X146327625Y-147905861D01*
X146442621Y-147817621D01*
X146442627Y-147817612D01*
X146445733Y-147814508D01*
X146449006Y-147812720D01*
X146449068Y-147812673D01*
X146449075Y-147812682D01*
X146507054Y-147781019D01*
X146576746Y-147786000D01*
X146631793Y-147826696D01*
X146651152Y-147851925D01*
X146669241Y-147875500D01*
X146682379Y-147892621D01*
X146797375Y-147980861D01*
X146931291Y-148036330D01*
X147058280Y-148053048D01*
X147074999Y-148055250D01*
X147075000Y-148055250D01*
X147075001Y-148055250D01*
X147089977Y-148053278D01*
X147218709Y-148036330D01*
X147352625Y-147980861D01*
X147467621Y-147892621D01*
X147555861Y-147777625D01*
X147611330Y-147643709D01*
X147630250Y-147500000D01*
X147611330Y-147356291D01*
X147555861Y-147222375D01*
X147551123Y-147216200D01*
X147525930Y-147151031D01*
X147525500Y-147140715D01*
X147525500Y-144446144D01*
X158349500Y-144446144D01*
X158363931Y-144500001D01*
X158371170Y-144527020D01*
X158373386Y-144535288D01*
X158378801Y-144544667D01*
X158419527Y-144615208D01*
X158419531Y-144615213D01*
X163116775Y-149312457D01*
X163150260Y-149373780D01*
X163145276Y-149443472D01*
X163103404Y-149499405D01*
X163042978Y-149523358D01*
X162906944Y-149538685D01*
X162747305Y-149594545D01*
X162747302Y-149594547D01*
X162604115Y-149684518D01*
X162604109Y-149684523D01*
X162484523Y-149804109D01*
X162484521Y-149804112D01*
X162429993Y-149890892D01*
X162377658Y-149937183D01*
X162308605Y-149947830D01*
X162244756Y-149919455D01*
X162220007Y-149890892D01*
X162165478Y-149804112D01*
X162165476Y-149804109D01*
X162045890Y-149684523D01*
X162045884Y-149684518D01*
X161902697Y-149594547D01*
X161902694Y-149594545D01*
X161743056Y-149538685D01*
X161575003Y-149519751D01*
X161574997Y-149519751D01*
X161406943Y-149538685D01*
X161247305Y-149594545D01*
X161247302Y-149594547D01*
X161104115Y-149684518D01*
X161104109Y-149684523D01*
X160984523Y-149804109D01*
X160984518Y-149804115D01*
X160894547Y-149947302D01*
X160894545Y-149947305D01*
X160838685Y-150106943D01*
X160819751Y-150274997D01*
X160819751Y-150275002D01*
X160838685Y-150443056D01*
X160894545Y-150602694D01*
X160894547Y-150602697D01*
X160984518Y-150745884D01*
X160984523Y-150745890D01*
X161104109Y-150865476D01*
X161104115Y-150865481D01*
X161247302Y-150955452D01*
X161247305Y-150955454D01*
X161247309Y-150955455D01*
X161247310Y-150955456D01*
X161319913Y-150980860D01*
X161406943Y-151011314D01*
X161574997Y-151030249D01*
X161575000Y-151030249D01*
X161575003Y-151030249D01*
X161743056Y-151011314D01*
X161743059Y-151011313D01*
X161902690Y-150955456D01*
X161902692Y-150955454D01*
X161902694Y-150955454D01*
X161902697Y-150955452D01*
X162045884Y-150865481D01*
X162045888Y-150865478D01*
X162045890Y-150865477D01*
X162165477Y-150745890D01*
X162220006Y-150659107D01*
X162272341Y-150612817D01*
X162341395Y-150602169D01*
X162405243Y-150630544D01*
X162429994Y-150659108D01*
X162484523Y-150745890D01*
X162604109Y-150865476D01*
X162604115Y-150865481D01*
X162747302Y-150955452D01*
X162747305Y-150955454D01*
X162747309Y-150955455D01*
X162747310Y-150955456D01*
X162819913Y-150980860D01*
X162906943Y-151011314D01*
X163074997Y-151030249D01*
X163075000Y-151030249D01*
X163075003Y-151030249D01*
X163243056Y-151011314D01*
X163243059Y-151011313D01*
X163402690Y-150955456D01*
X163402692Y-150955454D01*
X163402694Y-150955454D01*
X163402697Y-150955452D01*
X163545884Y-150865481D01*
X163545888Y-150865478D01*
X163545890Y-150865477D01*
X163665477Y-150745890D01*
X163720006Y-150659107D01*
X163772341Y-150612817D01*
X163841395Y-150602169D01*
X163905243Y-150630544D01*
X163929994Y-150659108D01*
X163984523Y-150745890D01*
X164104109Y-150865476D01*
X164104115Y-150865481D01*
X164247302Y-150955452D01*
X164247305Y-150955454D01*
X164247309Y-150955455D01*
X164247310Y-150955456D01*
X164319913Y-150980860D01*
X164406943Y-151011314D01*
X164574997Y-151030249D01*
X164575000Y-151030249D01*
X164575003Y-151030249D01*
X164743056Y-151011314D01*
X164743059Y-151011313D01*
X164902690Y-150955456D01*
X164902692Y-150955454D01*
X164902694Y-150955454D01*
X164902697Y-150955452D01*
X165045884Y-150865481D01*
X165045888Y-150865478D01*
X165045890Y-150865477D01*
X165165477Y-150745890D01*
X165220006Y-150659107D01*
X165272341Y-150612817D01*
X165341395Y-150602169D01*
X165405243Y-150630544D01*
X165429994Y-150659108D01*
X165484523Y-150745890D01*
X165604109Y-150865476D01*
X165604115Y-150865481D01*
X165747302Y-150955452D01*
X165747305Y-150955454D01*
X165747309Y-150955455D01*
X165747310Y-150955456D01*
X165819913Y-150980860D01*
X165906943Y-151011314D01*
X166074997Y-151030249D01*
X166075000Y-151030249D01*
X166075003Y-151030249D01*
X166243056Y-151011314D01*
X166243059Y-151011313D01*
X166402690Y-150955456D01*
X166545890Y-150865477D01*
X166557751Y-150853615D01*
X166619071Y-150820131D01*
X166663627Y-150818638D01*
X166675976Y-150820469D01*
X167175369Y-150321078D01*
X167225000Y-150321078D01*
X167248852Y-150410095D01*
X167294930Y-150489905D01*
X167360095Y-150555070D01*
X167439905Y-150601148D01*
X167528922Y-150625000D01*
X167621078Y-150625000D01*
X167710095Y-150601148D01*
X167789905Y-150555070D01*
X167855070Y-150489905D01*
X167901148Y-150410095D01*
X167925000Y-150321078D01*
X167925000Y-150275000D01*
X167928553Y-150275000D01*
X168474022Y-150820469D01*
X168486373Y-150818638D01*
X168555575Y-150828273D01*
X168592248Y-150853615D01*
X168604109Y-150865476D01*
X168604115Y-150865481D01*
X168747302Y-150955452D01*
X168747305Y-150955454D01*
X168747309Y-150955455D01*
X168747310Y-150955456D01*
X168819913Y-150980860D01*
X168906943Y-151011314D01*
X169074997Y-151030249D01*
X169075000Y-151030249D01*
X169075003Y-151030249D01*
X169243056Y-151011314D01*
X169243059Y-151011313D01*
X169402690Y-150955456D01*
X169402692Y-150955454D01*
X169402694Y-150955454D01*
X169402697Y-150955452D01*
X169545884Y-150865481D01*
X169545888Y-150865478D01*
X169545890Y-150865477D01*
X169665477Y-150745890D01*
X169755452Y-150602697D01*
X169755454Y-150602694D01*
X169755454Y-150602692D01*
X169755456Y-150602690D01*
X169811313Y-150443059D01*
X169811313Y-150443058D01*
X169811314Y-150443056D01*
X169830249Y-150275002D01*
X169830249Y-150274997D01*
X169811314Y-150106943D01*
X169757516Y-149953197D01*
X169755456Y-149947310D01*
X169755455Y-149947309D01*
X169755454Y-149947305D01*
X169755452Y-149947302D01*
X169665481Y-149804115D01*
X169665476Y-149804109D01*
X169545890Y-149684523D01*
X169545884Y-149684518D01*
X169402697Y-149594547D01*
X169402694Y-149594545D01*
X169243056Y-149538685D01*
X169075003Y-149519751D01*
X169074997Y-149519751D01*
X168906943Y-149538685D01*
X168747305Y-149594545D01*
X168747302Y-149594547D01*
X168604112Y-149684520D01*
X168604103Y-149684527D01*
X168592242Y-149696388D01*
X168530917Y-149729870D01*
X168486373Y-149731360D01*
X168474022Y-149729528D01*
X167928553Y-150274999D01*
X167928553Y-150275000D01*
X167925000Y-150275000D01*
X167925000Y-150228922D01*
X167901148Y-150139905D01*
X167855070Y-150060095D01*
X167789905Y-149994930D01*
X167710095Y-149948852D01*
X167621078Y-149925000D01*
X167528922Y-149925000D01*
X167439905Y-149948852D01*
X167360095Y-149994930D01*
X167294930Y-150060095D01*
X167248852Y-150139905D01*
X167225000Y-150228922D01*
X167225000Y-150321078D01*
X167175369Y-150321078D01*
X167221447Y-150275000D01*
X166675974Y-149729527D01*
X166663623Y-149731360D01*
X166594421Y-149721724D01*
X166557750Y-149696383D01*
X166545890Y-149684523D01*
X166545884Y-149684518D01*
X166402697Y-149594547D01*
X166402694Y-149594545D01*
X166243056Y-149538685D01*
X166075003Y-149519751D01*
X166074996Y-149519751D01*
X165901055Y-149539349D01*
X165832233Y-149527294D01*
X165799491Y-149503810D01*
X165671657Y-149375976D01*
X167029529Y-149375976D01*
X167575000Y-149921447D01*
X167575001Y-149921447D01*
X168120469Y-149375976D01*
X168120469Y-149375975D01*
X167978766Y-149300233D01*
X167780834Y-149240191D01*
X167575000Y-149219919D01*
X167369166Y-149240191D01*
X167171234Y-149300234D01*
X167029529Y-149375975D01*
X167029529Y-149375976D01*
X165671657Y-149375976D01*
X160536819Y-144241137D01*
X160503334Y-144179814D01*
X160500500Y-144153456D01*
X160500500Y-140269752D01*
X178649500Y-140269752D01*
X178661131Y-140328229D01*
X178661132Y-140328230D01*
X178705447Y-140394552D01*
X178771769Y-140438867D01*
X178771770Y-140438868D01*
X178830247Y-140450499D01*
X178830250Y-140450500D01*
X178830252Y-140450500D01*
X180869750Y-140450500D01*
X180869751Y-140450499D01*
X180884568Y-140447552D01*
X180928229Y-140438868D01*
X180928229Y-140438867D01*
X180928231Y-140438867D01*
X180994552Y-140394552D01*
X181038867Y-140328231D01*
X181038867Y-140328229D01*
X181038868Y-140328229D01*
X181050499Y-140269752D01*
X181050500Y-140269750D01*
X181050500Y-139250000D01*
X186244357Y-139250000D01*
X186264884Y-139471535D01*
X186264885Y-139471537D01*
X186325769Y-139685523D01*
X186325775Y-139685538D01*
X186424938Y-139884683D01*
X186424943Y-139884691D01*
X186559020Y-140062238D01*
X186723437Y-140212123D01*
X186723439Y-140212125D01*
X186912595Y-140329245D01*
X186912596Y-140329245D01*
X186912599Y-140329247D01*
X187120060Y-140409618D01*
X187338757Y-140450500D01*
X187338759Y-140450500D01*
X187561241Y-140450500D01*
X187561243Y-140450500D01*
X187779940Y-140409618D01*
X187987401Y-140329247D01*
X188176562Y-140212124D01*
X188340981Y-140062236D01*
X188475058Y-139884689D01*
X188574229Y-139685528D01*
X188635115Y-139471536D01*
X188655643Y-139250000D01*
X188644303Y-139127625D01*
X188635115Y-139028464D01*
X188635114Y-139028462D01*
X188584337Y-138850000D01*
X188574229Y-138814472D01*
X188574224Y-138814461D01*
X188475061Y-138615316D01*
X188475056Y-138615308D01*
X188340979Y-138437761D01*
X188176562Y-138287876D01*
X188176560Y-138287874D01*
X187987404Y-138170754D01*
X187987398Y-138170752D01*
X187961260Y-138160626D01*
X187779940Y-138090382D01*
X187561243Y-138049500D01*
X187338757Y-138049500D01*
X187120060Y-138090382D01*
X186988864Y-138141207D01*
X186912601Y-138170752D01*
X186912595Y-138170754D01*
X186723439Y-138287874D01*
X186723437Y-138287876D01*
X186559020Y-138437761D01*
X186424943Y-138615308D01*
X186424938Y-138615316D01*
X186325775Y-138814461D01*
X186325769Y-138814476D01*
X186264885Y-139028462D01*
X186264884Y-139028464D01*
X186244357Y-139249999D01*
X186244357Y-139250000D01*
X181050500Y-139250000D01*
X181050500Y-138230249D01*
X181050499Y-138230247D01*
X181038868Y-138171770D01*
X181038867Y-138171769D01*
X180994552Y-138105447D01*
X180928230Y-138061132D01*
X180928229Y-138061131D01*
X180869752Y-138049500D01*
X180869748Y-138049500D01*
X178830252Y-138049500D01*
X178830247Y-138049500D01*
X178771770Y-138061131D01*
X178771769Y-138061132D01*
X178705447Y-138105447D01*
X178661132Y-138171769D01*
X178661131Y-138171770D01*
X178649500Y-138230247D01*
X178649500Y-140269752D01*
X160500500Y-140269752D01*
X160500500Y-138372475D01*
X164149500Y-138372475D01*
X164187016Y-138512485D01*
X164187017Y-138512488D01*
X164259488Y-138638011D01*
X164259490Y-138638013D01*
X164259491Y-138638015D01*
X164361985Y-138740509D01*
X164361986Y-138740510D01*
X164361988Y-138740511D01*
X164487511Y-138812982D01*
X164487512Y-138812982D01*
X164487515Y-138812984D01*
X164627525Y-138850500D01*
X164627528Y-138850500D01*
X165822472Y-138850500D01*
X165822474Y-138850500D01*
X165822475Y-138850500D01*
X165962485Y-138812984D01*
X165984108Y-138800500D01*
X166088015Y-138740510D01*
X167340510Y-137488014D01*
X167412984Y-137362485D01*
X167450500Y-137222474D01*
X167450500Y-137077526D01*
X167412984Y-136937515D01*
X167340510Y-136811985D01*
X167247898Y-136719373D01*
X167214413Y-136658050D01*
X167219397Y-136588358D01*
X167261269Y-136532425D01*
X167300647Y-136512714D01*
X167310053Y-136509953D01*
X167431128Y-136432143D01*
X167525377Y-136323373D01*
X167585165Y-136192457D01*
X167605647Y-136050000D01*
X167585165Y-135907543D01*
X167525377Y-135776627D01*
X167431128Y-135667857D01*
X167310053Y-135590047D01*
X167310051Y-135590046D01*
X167310049Y-135590045D01*
X167310050Y-135590045D01*
X167171963Y-135549500D01*
X167171961Y-135549500D01*
X167028039Y-135549500D01*
X167028036Y-135549500D01*
X166889949Y-135590045D01*
X166768876Y-135667854D01*
X166768874Y-135667855D01*
X166768872Y-135667857D01*
X166768870Y-135667858D01*
X166767312Y-135669210D01*
X166765427Y-135670070D01*
X166761411Y-135672652D01*
X166761039Y-135672074D01*
X166703757Y-135698237D01*
X166686105Y-135699500D01*
X165363895Y-135699500D01*
X165296856Y-135679815D01*
X165282688Y-135669210D01*
X165281132Y-135667862D01*
X165281128Y-135667857D01*
X165160053Y-135590047D01*
X165160051Y-135590046D01*
X165160049Y-135590045D01*
X165160050Y-135590045D01*
X165021963Y-135549500D01*
X165021961Y-135549500D01*
X164878039Y-135549500D01*
X164878036Y-135549500D01*
X164739949Y-135590045D01*
X164618873Y-135667856D01*
X164618872Y-135667856D01*
X164618872Y-135667857D01*
X164615218Y-135672074D01*
X164524623Y-135776626D01*
X164524622Y-135776628D01*
X164464834Y-135907543D01*
X164444353Y-136050000D01*
X164464834Y-136192456D01*
X164511813Y-136295323D01*
X164524623Y-136323373D01*
X164618872Y-136432143D01*
X164739947Y-136509953D01*
X164739950Y-136509954D01*
X164739949Y-136509954D01*
X164878036Y-136550499D01*
X164878038Y-136550500D01*
X164878039Y-136550500D01*
X165021962Y-136550500D01*
X165021962Y-136550499D01*
X165160053Y-136509953D01*
X165281128Y-136432143D01*
X165281136Y-136432133D01*
X165282688Y-136430790D01*
X165284572Y-136429929D01*
X165288589Y-136427348D01*
X165288960Y-136427925D01*
X165346243Y-136401763D01*
X165363895Y-136400500D01*
X166635125Y-136400500D01*
X166702164Y-136420185D01*
X166747919Y-136472989D01*
X166757863Y-136542147D01*
X166728838Y-136605703D01*
X166693524Y-136631168D01*
X166694554Y-136632952D01*
X166561989Y-136709487D01*
X166561984Y-136709491D01*
X165558294Y-137713181D01*
X165496971Y-137746666D01*
X165470613Y-137749500D01*
X164627525Y-137749500D01*
X164498993Y-137783940D01*
X164487511Y-137787017D01*
X164361988Y-137859488D01*
X164361982Y-137859493D01*
X164259493Y-137961982D01*
X164259488Y-137961988D01*
X164187017Y-138087511D01*
X164187016Y-138087515D01*
X164149500Y-138227525D01*
X164149500Y-138372475D01*
X160500500Y-138372475D01*
X160500500Y-125142859D01*
X166002548Y-125142859D01*
X166043209Y-125425669D01*
X166043211Y-125425679D01*
X166123708Y-125699826D01*
X166242393Y-125959710D01*
X166242402Y-125959726D01*
X166396872Y-126200085D01*
X166396878Y-126200092D01*
X166583978Y-126416019D01*
X166583980Y-126416021D01*
X166799907Y-126603121D01*
X166799914Y-126603127D01*
X167040273Y-126757597D01*
X167040289Y-126757606D01*
X167300173Y-126876291D01*
X167300177Y-126876292D01*
X167300179Y-126876293D01*
X167574326Y-126956790D01*
X167857139Y-126997452D01*
X168142858Y-126997452D01*
X168142861Y-126997452D01*
X168425674Y-126956790D01*
X168699821Y-126876293D01*
X168699824Y-126876291D01*
X168699826Y-126876291D01*
X168959710Y-126757606D01*
X168959714Y-126757603D01*
X168959722Y-126757600D01*
X169200086Y-126603127D01*
X169416020Y-126416020D01*
X169603127Y-126200086D01*
X169757600Y-125959722D01*
X169757603Y-125959714D01*
X169757606Y-125959710D01*
X169876291Y-125699826D01*
X169876291Y-125699824D01*
X169876293Y-125699821D01*
X169956790Y-125425674D01*
X169997452Y-125142861D01*
X170000000Y-125000000D01*
X169997452Y-124857139D01*
X169956790Y-124574326D01*
X169876293Y-124300179D01*
X169876292Y-124300177D01*
X169876291Y-124300173D01*
X169757606Y-124040289D01*
X169757597Y-124040273D01*
X169603127Y-123799914D01*
X169603121Y-123799907D01*
X169416021Y-123583980D01*
X169416019Y-123583978D01*
X169200092Y-123396878D01*
X169200085Y-123396872D01*
X168959726Y-123242402D01*
X168959710Y-123242393D01*
X168699826Y-123123708D01*
X168425679Y-123043211D01*
X168425669Y-123043209D01*
X168285865Y-123023108D01*
X168142861Y-123002548D01*
X168142859Y-123002548D01*
X167857140Y-123002548D01*
X167857139Y-123002548D01*
X167785636Y-123012828D01*
X167574330Y-123043209D01*
X167574320Y-123043211D01*
X167300173Y-123123708D01*
X167040289Y-123242393D01*
X167040273Y-123242402D01*
X166799914Y-123396872D01*
X166799907Y-123396878D01*
X166583980Y-123583978D01*
X166583978Y-123583980D01*
X166396878Y-123799907D01*
X166396872Y-123799914D01*
X166242402Y-124040273D01*
X166242393Y-124040289D01*
X166123708Y-124300173D01*
X166043211Y-124574320D01*
X166043209Y-124574330D01*
X166002548Y-124857140D01*
X166002548Y-125142859D01*
X160500500Y-125142859D01*
X160500500Y-111122475D01*
X174399500Y-111122475D01*
X174434704Y-111253856D01*
X174437017Y-111262488D01*
X174509488Y-111388011D01*
X174509490Y-111388013D01*
X174509491Y-111388015D01*
X174611985Y-111490509D01*
X174611986Y-111490510D01*
X174611988Y-111490511D01*
X174737511Y-111562982D01*
X174737512Y-111562982D01*
X174737515Y-111562984D01*
X174877525Y-111600500D01*
X174877528Y-111600500D01*
X175022472Y-111600500D01*
X175022475Y-111600500D01*
X175162485Y-111562984D01*
X175288015Y-111490509D01*
X175390509Y-111388015D01*
X175462984Y-111262485D01*
X175500500Y-111122475D01*
X175500500Y-110429387D01*
X175520185Y-110362348D01*
X175536819Y-110341706D01*
X177918815Y-107959710D01*
X180490510Y-105388015D01*
X180562984Y-105262485D01*
X180600499Y-105122474D01*
X180600499Y-104977526D01*
X180562984Y-104837515D01*
X180490510Y-104711985D01*
X180388015Y-104609490D01*
X180262485Y-104537016D01*
X180122474Y-104499501D01*
X179977526Y-104499501D01*
X179837514Y-104537016D01*
X179711986Y-104609489D01*
X179711983Y-104609491D01*
X174509489Y-109811985D01*
X174458965Y-109899499D01*
X174458963Y-109899501D01*
X174437018Y-109937509D01*
X174437017Y-109937510D01*
X174437016Y-109937515D01*
X174399500Y-110077525D01*
X174399500Y-111122475D01*
X160500500Y-111122475D01*
X160500500Y-110446543D01*
X160520185Y-110379504D01*
X160536819Y-110358862D01*
X163699137Y-107196544D01*
X163752820Y-107142861D01*
X166002548Y-107142861D01*
X166023108Y-107285865D01*
X166043209Y-107425669D01*
X166043211Y-107425679D01*
X166123708Y-107699826D01*
X166242393Y-107959710D01*
X166242402Y-107959726D01*
X166396872Y-108200085D01*
X166396878Y-108200092D01*
X166583978Y-108416019D01*
X166583980Y-108416021D01*
X166799907Y-108603121D01*
X166799914Y-108603127D01*
X167040273Y-108757597D01*
X167040289Y-108757606D01*
X167300173Y-108876291D01*
X167300177Y-108876292D01*
X167300179Y-108876293D01*
X167574326Y-108956790D01*
X167857139Y-108997452D01*
X168142858Y-108997452D01*
X168142861Y-108997452D01*
X168425674Y-108956790D01*
X168699821Y-108876293D01*
X168699824Y-108876291D01*
X168699826Y-108876291D01*
X168959710Y-108757606D01*
X168959714Y-108757603D01*
X168959722Y-108757600D01*
X169200086Y-108603127D01*
X169416020Y-108416020D01*
X169603127Y-108200086D01*
X169757600Y-107959722D01*
X169757603Y-107959714D01*
X169757606Y-107959710D01*
X169876291Y-107699826D01*
X169876291Y-107699824D01*
X169876293Y-107699821D01*
X169956790Y-107425674D01*
X169997452Y-107142861D01*
X170000000Y-107000000D01*
X169997452Y-106857139D01*
X169956790Y-106574326D01*
X169876293Y-106300179D01*
X169876292Y-106300177D01*
X169876291Y-106300173D01*
X169757606Y-106040289D01*
X169757597Y-106040273D01*
X169603127Y-105799914D01*
X169603121Y-105799907D01*
X169416021Y-105583980D01*
X169416019Y-105583978D01*
X169200092Y-105396878D01*
X169200085Y-105396872D01*
X168959726Y-105242402D01*
X168959710Y-105242393D01*
X168699826Y-105123708D01*
X168425679Y-105043211D01*
X168425669Y-105043209D01*
X168285865Y-105023108D01*
X168142861Y-105002548D01*
X168142859Y-105002548D01*
X167857140Y-105002548D01*
X167857139Y-105002548D01*
X167785636Y-105012828D01*
X167574330Y-105043209D01*
X167574320Y-105043211D01*
X167300173Y-105123708D01*
X167040289Y-105242393D01*
X167040273Y-105242402D01*
X166799914Y-105396872D01*
X166799907Y-105396878D01*
X166583980Y-105583978D01*
X166583978Y-105583980D01*
X166396878Y-105799907D01*
X166396872Y-105799914D01*
X166242402Y-106040273D01*
X166242393Y-106040289D01*
X166123708Y-106300173D01*
X166043211Y-106574320D01*
X166043210Y-106574326D01*
X166002548Y-106857139D01*
X166002548Y-107142861D01*
X163752820Y-107142861D01*
X166940469Y-103955212D01*
X166986614Y-103875288D01*
X167010500Y-103786144D01*
X167010500Y-97178126D01*
X167030185Y-97111087D01*
X167076044Y-97068769D01*
X167246450Y-96977685D01*
X167406410Y-96846410D01*
X167537685Y-96686450D01*
X167616643Y-96538730D01*
X167665605Y-96488888D01*
X167733742Y-96473428D01*
X167799422Y-96497260D01*
X167841791Y-96552818D01*
X167850000Y-96597186D01*
X167850000Y-96997844D01*
X167856401Y-97057372D01*
X167856403Y-97057379D01*
X167906645Y-97192086D01*
X167906649Y-97192093D01*
X167992809Y-97307187D01*
X167992812Y-97307190D01*
X168107906Y-97393350D01*
X168107913Y-97393354D01*
X168242620Y-97443596D01*
X168242627Y-97443598D01*
X168302155Y-97449999D01*
X168302172Y-97450000D01*
X168950000Y-97450000D01*
X168950000Y-96544560D01*
X169003147Y-96575245D01*
X169132857Y-96610000D01*
X169267143Y-96610000D01*
X169396853Y-96575245D01*
X169450000Y-96544560D01*
X169450000Y-97450000D01*
X170097828Y-97450000D01*
X170097844Y-97449999D01*
X170157372Y-97443598D01*
X170157379Y-97443596D01*
X170292086Y-97393354D01*
X170292093Y-97393350D01*
X170407187Y-97307190D01*
X170407190Y-97307187D01*
X170493350Y-97192093D01*
X170493354Y-97192086D01*
X170543596Y-97057379D01*
X170543598Y-97057372D01*
X170549999Y-96997844D01*
X170550000Y-96997827D01*
X170550000Y-96597186D01*
X170569685Y-96530147D01*
X170622489Y-96484392D01*
X170691647Y-96474448D01*
X170755203Y-96503473D01*
X170783356Y-96538729D01*
X170862315Y-96686450D01*
X170862317Y-96686452D01*
X170993589Y-96846410D01*
X171090209Y-96925702D01*
X171153550Y-96977685D01*
X171336046Y-97075232D01*
X171534066Y-97135300D01*
X171534065Y-97135300D01*
X171552529Y-97137118D01*
X171740000Y-97155583D01*
X171945934Y-97135300D01*
X172143954Y-97075232D01*
X172326450Y-96977685D01*
X172486410Y-96846410D01*
X172617685Y-96686450D01*
X172715232Y-96503954D01*
X172775300Y-96305934D01*
X172795583Y-96100000D01*
X172775300Y-95894066D01*
X172715232Y-95696046D01*
X172617685Y-95513550D01*
X172565702Y-95450209D01*
X172486410Y-95353589D01*
X172326452Y-95222317D01*
X172326453Y-95222317D01*
X172326450Y-95222315D01*
X172143954Y-95124768D01*
X171945934Y-95064700D01*
X171945932Y-95064699D01*
X171945934Y-95064699D01*
X171740000Y-95044417D01*
X171534067Y-95064699D01*
X171336043Y-95124769D01*
X171225898Y-95183643D01*
X171153550Y-95222315D01*
X171153548Y-95222316D01*
X171153547Y-95222317D01*
X170993589Y-95353589D01*
X170862317Y-95513547D01*
X170783358Y-95661267D01*
X170734395Y-95711111D01*
X170666257Y-95726571D01*
X170600578Y-95702739D01*
X170558209Y-95647181D01*
X170550000Y-95602813D01*
X170550000Y-95202172D01*
X170549999Y-95202155D01*
X170543598Y-95142627D01*
X170543596Y-95142620D01*
X170493354Y-95007913D01*
X170493350Y-95007906D01*
X170407190Y-94892812D01*
X170407187Y-94892809D01*
X170292093Y-94806649D01*
X170292086Y-94806645D01*
X170157379Y-94756403D01*
X170157372Y-94756401D01*
X170097844Y-94750000D01*
X169450000Y-94750000D01*
X169450000Y-95655439D01*
X169396853Y-95624755D01*
X169267143Y-95590000D01*
X169132857Y-95590000D01*
X169003147Y-95624755D01*
X168950000Y-95655439D01*
X168950000Y-94750000D01*
X168302155Y-94750000D01*
X168242627Y-94756401D01*
X168242620Y-94756403D01*
X168107913Y-94806645D01*
X168107906Y-94806649D01*
X167992812Y-94892809D01*
X167992809Y-94892812D01*
X167906649Y-95007906D01*
X167906645Y-95007913D01*
X167856403Y-95142620D01*
X167856401Y-95142627D01*
X167850000Y-95202155D01*
X167850000Y-95602813D01*
X167830315Y-95669852D01*
X167777511Y-95715607D01*
X167708353Y-95725551D01*
X167644797Y-95696526D01*
X167616642Y-95661267D01*
X167609113Y-95647181D01*
X167537685Y-95513550D01*
X167485702Y-95450209D01*
X167406410Y-95353589D01*
X167246452Y-95222317D01*
X167246453Y-95222317D01*
X167246450Y-95222315D01*
X167063954Y-95124768D01*
X166865934Y-95064700D01*
X166865932Y-95064699D01*
X166865934Y-95064699D01*
X166660000Y-95044417D01*
X166454067Y-95064699D01*
X166256043Y-95124769D01*
X166145898Y-95183643D01*
X166073550Y-95222315D01*
X166073548Y-95222316D01*
X166073547Y-95222317D01*
X165913589Y-95353589D01*
X165782317Y-95513547D01*
X165684769Y-95696043D01*
X165624699Y-95894067D01*
X165604417Y-96100000D01*
X165624699Y-96305932D01*
X165624700Y-96305934D01*
X165684768Y-96503954D01*
X165782315Y-96686450D01*
X165782317Y-96686452D01*
X165913589Y-96846410D01*
X166010209Y-96925702D01*
X166073550Y-96977685D01*
X166243955Y-97068769D01*
X166293798Y-97117731D01*
X166309500Y-97178126D01*
X166309500Y-103543456D01*
X166289815Y-103610495D01*
X166273181Y-103631137D01*
X159869531Y-110034786D01*
X159869527Y-110034791D01*
X159823387Y-110114709D01*
X159823386Y-110114712D01*
X159799500Y-110203856D01*
X159799500Y-143803856D01*
X159799500Y-144396144D01*
X159812898Y-144446144D01*
X159823386Y-144485287D01*
X159823387Y-144485290D01*
X159869527Y-144565208D01*
X159869531Y-144565213D01*
X164616775Y-149312457D01*
X164650260Y-149373780D01*
X164645276Y-149443472D01*
X164603404Y-149499405D01*
X164542978Y-149523358D01*
X164401057Y-149539349D01*
X164332235Y-149527295D01*
X164299492Y-149503810D01*
X159086819Y-144291137D01*
X159053334Y-144229814D01*
X159050500Y-144203456D01*
X159050500Y-109246544D01*
X159070185Y-109179505D01*
X159086819Y-109158863D01*
X161671362Y-106574320D01*
X164400470Y-103845212D01*
X164446614Y-103765288D01*
X164470500Y-103676143D01*
X164470500Y-103583856D01*
X164470500Y-97178126D01*
X164490185Y-97111087D01*
X164536044Y-97068769D01*
X164706450Y-96977685D01*
X164866410Y-96846410D01*
X164997685Y-96686450D01*
X165095232Y-96503954D01*
X165155300Y-96305934D01*
X165175583Y-96100000D01*
X165155300Y-95894066D01*
X165095232Y-95696046D01*
X164997685Y-95513550D01*
X164945702Y-95450209D01*
X164866410Y-95353589D01*
X164706452Y-95222317D01*
X164706453Y-95222317D01*
X164706450Y-95222315D01*
X164523954Y-95124768D01*
X164325934Y-95064700D01*
X164325932Y-95064699D01*
X164325934Y-95064699D01*
X164120000Y-95044417D01*
X163914067Y-95064699D01*
X163716043Y-95124769D01*
X163605898Y-95183643D01*
X163533550Y-95222315D01*
X163533548Y-95222316D01*
X163533547Y-95222317D01*
X163373589Y-95353589D01*
X163242317Y-95513547D01*
X163144769Y-95696043D01*
X163084699Y-95894067D01*
X163064417Y-96100000D01*
X163084699Y-96305932D01*
X163084700Y-96305934D01*
X163144768Y-96503954D01*
X163242315Y-96686450D01*
X163242317Y-96686452D01*
X163373589Y-96846410D01*
X163470209Y-96925702D01*
X163533550Y-96977685D01*
X163703955Y-97068769D01*
X163753798Y-97117731D01*
X163769500Y-97178126D01*
X163769500Y-103433456D01*
X163749815Y-103500495D01*
X163733181Y-103521137D01*
X158419531Y-108834786D01*
X158419527Y-108834791D01*
X158373387Y-108914709D01*
X158373386Y-108914712D01*
X158349500Y-109003856D01*
X158349500Y-144446144D01*
X147525500Y-144446144D01*
X147525500Y-142324500D01*
X147545185Y-142257461D01*
X147597989Y-142211706D01*
X147649500Y-142200500D01*
X151576903Y-142200500D01*
X151576905Y-142200500D01*
X151666049Y-142176614D01*
X151745973Y-142130470D01*
X153789624Y-140086819D01*
X153850947Y-140053334D01*
X153877305Y-140050500D01*
X154296142Y-140050500D01*
X154296144Y-140050500D01*
X154385288Y-140026614D01*
X154465212Y-139980470D01*
X155004123Y-139441557D01*
X155065444Y-139408074D01*
X155091871Y-139407144D01*
X155091871Y-139405250D01*
X155100000Y-139405250D01*
X155243709Y-139386330D01*
X155377625Y-139330861D01*
X155492621Y-139242621D01*
X155580861Y-139127625D01*
X155636330Y-138993709D01*
X155655250Y-138850000D01*
X155636330Y-138706291D01*
X155580861Y-138572375D01*
X155492621Y-138457379D01*
X155377625Y-138369139D01*
X155377624Y-138369138D01*
X155377622Y-138369137D01*
X155243712Y-138313671D01*
X155243710Y-138313670D01*
X155243709Y-138313670D01*
X155171854Y-138304210D01*
X155100001Y-138294750D01*
X155099999Y-138294750D01*
X154956291Y-138313670D01*
X154956287Y-138313671D01*
X154822377Y-138369137D01*
X154707379Y-138457379D01*
X154619137Y-138572377D01*
X154563671Y-138706287D01*
X154563670Y-138706291D01*
X154544750Y-138850000D01*
X154544750Y-138858128D01*
X154541456Y-138858128D01*
X154532192Y-138912588D01*
X154508439Y-138945877D01*
X154141137Y-139313181D01*
X154079814Y-139346666D01*
X154053456Y-139349500D01*
X153634617Y-139349500D01*
X153545473Y-139373386D01*
X153545470Y-139373387D01*
X153465552Y-139419527D01*
X153465547Y-139419531D01*
X151421898Y-141463181D01*
X151360575Y-141496666D01*
X151334217Y-141499500D01*
X147563895Y-141499500D01*
X147496856Y-141479815D01*
X147482688Y-141469210D01*
X147481132Y-141467862D01*
X147481128Y-141467857D01*
X147360053Y-141390047D01*
X147360051Y-141390046D01*
X147360049Y-141390045D01*
X147360050Y-141390045D01*
X147221963Y-141349500D01*
X147221961Y-141349500D01*
X147078039Y-141349500D01*
X147078036Y-141349500D01*
X146939949Y-141390045D01*
X146818873Y-141467856D01*
X146724623Y-141576626D01*
X146724622Y-141576628D01*
X146664835Y-141707541D01*
X146664834Y-141707546D01*
X146662578Y-141723239D01*
X146657099Y-141743210D01*
X146657304Y-141743265D01*
X146648712Y-141775324D01*
X146648713Y-141775325D01*
X146624500Y-141865691D01*
X146624500Y-144116266D01*
X146604815Y-144183305D01*
X146552011Y-144229060D01*
X146482853Y-144239004D01*
X146419297Y-144209979D01*
X146406788Y-144197470D01*
X146381127Y-144167856D01*
X146303326Y-144117857D01*
X146260053Y-144090047D01*
X146260051Y-144090046D01*
X146260049Y-144090045D01*
X146260050Y-144090045D01*
X146121963Y-144049500D01*
X146121961Y-144049500D01*
X145978039Y-144049500D01*
X145978036Y-144049500D01*
X145839949Y-144090045D01*
X145718872Y-144167856D01*
X145690374Y-144200745D01*
X145631595Y-144238519D01*
X145561726Y-144238518D01*
X145502949Y-144200744D01*
X145431128Y-144117857D01*
X145310053Y-144040047D01*
X145310051Y-144040046D01*
X145310049Y-144040045D01*
X145310050Y-144040045D01*
X145171963Y-143999500D01*
X145171961Y-143999500D01*
X145028039Y-143999500D01*
X145028036Y-143999500D01*
X144889949Y-144040045D01*
X144768873Y-144117856D01*
X144674623Y-144226626D01*
X144674622Y-144226628D01*
X144614834Y-144357543D01*
X144594353Y-144500000D01*
X144598238Y-144527020D01*
X144599500Y-144544667D01*
X144599500Y-147129663D01*
X144588294Y-147181174D01*
X144564835Y-147232541D01*
X144564834Y-147232542D01*
X144544353Y-147375000D01*
X121045820Y-147375000D01*
X121002860Y-147346295D01*
X120848082Y-147282184D01*
X120848074Y-147282182D01*
X120683771Y-147249500D01*
X120683767Y-147249500D01*
X120516233Y-147249500D01*
X120516228Y-147249500D01*
X120351925Y-147282182D01*
X120351917Y-147282184D01*
X120197139Y-147346295D01*
X120057837Y-147439373D01*
X119939373Y-147557837D01*
X119846295Y-147697139D01*
X119782184Y-147851917D01*
X119782182Y-147851925D01*
X119749500Y-148016228D01*
X119749500Y-148183771D01*
X116183771Y-148183771D01*
X114904269Y-146904269D01*
X121149500Y-146904269D01*
X121152353Y-146934699D01*
X121152353Y-146934701D01*
X121197206Y-147062880D01*
X121197207Y-147062882D01*
X121277850Y-147172150D01*
X121387118Y-147252793D01*
X121408089Y-147260131D01*
X121515299Y-147297646D01*
X121545730Y-147300500D01*
X121545734Y-147300500D01*
X122854270Y-147300500D01*
X122884699Y-147297646D01*
X122884701Y-147297646D01*
X122948790Y-147275219D01*
X123012882Y-147252793D01*
X123122150Y-147172150D01*
X123202793Y-147062882D01*
X123225219Y-146998790D01*
X123247646Y-146934701D01*
X123247646Y-146934699D01*
X123250500Y-146904269D01*
X123250500Y-146353469D01*
X123649500Y-146353469D01*
X123689868Y-146556412D01*
X123689870Y-146556420D01*
X123769058Y-146747596D01*
X123884024Y-146919657D01*
X124030342Y-147065975D01*
X124030345Y-147065977D01*
X124202402Y-147180941D01*
X124393580Y-147260130D01*
X124582187Y-147297646D01*
X124596530Y-147300499D01*
X124596534Y-147300500D01*
X124596535Y-147300500D01*
X124803466Y-147300500D01*
X124803467Y-147300499D01*
X125006420Y-147260130D01*
X125197598Y-147180941D01*
X125369655Y-147065977D01*
X125515977Y-146919655D01*
X125630941Y-146747598D01*
X125710130Y-146556420D01*
X125750500Y-146353465D01*
X125750500Y-145846535D01*
X125710130Y-145643580D01*
X125630941Y-145452402D01*
X125515977Y-145280345D01*
X125515975Y-145280342D01*
X125369657Y-145134024D01*
X125225962Y-145038011D01*
X125197598Y-145019059D01*
X125006420Y-144939870D01*
X125006412Y-144939868D01*
X124803469Y-144899500D01*
X124803465Y-144899500D01*
X124596535Y-144899500D01*
X124596530Y-144899500D01*
X124393587Y-144939868D01*
X124393579Y-144939870D01*
X124202403Y-145019058D01*
X124030342Y-145134024D01*
X123884024Y-145280342D01*
X123769058Y-145452403D01*
X123689870Y-145643579D01*
X123689868Y-145643587D01*
X123649500Y-145846530D01*
X123649500Y-146353469D01*
X123250500Y-146353469D01*
X123250500Y-145295730D01*
X123247646Y-145265300D01*
X123247646Y-145265298D01*
X123203980Y-145140511D01*
X123202793Y-145137118D01*
X123122150Y-145027850D01*
X123012882Y-144947207D01*
X123012880Y-144947206D01*
X122884700Y-144902353D01*
X122854270Y-144899500D01*
X122854266Y-144899500D01*
X121545734Y-144899500D01*
X121545730Y-144899500D01*
X121515300Y-144902353D01*
X121515298Y-144902353D01*
X121387119Y-144947206D01*
X121387117Y-144947207D01*
X121277850Y-145027850D01*
X121197207Y-145137117D01*
X121197206Y-145137119D01*
X121152353Y-145265298D01*
X121152353Y-145265300D01*
X121149500Y-145295730D01*
X121149500Y-146904269D01*
X114904269Y-146904269D01*
X110036319Y-142036319D01*
X110002834Y-141974996D01*
X110000000Y-141948638D01*
X110000000Y-141372474D01*
X126699500Y-141372474D01*
X126737016Y-141512485D01*
X126774047Y-141576626D01*
X126809489Y-141638013D01*
X126809491Y-141638016D01*
X127713181Y-142541706D01*
X127746666Y-142603029D01*
X127749500Y-142629387D01*
X127749500Y-144772475D01*
X127787016Y-144912485D01*
X127787017Y-144912488D01*
X127859488Y-145038011D01*
X127859490Y-145038013D01*
X127859491Y-145038015D01*
X127961985Y-145140509D01*
X127961986Y-145140510D01*
X127961988Y-145140511D01*
X128087511Y-145212982D01*
X128087512Y-145212982D01*
X128087515Y-145212984D01*
X128227525Y-145250500D01*
X128227528Y-145250500D01*
X128372472Y-145250500D01*
X128372475Y-145250500D01*
X128512485Y-145212984D01*
X128638015Y-145140509D01*
X128740509Y-145038015D01*
X128812984Y-144912485D01*
X128850500Y-144772475D01*
X128850500Y-142277525D01*
X128812984Y-142137515D01*
X128771240Y-142065212D01*
X128740510Y-142011985D01*
X127588015Y-140859490D01*
X127462485Y-140787016D01*
X127462486Y-140787016D01*
X127427482Y-140777637D01*
X127322474Y-140749500D01*
X127177526Y-140749500D01*
X127072517Y-140777637D01*
X127037514Y-140787016D01*
X126911986Y-140859489D01*
X126911983Y-140859491D01*
X126809491Y-140961983D01*
X126809489Y-140961986D01*
X126737016Y-141087514D01*
X126737016Y-141087515D01*
X126699500Y-141227526D01*
X126699500Y-141372474D01*
X110000000Y-141372474D01*
X110000000Y-139900000D01*
X111040793Y-139900000D01*
X111059569Y-140078640D01*
X111102940Y-140212125D01*
X111115075Y-140249471D01*
X111204887Y-140405029D01*
X111325078Y-140538515D01*
X111470396Y-140644095D01*
X111634490Y-140717154D01*
X111810188Y-140754500D01*
X111989812Y-140754500D01*
X112165510Y-140717154D01*
X112329604Y-140644095D01*
X112474922Y-140538515D01*
X112595113Y-140405029D01*
X112684925Y-140249471D01*
X112740431Y-140078639D01*
X112759207Y-139900000D01*
X116040793Y-139900000D01*
X116059569Y-140078640D01*
X116102940Y-140212125D01*
X116115075Y-140249471D01*
X116204887Y-140405029D01*
X116325078Y-140538515D01*
X116470396Y-140644095D01*
X116634490Y-140717154D01*
X116810188Y-140754500D01*
X116989812Y-140754500D01*
X117165510Y-140717154D01*
X117329604Y-140644095D01*
X117474922Y-140538515D01*
X117595113Y-140405029D01*
X117684925Y-140249471D01*
X117740431Y-140078639D01*
X117759207Y-139900000D01*
X117740431Y-139721361D01*
X117684925Y-139550529D01*
X117595113Y-139394971D01*
X117474922Y-139261485D01*
X117329604Y-139155905D01*
X117165510Y-139082846D01*
X117165508Y-139082845D01*
X116989812Y-139045500D01*
X116810188Y-139045500D01*
X116634490Y-139082845D01*
X116634485Y-139082847D01*
X116470397Y-139155905D01*
X116470392Y-139155907D01*
X116325079Y-139261483D01*
X116325072Y-139261489D01*
X116204886Y-139394972D01*
X116115074Y-139550530D01*
X116059569Y-139721359D01*
X116040793Y-139900000D01*
X112759207Y-139900000D01*
X112740431Y-139721361D01*
X112684925Y-139550529D01*
X112595113Y-139394971D01*
X112474922Y-139261485D01*
X112329604Y-139155905D01*
X112165510Y-139082846D01*
X112165508Y-139082845D01*
X111989812Y-139045500D01*
X111810188Y-139045500D01*
X111634490Y-139082845D01*
X111634485Y-139082847D01*
X111470397Y-139155905D01*
X111470392Y-139155907D01*
X111325079Y-139261483D01*
X111325072Y-139261489D01*
X111204886Y-139394972D01*
X111115074Y-139550530D01*
X111059569Y-139721359D01*
X111040793Y-139900000D01*
X110000000Y-139900000D01*
X110000000Y-137900000D01*
X111040793Y-137900000D01*
X111059569Y-138078640D01*
X111108828Y-138230247D01*
X111115075Y-138249471D01*
X111204887Y-138405029D01*
X111325078Y-138538515D01*
X111470396Y-138644095D01*
X111634490Y-138717154D01*
X111810188Y-138754500D01*
X111989812Y-138754500D01*
X112165510Y-138717154D01*
X112329604Y-138644095D01*
X112474922Y-138538515D01*
X112595113Y-138405029D01*
X112684925Y-138249471D01*
X112740431Y-138078639D01*
X112759207Y-137900000D01*
X116040793Y-137900000D01*
X116059569Y-138078640D01*
X116108828Y-138230247D01*
X116115075Y-138249471D01*
X116204887Y-138405029D01*
X116325078Y-138538515D01*
X116470396Y-138644095D01*
X116634490Y-138717154D01*
X116810188Y-138754500D01*
X116989812Y-138754500D01*
X117165510Y-138717154D01*
X117329604Y-138644095D01*
X117474922Y-138538515D01*
X117595113Y-138405029D01*
X117684925Y-138249471D01*
X117740431Y-138078639D01*
X117759207Y-137900000D01*
X117740431Y-137721361D01*
X117695726Y-137583771D01*
X119549500Y-137583771D01*
X119582182Y-137748074D01*
X119582184Y-137748082D01*
X119646295Y-137902860D01*
X119739373Y-138042162D01*
X119857837Y-138160626D01*
X119950494Y-138222537D01*
X119997137Y-138253703D01*
X120151918Y-138317816D01*
X120316228Y-138350499D01*
X120316232Y-138350500D01*
X120316233Y-138350500D01*
X120483768Y-138350500D01*
X120483769Y-138350499D01*
X120648082Y-138317816D01*
X120802863Y-138253703D01*
X120942162Y-138160626D01*
X121060626Y-138042162D01*
X121153703Y-137902863D01*
X121217816Y-137748082D01*
X121250500Y-137583767D01*
X121250500Y-137416233D01*
X121217816Y-137251918D01*
X121153703Y-137097137D01*
X121119200Y-137045500D01*
X121060626Y-136957837D01*
X120942162Y-136839373D01*
X120802860Y-136746295D01*
X120648082Y-136682184D01*
X120648074Y-136682182D01*
X120483771Y-136649500D01*
X120483767Y-136649500D01*
X120316233Y-136649500D01*
X120316228Y-136649500D01*
X120151925Y-136682182D01*
X120151917Y-136682184D01*
X119997139Y-136746295D01*
X119857837Y-136839373D01*
X119739373Y-136957837D01*
X119646295Y-137097139D01*
X119582184Y-137251917D01*
X119582182Y-137251925D01*
X119549500Y-137416228D01*
X119549500Y-137583771D01*
X117695726Y-137583771D01*
X117684925Y-137550529D01*
X117595113Y-137394971D01*
X117474922Y-137261485D01*
X117329604Y-137155905D01*
X117165510Y-137082846D01*
X117165508Y-137082845D01*
X116989812Y-137045500D01*
X116810188Y-137045500D01*
X116634490Y-137082845D01*
X116634485Y-137082847D01*
X116470397Y-137155905D01*
X116470392Y-137155907D01*
X116325079Y-137261483D01*
X116325072Y-137261489D01*
X116204886Y-137394972D01*
X116115074Y-137550530D01*
X116059569Y-137721359D01*
X116040793Y-137900000D01*
X112759207Y-137900000D01*
X112740431Y-137721361D01*
X112684925Y-137550529D01*
X112595113Y-137394971D01*
X112474922Y-137261485D01*
X112329604Y-137155905D01*
X112165510Y-137082846D01*
X112165508Y-137082845D01*
X111989812Y-137045500D01*
X111810188Y-137045500D01*
X111634490Y-137082845D01*
X111634485Y-137082847D01*
X111470397Y-137155905D01*
X111470392Y-137155907D01*
X111325079Y-137261483D01*
X111325072Y-137261489D01*
X111204886Y-137394972D01*
X111115074Y-137550530D01*
X111059569Y-137721359D01*
X111040793Y-137900000D01*
X110000000Y-137900000D01*
X110000000Y-135900000D01*
X111040793Y-135900000D01*
X111059569Y-136078640D01*
X111090093Y-136172585D01*
X111115075Y-136249471D01*
X111204887Y-136405029D01*
X111299361Y-136509953D01*
X111319594Y-136532425D01*
X111325078Y-136538515D01*
X111470396Y-136644095D01*
X111634490Y-136717154D01*
X111810188Y-136754500D01*
X111989812Y-136754500D01*
X112165510Y-136717154D01*
X112329604Y-136644095D01*
X112426423Y-136573752D01*
X116045500Y-136573752D01*
X116057131Y-136632229D01*
X116057132Y-136632230D01*
X116101447Y-136698552D01*
X116167769Y-136742867D01*
X116167770Y-136742868D01*
X116226247Y-136754499D01*
X116226250Y-136754500D01*
X116226252Y-136754500D01*
X117573750Y-136754500D01*
X117573751Y-136754499D01*
X117588568Y-136751552D01*
X117632229Y-136742868D01*
X117632229Y-136742867D01*
X117632231Y-136742867D01*
X117698552Y-136698552D01*
X117742867Y-136632231D01*
X117742867Y-136632229D01*
X117742868Y-136632229D01*
X117754499Y-136573752D01*
X117754500Y-136573750D01*
X117754500Y-136304269D01*
X120949500Y-136304269D01*
X120952353Y-136334699D01*
X120952353Y-136334701D01*
X120997206Y-136462880D01*
X120997207Y-136462882D01*
X121077850Y-136572150D01*
X121187118Y-136652793D01*
X121202142Y-136658050D01*
X121315299Y-136697646D01*
X121345730Y-136700500D01*
X121345734Y-136700500D01*
X122654270Y-136700500D01*
X122684699Y-136697646D01*
X122684701Y-136697646D01*
X122748790Y-136675219D01*
X122812882Y-136652793D01*
X122922150Y-136572150D01*
X123002793Y-136462882D01*
X123039648Y-136357557D01*
X123047646Y-136334701D01*
X123047646Y-136334699D01*
X123050500Y-136304269D01*
X123050500Y-136295323D01*
X123070185Y-136228284D01*
X123122989Y-136182529D01*
X123192147Y-136172585D01*
X123255703Y-136201610D01*
X123284985Y-136239028D01*
X123345379Y-136357557D01*
X123470272Y-136529459D01*
X123470276Y-136529464D01*
X123620535Y-136679723D01*
X123620540Y-136679727D01*
X123792442Y-136804620D01*
X123981782Y-136901095D01*
X124183871Y-136966757D01*
X124250000Y-136977231D01*
X124250000Y-135933012D01*
X124307007Y-135965925D01*
X124434174Y-136000000D01*
X124565826Y-136000000D01*
X124692993Y-135965925D01*
X124750000Y-135933012D01*
X124750000Y-136977230D01*
X124816126Y-136966757D01*
X124816129Y-136966757D01*
X125018217Y-136901095D01*
X125207557Y-136804620D01*
X125379459Y-136679727D01*
X125379464Y-136679723D01*
X125529723Y-136529464D01*
X125529727Y-136529459D01*
X125654620Y-136357557D01*
X125751095Y-136168217D01*
X125816757Y-135966130D01*
X125816757Y-135966127D01*
X125850000Y-135756246D01*
X125850000Y-135750000D01*
X141144353Y-135750000D01*
X141164834Y-135892456D01*
X141213949Y-136000000D01*
X141224623Y-136023373D01*
X141318872Y-136132143D01*
X141439947Y-136209953D01*
X141439950Y-136209954D01*
X141439949Y-136209954D01*
X141578036Y-136250499D01*
X141578038Y-136250500D01*
X141578039Y-136250500D01*
X141721962Y-136250500D01*
X141721962Y-136250499D01*
X141860053Y-136209953D01*
X141981128Y-136132143D01*
X142075377Y-136023373D01*
X142135165Y-135892457D01*
X142136095Y-135885986D01*
X142165116Y-135822432D01*
X142171138Y-135815963D01*
X144941095Y-133046007D01*
X144993844Y-133014712D01*
X145010053Y-133009953D01*
X145037278Y-132992457D01*
X145131123Y-132932146D01*
X145131122Y-132932146D01*
X145131128Y-132932143D01*
X145225377Y-132823373D01*
X145285165Y-132692457D01*
X145305647Y-132550000D01*
X145285165Y-132407543D01*
X145225377Y-132276627D01*
X145131128Y-132167857D01*
X145010053Y-132090047D01*
X145010051Y-132090046D01*
X145010049Y-132090045D01*
X145010050Y-132090045D01*
X144871963Y-132049500D01*
X144871961Y-132049500D01*
X144728039Y-132049500D01*
X144728036Y-132049500D01*
X144589949Y-132090045D01*
X144468873Y-132167856D01*
X144374623Y-132276626D01*
X144332098Y-132369741D01*
X144306985Y-132405909D01*
X141401528Y-135311367D01*
X141380888Y-135328000D01*
X141318875Y-135367854D01*
X141318866Y-135367862D01*
X141224625Y-135476622D01*
X141224622Y-135476628D01*
X141164834Y-135607543D01*
X141144353Y-135750000D01*
X125850000Y-135750000D01*
X124933012Y-135750000D01*
X124965925Y-135692993D01*
X125000000Y-135565826D01*
X125000000Y-135434174D01*
X124965925Y-135307007D01*
X124933012Y-135250000D01*
X125850000Y-135250000D01*
X125850000Y-135243753D01*
X125816757Y-135033872D01*
X125816757Y-135033869D01*
X125751095Y-134831782D01*
X125654620Y-134642442D01*
X125529727Y-134470540D01*
X125529723Y-134470535D01*
X125379464Y-134320276D01*
X125379459Y-134320272D01*
X125207557Y-134195379D01*
X125018215Y-134098903D01*
X124816124Y-134033241D01*
X124750000Y-134022768D01*
X124750000Y-135066988D01*
X124692993Y-135034075D01*
X124565826Y-135000000D01*
X124434174Y-135000000D01*
X124307007Y-135034075D01*
X124250000Y-135066988D01*
X124250000Y-134022768D01*
X124249999Y-134022768D01*
X124183875Y-134033241D01*
X123981784Y-134098903D01*
X123792442Y-134195379D01*
X123620540Y-134320272D01*
X123620535Y-134320276D01*
X123470276Y-134470535D01*
X123470272Y-134470540D01*
X123345379Y-134642442D01*
X123284985Y-134760971D01*
X123237010Y-134811767D01*
X123169189Y-134828562D01*
X123103054Y-134806024D01*
X123059603Y-134751309D01*
X123050500Y-134704676D01*
X123050500Y-134695730D01*
X123047646Y-134665300D01*
X123047646Y-134665298D01*
X123002793Y-134537119D01*
X123002792Y-134537117D01*
X122953656Y-134470540D01*
X122922150Y-134427850D01*
X122812882Y-134347207D01*
X122812880Y-134347206D01*
X122684700Y-134302353D01*
X122654270Y-134299500D01*
X122654266Y-134299500D01*
X121345734Y-134299500D01*
X121345730Y-134299500D01*
X121315300Y-134302353D01*
X121315298Y-134302353D01*
X121187119Y-134347206D01*
X121187117Y-134347207D01*
X121077850Y-134427850D01*
X120997207Y-134537117D01*
X120997206Y-134537119D01*
X120952353Y-134665298D01*
X120952353Y-134665300D01*
X120949500Y-134695730D01*
X120949500Y-136304269D01*
X117754500Y-136304269D01*
X117754500Y-135226249D01*
X117754499Y-135226247D01*
X117742868Y-135167770D01*
X117742867Y-135167769D01*
X117698552Y-135101447D01*
X117632230Y-135057132D01*
X117632229Y-135057131D01*
X117573752Y-135045500D01*
X117573748Y-135045500D01*
X116226252Y-135045500D01*
X116226247Y-135045500D01*
X116167770Y-135057131D01*
X116167769Y-135057132D01*
X116101447Y-135101447D01*
X116057132Y-135167769D01*
X116057131Y-135167770D01*
X116045500Y-135226247D01*
X116045500Y-136573752D01*
X112426423Y-136573752D01*
X112474922Y-136538515D01*
X112595113Y-136405029D01*
X112684925Y-136249471D01*
X112740431Y-136078639D01*
X112759207Y-135900000D01*
X112740431Y-135721361D01*
X112684925Y-135550529D01*
X112595113Y-135394971D01*
X112474922Y-135261485D01*
X112329604Y-135155905D01*
X112165510Y-135082846D01*
X112165508Y-135082845D01*
X111989812Y-135045500D01*
X111810188Y-135045500D01*
X111634490Y-135082845D01*
X111634485Y-135082847D01*
X111470397Y-135155905D01*
X111470392Y-135155907D01*
X111325079Y-135261483D01*
X111325072Y-135261489D01*
X111204886Y-135394972D01*
X111115074Y-135550530D01*
X111059569Y-135721359D01*
X111040793Y-135900000D01*
X110000000Y-135900000D01*
X110000000Y-132124000D01*
X110019685Y-132056961D01*
X110072489Y-132011206D01*
X110124000Y-132000000D01*
X119000000Y-132000000D01*
X119000000Y-130796143D01*
X146749500Y-130796143D01*
X146773386Y-130885287D01*
X146773387Y-130885290D01*
X146819527Y-130965208D01*
X146819531Y-130965213D01*
X147613495Y-131759176D01*
X147646980Y-131820499D01*
X147648552Y-131829210D01*
X147664834Y-131942456D01*
X147691114Y-132000000D01*
X147724623Y-132073373D01*
X147818872Y-132182143D01*
X147939947Y-132259953D01*
X147939950Y-132259954D01*
X147939949Y-132259954D01*
X148078036Y-132300499D01*
X148078038Y-132300500D01*
X148078039Y-132300500D01*
X148221962Y-132300500D01*
X148221962Y-132300499D01*
X148360053Y-132259953D01*
X148481128Y-132182143D01*
X148575377Y-132073373D01*
X148635165Y-131942457D01*
X148655647Y-131800000D01*
X148635165Y-131657543D01*
X148575377Y-131526627D01*
X148481128Y-131417857D01*
X148360053Y-131340047D01*
X148360051Y-131340046D01*
X148360049Y-131340045D01*
X148360050Y-131340045D01*
X148221963Y-131299500D01*
X148221961Y-131299500D01*
X148196543Y-131299500D01*
X148129504Y-131279815D01*
X148108862Y-131263181D01*
X147486819Y-130641137D01*
X147453334Y-130579814D01*
X147450500Y-130553456D01*
X147450500Y-116196544D01*
X147470185Y-116129505D01*
X147486819Y-116108863D01*
X147810896Y-115784786D01*
X152080470Y-111515212D01*
X152126614Y-111435288D01*
X152150500Y-111346143D01*
X152150500Y-111253856D01*
X152150500Y-102746543D01*
X152170185Y-102679504D01*
X152186819Y-102658862D01*
X153205186Y-101640495D01*
X154240469Y-100605212D01*
X154286614Y-100525288D01*
X154310500Y-100436144D01*
X154310500Y-97178126D01*
X154330185Y-97111087D01*
X154376044Y-97068769D01*
X154546450Y-96977685D01*
X154706410Y-96846410D01*
X154837685Y-96686450D01*
X154916643Y-96538730D01*
X154965605Y-96488888D01*
X155033742Y-96473428D01*
X155099422Y-96497260D01*
X155141791Y-96552818D01*
X155150000Y-96597186D01*
X155150000Y-96997844D01*
X155156401Y-97057372D01*
X155156403Y-97057379D01*
X155206645Y-97192086D01*
X155206649Y-97192093D01*
X155292809Y-97307187D01*
X155292812Y-97307190D01*
X155407906Y-97393350D01*
X155407913Y-97393354D01*
X155542620Y-97443596D01*
X155542627Y-97443598D01*
X155602155Y-97449999D01*
X155602172Y-97450000D01*
X156250000Y-97450000D01*
X156250000Y-96544560D01*
X156303147Y-96575245D01*
X156432857Y-96610000D01*
X156567143Y-96610000D01*
X156696853Y-96575245D01*
X156750000Y-96544560D01*
X156750000Y-97450000D01*
X157397828Y-97450000D01*
X157397844Y-97449999D01*
X157457372Y-97443598D01*
X157457379Y-97443596D01*
X157592086Y-97393354D01*
X157592093Y-97393350D01*
X157707187Y-97307190D01*
X157707190Y-97307187D01*
X157793350Y-97192093D01*
X157793354Y-97192086D01*
X157843596Y-97057379D01*
X157843598Y-97057372D01*
X157849999Y-96997844D01*
X157850000Y-96997827D01*
X157850000Y-96597186D01*
X157869685Y-96530147D01*
X157922489Y-96484392D01*
X157991647Y-96474448D01*
X158055203Y-96503473D01*
X158083356Y-96538729D01*
X158162315Y-96686450D01*
X158162317Y-96686452D01*
X158293589Y-96846410D01*
X158390209Y-96925702D01*
X158453550Y-96977685D01*
X158623955Y-97068769D01*
X158673798Y-97117731D01*
X158689500Y-97178126D01*
X158689500Y-100063456D01*
X158669815Y-100130495D01*
X158653181Y-100151137D01*
X153419532Y-105384785D01*
X153419527Y-105384791D01*
X153378708Y-105455493D01*
X153373389Y-105464704D01*
X153373385Y-105464715D01*
X153349500Y-105553856D01*
X153349500Y-128053456D01*
X153329815Y-128120495D01*
X153313181Y-128141137D01*
X149591137Y-131863181D01*
X149529814Y-131896666D01*
X149503456Y-131899500D01*
X149478036Y-131899500D01*
X149339949Y-131940045D01*
X149218873Y-132017856D01*
X149124623Y-132126626D01*
X149124622Y-132126628D01*
X149064834Y-132257543D01*
X149044353Y-132400000D01*
X149064834Y-132542456D01*
X149124622Y-132673371D01*
X149124623Y-132673373D01*
X149218872Y-132782143D01*
X149339947Y-132859953D01*
X149339950Y-132859954D01*
X149339949Y-132859954D01*
X149478036Y-132900499D01*
X149478038Y-132900500D01*
X149478039Y-132900500D01*
X149621962Y-132900500D01*
X149621962Y-132900499D01*
X149760053Y-132859953D01*
X149775540Y-132850000D01*
X151044353Y-132850000D01*
X151064834Y-132992456D01*
X151124622Y-133123371D01*
X151124623Y-133123373D01*
X151218872Y-133232143D01*
X151339947Y-133309953D01*
X151339950Y-133309954D01*
X151339949Y-133309954D01*
X151478036Y-133350499D01*
X151478038Y-133350500D01*
X151478039Y-133350500D01*
X151621962Y-133350500D01*
X151621962Y-133350499D01*
X151760053Y-133309953D01*
X151881128Y-133232143D01*
X151975377Y-133123373D01*
X152035165Y-132992457D01*
X152051447Y-132879208D01*
X152080470Y-132815656D01*
X152086489Y-132809191D01*
X156630470Y-128265212D01*
X156676614Y-128185288D01*
X156700500Y-128096144D01*
X156700500Y-107196544D01*
X156720185Y-107129505D01*
X156736819Y-107108863D01*
X159236193Y-104609489D01*
X161860470Y-101985212D01*
X161906614Y-101905288D01*
X161930500Y-101816144D01*
X161930500Y-97178126D01*
X161950185Y-97111087D01*
X161996044Y-97068769D01*
X162166450Y-96977685D01*
X162326410Y-96846410D01*
X162457685Y-96686450D01*
X162555232Y-96503954D01*
X162615300Y-96305934D01*
X162635583Y-96100000D01*
X162615300Y-95894066D01*
X162555232Y-95696046D01*
X162457685Y-95513550D01*
X162405702Y-95450209D01*
X162326410Y-95353589D01*
X162166452Y-95222317D01*
X162166453Y-95222317D01*
X162166450Y-95222315D01*
X161983954Y-95124768D01*
X161785934Y-95064700D01*
X161785932Y-95064699D01*
X161785934Y-95064699D01*
X161580000Y-95044417D01*
X161374067Y-95064699D01*
X161176043Y-95124769D01*
X161065898Y-95183643D01*
X160993550Y-95222315D01*
X160993548Y-95222316D01*
X160993547Y-95222317D01*
X160833589Y-95353589D01*
X160702317Y-95513547D01*
X160604769Y-95696043D01*
X160544699Y-95894067D01*
X160524417Y-96100000D01*
X160544699Y-96305932D01*
X160544700Y-96305934D01*
X160604768Y-96503954D01*
X160702315Y-96686450D01*
X160702317Y-96686452D01*
X160833589Y-96846410D01*
X160930209Y-96925702D01*
X160993550Y-96977685D01*
X161163955Y-97068769D01*
X161213798Y-97117731D01*
X161229500Y-97178126D01*
X161229500Y-101573456D01*
X161209815Y-101640495D01*
X161193181Y-101661137D01*
X156069531Y-106784786D01*
X156069527Y-106784791D01*
X156023387Y-106864709D01*
X156023386Y-106864712D01*
X155999500Y-106953856D01*
X155999500Y-127853456D01*
X155979815Y-127920495D01*
X155963181Y-127941137D01*
X151591137Y-132313181D01*
X151529814Y-132346666D01*
X151503456Y-132349500D01*
X151478036Y-132349500D01*
X151339949Y-132390045D01*
X151218873Y-132467856D01*
X151124623Y-132576626D01*
X151124622Y-132576628D01*
X151064834Y-132707543D01*
X151044353Y-132850000D01*
X149775540Y-132850000D01*
X149881128Y-132782143D01*
X149975377Y-132673373D01*
X150035165Y-132542457D01*
X150051447Y-132429208D01*
X150080470Y-132365656D01*
X150086489Y-132359191D01*
X153980469Y-128465212D01*
X154026614Y-128385288D01*
X154028936Y-128376619D01*
X154028939Y-128376615D01*
X154028938Y-128376615D01*
X154032699Y-128362575D01*
X154050500Y-128296144D01*
X154050500Y-105796543D01*
X154070185Y-105729504D01*
X154086819Y-105708862D01*
X156362225Y-103433456D01*
X159320469Y-100475212D01*
X159366614Y-100395288D01*
X159390500Y-100306144D01*
X159390500Y-97178126D01*
X159410185Y-97111087D01*
X159456044Y-97068769D01*
X159626450Y-96977685D01*
X159786410Y-96846410D01*
X159917685Y-96686450D01*
X160015232Y-96503954D01*
X160075300Y-96305934D01*
X160095583Y-96100000D01*
X160075300Y-95894066D01*
X160015232Y-95696046D01*
X159917685Y-95513550D01*
X159865702Y-95450209D01*
X159786410Y-95353589D01*
X159626452Y-95222317D01*
X159626453Y-95222317D01*
X159626450Y-95222315D01*
X159443954Y-95124768D01*
X159245934Y-95064700D01*
X159245932Y-95064699D01*
X159245934Y-95064699D01*
X159040000Y-95044417D01*
X158834067Y-95064699D01*
X158636043Y-95124769D01*
X158525898Y-95183643D01*
X158453550Y-95222315D01*
X158453548Y-95222316D01*
X158453547Y-95222317D01*
X158293589Y-95353589D01*
X158162317Y-95513547D01*
X158083358Y-95661267D01*
X158034395Y-95711111D01*
X157966257Y-95726571D01*
X157900578Y-95702739D01*
X157858209Y-95647181D01*
X157850000Y-95602813D01*
X157850000Y-95202172D01*
X157849999Y-95202155D01*
X157843598Y-95142627D01*
X157843596Y-95142620D01*
X157793354Y-95007913D01*
X157793350Y-95007906D01*
X157707190Y-94892812D01*
X157707187Y-94892809D01*
X157592093Y-94806649D01*
X157592086Y-94806645D01*
X157457379Y-94756403D01*
X157457372Y-94756401D01*
X157397844Y-94750000D01*
X156750000Y-94750000D01*
X156750000Y-95655439D01*
X156696853Y-95624755D01*
X156567143Y-95590000D01*
X156432857Y-95590000D01*
X156303147Y-95624755D01*
X156250000Y-95655439D01*
X156250000Y-94750000D01*
X155602155Y-94750000D01*
X155542627Y-94756401D01*
X155542620Y-94756403D01*
X155407913Y-94806645D01*
X155407906Y-94806649D01*
X155292812Y-94892809D01*
X155292809Y-94892812D01*
X155206649Y-95007906D01*
X155206645Y-95007913D01*
X155156403Y-95142620D01*
X155156401Y-95142627D01*
X155150000Y-95202155D01*
X155150000Y-95602813D01*
X155130315Y-95669852D01*
X155077511Y-95715607D01*
X155008353Y-95725551D01*
X154944797Y-95696526D01*
X154916642Y-95661267D01*
X154909113Y-95647181D01*
X154837685Y-95513550D01*
X154785702Y-95450209D01*
X154706410Y-95353589D01*
X154546452Y-95222317D01*
X154546453Y-95222317D01*
X154546450Y-95222315D01*
X154363954Y-95124768D01*
X154165934Y-95064700D01*
X154165932Y-95064699D01*
X154165934Y-95064699D01*
X153960000Y-95044417D01*
X153754067Y-95064699D01*
X153556043Y-95124769D01*
X153445898Y-95183643D01*
X153373550Y-95222315D01*
X153373548Y-95222316D01*
X153373547Y-95222317D01*
X153213589Y-95353589D01*
X153082317Y-95513547D01*
X152984769Y-95696043D01*
X152924699Y-95894067D01*
X152904417Y-96100000D01*
X152924699Y-96305932D01*
X152924700Y-96305934D01*
X152984768Y-96503954D01*
X153082315Y-96686450D01*
X153082317Y-96686452D01*
X153213589Y-96846410D01*
X153310209Y-96925702D01*
X153373550Y-96977685D01*
X153543955Y-97068769D01*
X153593798Y-97117731D01*
X153609500Y-97178126D01*
X153609500Y-100193456D01*
X153589815Y-100260495D01*
X153573181Y-100281137D01*
X151519531Y-102334786D01*
X151519527Y-102334791D01*
X151473387Y-102414709D01*
X151473386Y-102414712D01*
X151449500Y-102503856D01*
X151449500Y-111103456D01*
X151429815Y-111170495D01*
X151413181Y-111191137D01*
X146819531Y-115784786D01*
X146819527Y-115784791D01*
X146773387Y-115864709D01*
X146773386Y-115864712D01*
X146749500Y-115953856D01*
X146749500Y-130796143D01*
X119000000Y-130796143D01*
X119000000Y-125142859D01*
X130002548Y-125142859D01*
X130043209Y-125425669D01*
X130043211Y-125425679D01*
X130123708Y-125699826D01*
X130242393Y-125959710D01*
X130242402Y-125959726D01*
X130396872Y-126200085D01*
X130396878Y-126200092D01*
X130583978Y-126416019D01*
X130583980Y-126416021D01*
X130799907Y-126603121D01*
X130799914Y-126603127D01*
X131040273Y-126757597D01*
X131040289Y-126757606D01*
X131300173Y-126876291D01*
X131300177Y-126876292D01*
X131300179Y-126876293D01*
X131574326Y-126956790D01*
X131857139Y-126997452D01*
X132142858Y-126997452D01*
X132142861Y-126997452D01*
X132425674Y-126956790D01*
X132699821Y-126876293D01*
X132699824Y-126876291D01*
X132699826Y-126876291D01*
X132959710Y-126757606D01*
X132959714Y-126757603D01*
X132959722Y-126757600D01*
X133200086Y-126603127D01*
X133416020Y-126416020D01*
X133603127Y-126200086D01*
X133757600Y-125959722D01*
X133757603Y-125959714D01*
X133757606Y-125959710D01*
X133876291Y-125699826D01*
X133876291Y-125699824D01*
X133876293Y-125699821D01*
X133956790Y-125425674D01*
X133997452Y-125142861D01*
X134000000Y-125000000D01*
X133997452Y-124857139D01*
X133956790Y-124574326D01*
X133876293Y-124300179D01*
X133876292Y-124300177D01*
X133876291Y-124300173D01*
X133757606Y-124040289D01*
X133757597Y-124040273D01*
X133603127Y-123799914D01*
X133603121Y-123799907D01*
X133416021Y-123583980D01*
X133416019Y-123583978D01*
X133200092Y-123396878D01*
X133200085Y-123396872D01*
X132959726Y-123242402D01*
X132959710Y-123242393D01*
X132699826Y-123123708D01*
X132425679Y-123043211D01*
X132425669Y-123043209D01*
X132285865Y-123023108D01*
X132142861Y-123002548D01*
X132142859Y-123002548D01*
X131857140Y-123002548D01*
X131857139Y-123002548D01*
X131785636Y-123012828D01*
X131574330Y-123043209D01*
X131574320Y-123043211D01*
X131300173Y-123123708D01*
X131040289Y-123242393D01*
X131040273Y-123242402D01*
X130799914Y-123396872D01*
X130799907Y-123396878D01*
X130583980Y-123583978D01*
X130583978Y-123583980D01*
X130396878Y-123799907D01*
X130396872Y-123799914D01*
X130242402Y-124040273D01*
X130242393Y-124040289D01*
X130123708Y-124300173D01*
X130043211Y-124574320D01*
X130043209Y-124574330D01*
X130002548Y-124857140D01*
X130002548Y-125142859D01*
X119000000Y-125142859D01*
X119000000Y-107142861D01*
X130002548Y-107142861D01*
X130023108Y-107285865D01*
X130043209Y-107425669D01*
X130043211Y-107425679D01*
X130123708Y-107699826D01*
X130242393Y-107959710D01*
X130242402Y-107959726D01*
X130396872Y-108200085D01*
X130396878Y-108200092D01*
X130583978Y-108416019D01*
X130583980Y-108416021D01*
X130799907Y-108603121D01*
X130799914Y-108603127D01*
X131040273Y-108757597D01*
X131040289Y-108757606D01*
X131300173Y-108876291D01*
X131300177Y-108876292D01*
X131300179Y-108876293D01*
X131574326Y-108956790D01*
X131857139Y-108997452D01*
X132142858Y-108997452D01*
X132142861Y-108997452D01*
X132425674Y-108956790D01*
X132699821Y-108876293D01*
X132699824Y-108876291D01*
X132699826Y-108876291D01*
X132959710Y-108757606D01*
X132959714Y-108757603D01*
X132959722Y-108757600D01*
X133200086Y-108603127D01*
X133416020Y-108416020D01*
X133603127Y-108200086D01*
X133757600Y-107959722D01*
X133757603Y-107959714D01*
X133757606Y-107959710D01*
X133876291Y-107699826D01*
X133876291Y-107699824D01*
X133876293Y-107699821D01*
X133956790Y-107425674D01*
X133997452Y-107142861D01*
X134000000Y-107000000D01*
X133997452Y-106857139D01*
X133956790Y-106574326D01*
X133876293Y-106300179D01*
X133876292Y-106300177D01*
X133876291Y-106300173D01*
X133757606Y-106040289D01*
X133757597Y-106040273D01*
X133603127Y-105799914D01*
X133603121Y-105799907D01*
X133416021Y-105583980D01*
X133416019Y-105583978D01*
X133200092Y-105396878D01*
X133200085Y-105396872D01*
X132959726Y-105242402D01*
X132959710Y-105242393D01*
X132699826Y-105123708D01*
X132425679Y-105043211D01*
X132425669Y-105043209D01*
X132285865Y-105023108D01*
X132142861Y-105002548D01*
X132142859Y-105002548D01*
X131857140Y-105002548D01*
X131857139Y-105002548D01*
X131785636Y-105012828D01*
X131574330Y-105043209D01*
X131574320Y-105043211D01*
X131300173Y-105123708D01*
X131040289Y-105242393D01*
X131040273Y-105242402D01*
X130799914Y-105396872D01*
X130799907Y-105396878D01*
X130583980Y-105583978D01*
X130583978Y-105583980D01*
X130396878Y-105799907D01*
X130396872Y-105799914D01*
X130242402Y-106040273D01*
X130242393Y-106040289D01*
X130123708Y-106300173D01*
X130043211Y-106574320D01*
X130043210Y-106574326D01*
X130002548Y-106857139D01*
X130002548Y-107142861D01*
X119000000Y-107142861D01*
X119000000Y-100000000D01*
X110124000Y-100000000D01*
X110056961Y-99980315D01*
X110011206Y-99927511D01*
X110000000Y-99876000D01*
X110000000Y-96100000D01*
X124964417Y-96100000D01*
X124984699Y-96305932D01*
X124984700Y-96305934D01*
X125044768Y-96503954D01*
X125142315Y-96686450D01*
X125142317Y-96686452D01*
X125273589Y-96846410D01*
X125370209Y-96925702D01*
X125433550Y-96977685D01*
X125616046Y-97075232D01*
X125814066Y-97135300D01*
X125814065Y-97135300D01*
X125832529Y-97137118D01*
X126020000Y-97155583D01*
X126225934Y-97135300D01*
X126423954Y-97075232D01*
X126606450Y-96977685D01*
X126766410Y-96846410D01*
X126897685Y-96686450D01*
X126995232Y-96503954D01*
X127055300Y-96305934D01*
X127075583Y-96100000D01*
X127504417Y-96100000D01*
X127524699Y-96305932D01*
X127524700Y-96305934D01*
X127584768Y-96503954D01*
X127682315Y-96686450D01*
X127682317Y-96686452D01*
X127813589Y-96846410D01*
X127910209Y-96925702D01*
X127973550Y-96977685D01*
X128156046Y-97075232D01*
X128354066Y-97135300D01*
X128354065Y-97135300D01*
X128372529Y-97137118D01*
X128560000Y-97155583D01*
X128765934Y-97135300D01*
X128963954Y-97075232D01*
X129146450Y-96977685D01*
X129306410Y-96846410D01*
X129437685Y-96686450D01*
X129516643Y-96538730D01*
X129565605Y-96488888D01*
X129633742Y-96473428D01*
X129699422Y-96497260D01*
X129741791Y-96552818D01*
X129750000Y-96597186D01*
X129750000Y-96997844D01*
X129756401Y-97057372D01*
X129756403Y-97057379D01*
X129806645Y-97192086D01*
X129806649Y-97192093D01*
X129892809Y-97307187D01*
X129892812Y-97307190D01*
X130007906Y-97393350D01*
X130007913Y-97393354D01*
X130142620Y-97443596D01*
X130142627Y-97443598D01*
X130202155Y-97449999D01*
X130202172Y-97450000D01*
X130850000Y-97450000D01*
X130850000Y-96544560D01*
X130903147Y-96575245D01*
X131032857Y-96610000D01*
X131167143Y-96610000D01*
X131296853Y-96575245D01*
X131350000Y-96544560D01*
X131350000Y-97450000D01*
X131997828Y-97450000D01*
X131997844Y-97449999D01*
X132057372Y-97443598D01*
X132057379Y-97443596D01*
X132192086Y-97393354D01*
X132192093Y-97393350D01*
X132307187Y-97307190D01*
X132307190Y-97307187D01*
X132393350Y-97192093D01*
X132393354Y-97192086D01*
X132443596Y-97057379D01*
X132443598Y-97057372D01*
X132449999Y-96997844D01*
X132450000Y-96997827D01*
X132450000Y-96597186D01*
X132469685Y-96530147D01*
X132522489Y-96484392D01*
X132591647Y-96474448D01*
X132655203Y-96503473D01*
X132683356Y-96538729D01*
X132762315Y-96686450D01*
X132762317Y-96686452D01*
X132893589Y-96846410D01*
X132990209Y-96925702D01*
X133053550Y-96977685D01*
X133236046Y-97075232D01*
X133434066Y-97135300D01*
X133434065Y-97135300D01*
X133452529Y-97137118D01*
X133640000Y-97155583D01*
X133845934Y-97135300D01*
X134043954Y-97075232D01*
X134226450Y-96977685D01*
X134386410Y-96846410D01*
X134517685Y-96686450D01*
X134615232Y-96503954D01*
X134675300Y-96305934D01*
X134695583Y-96100000D01*
X135124417Y-96100000D01*
X135144699Y-96305932D01*
X135144700Y-96305934D01*
X135204768Y-96503954D01*
X135302315Y-96686450D01*
X135302317Y-96686452D01*
X135433589Y-96846410D01*
X135530209Y-96925702D01*
X135593550Y-96977685D01*
X135776046Y-97075232D01*
X135974066Y-97135300D01*
X135974065Y-97135300D01*
X135992529Y-97137118D01*
X136180000Y-97155583D01*
X136385934Y-97135300D01*
X136583954Y-97075232D01*
X136766450Y-96977685D01*
X136926410Y-96846410D01*
X137057685Y-96686450D01*
X137155232Y-96503954D01*
X137215300Y-96305934D01*
X137235583Y-96100000D01*
X137664417Y-96100000D01*
X137684699Y-96305932D01*
X137684700Y-96305934D01*
X137744768Y-96503954D01*
X137842315Y-96686450D01*
X137842317Y-96686452D01*
X137973589Y-96846410D01*
X138070209Y-96925702D01*
X138133550Y-96977685D01*
X138316046Y-97075232D01*
X138514066Y-97135300D01*
X138514065Y-97135300D01*
X138532529Y-97137118D01*
X138720000Y-97155583D01*
X138925934Y-97135300D01*
X139123954Y-97075232D01*
X139306450Y-96977685D01*
X139466410Y-96846410D01*
X139597685Y-96686450D01*
X139695232Y-96503954D01*
X139755300Y-96305934D01*
X139775583Y-96100000D01*
X140204417Y-96100000D01*
X140224699Y-96305932D01*
X140224700Y-96305934D01*
X140284768Y-96503954D01*
X140382315Y-96686450D01*
X140382317Y-96686452D01*
X140513589Y-96846410D01*
X140610209Y-96925702D01*
X140673550Y-96977685D01*
X140856046Y-97075232D01*
X141054066Y-97135300D01*
X141054065Y-97135300D01*
X141072529Y-97137118D01*
X141260000Y-97155583D01*
X141465934Y-97135300D01*
X141663954Y-97075232D01*
X141846450Y-96977685D01*
X142006410Y-96846410D01*
X142137685Y-96686450D01*
X142216643Y-96538730D01*
X142265605Y-96488888D01*
X142333742Y-96473428D01*
X142399422Y-96497260D01*
X142441791Y-96552818D01*
X142450000Y-96597186D01*
X142450000Y-96997844D01*
X142456401Y-97057372D01*
X142456403Y-97057379D01*
X142506645Y-97192086D01*
X142506649Y-97192093D01*
X142592809Y-97307187D01*
X142592812Y-97307190D01*
X142707906Y-97393350D01*
X142707913Y-97393354D01*
X142842620Y-97443596D01*
X142842627Y-97443598D01*
X142902155Y-97449999D01*
X142902172Y-97450000D01*
X143550000Y-97450000D01*
X143550000Y-96544560D01*
X143603147Y-96575245D01*
X143732857Y-96610000D01*
X143867143Y-96610000D01*
X143996853Y-96575245D01*
X144050000Y-96544560D01*
X144050000Y-97450000D01*
X144697828Y-97450000D01*
X144697844Y-97449999D01*
X144757372Y-97443598D01*
X144757379Y-97443596D01*
X144892086Y-97393354D01*
X144892093Y-97393350D01*
X145007187Y-97307190D01*
X145007190Y-97307187D01*
X145093350Y-97192093D01*
X145093354Y-97192086D01*
X145143596Y-97057379D01*
X145143598Y-97057372D01*
X145149999Y-96997844D01*
X145150000Y-96997827D01*
X145150000Y-96597186D01*
X145169685Y-96530147D01*
X145222489Y-96484392D01*
X145291647Y-96474448D01*
X145355203Y-96503473D01*
X145383356Y-96538729D01*
X145462315Y-96686450D01*
X145462317Y-96686452D01*
X145593589Y-96846410D01*
X145690209Y-96925702D01*
X145753550Y-96977685D01*
X145936046Y-97075232D01*
X146134066Y-97135300D01*
X146134065Y-97135300D01*
X146152529Y-97137118D01*
X146340000Y-97155583D01*
X146545934Y-97135300D01*
X146743954Y-97075232D01*
X146926450Y-96977685D01*
X147086410Y-96846410D01*
X147217685Y-96686450D01*
X147315232Y-96503954D01*
X147375300Y-96305934D01*
X147395583Y-96100000D01*
X147824417Y-96100000D01*
X147844699Y-96305932D01*
X147844700Y-96305934D01*
X147904768Y-96503954D01*
X148002315Y-96686450D01*
X148002317Y-96686452D01*
X148133589Y-96846410D01*
X148230209Y-96925702D01*
X148293550Y-96977685D01*
X148476046Y-97075232D01*
X148674066Y-97135300D01*
X148674065Y-97135300D01*
X148692529Y-97137118D01*
X148880000Y-97155583D01*
X149085934Y-97135300D01*
X149283954Y-97075232D01*
X149466450Y-96977685D01*
X149626410Y-96846410D01*
X149757685Y-96686450D01*
X149855232Y-96503954D01*
X149915300Y-96305934D01*
X149935583Y-96100000D01*
X150364417Y-96100000D01*
X150384699Y-96305932D01*
X150384700Y-96305934D01*
X150444768Y-96503954D01*
X150542315Y-96686450D01*
X150542317Y-96686452D01*
X150673589Y-96846410D01*
X150770209Y-96925702D01*
X150833550Y-96977685D01*
X151016046Y-97075232D01*
X151214066Y-97135300D01*
X151214065Y-97135300D01*
X151232529Y-97137118D01*
X151420000Y-97155583D01*
X151625934Y-97135300D01*
X151823954Y-97075232D01*
X152006450Y-96977685D01*
X152166410Y-96846410D01*
X152297685Y-96686450D01*
X152395232Y-96503954D01*
X152455300Y-96305934D01*
X152475583Y-96100000D01*
X152455300Y-95894066D01*
X152395232Y-95696046D01*
X152297685Y-95513550D01*
X152245702Y-95450209D01*
X152166410Y-95353589D01*
X152006452Y-95222317D01*
X152006453Y-95222317D01*
X152006450Y-95222315D01*
X151823954Y-95124768D01*
X151625934Y-95064700D01*
X151625932Y-95064699D01*
X151625934Y-95064699D01*
X151420000Y-95044417D01*
X151214067Y-95064699D01*
X151016043Y-95124769D01*
X150905898Y-95183643D01*
X150833550Y-95222315D01*
X150833548Y-95222316D01*
X150833547Y-95222317D01*
X150673589Y-95353589D01*
X150542317Y-95513547D01*
X150444769Y-95696043D01*
X150384699Y-95894067D01*
X150364417Y-96100000D01*
X149935583Y-96100000D01*
X149915300Y-95894066D01*
X149855232Y-95696046D01*
X149757685Y-95513550D01*
X149705702Y-95450209D01*
X149626410Y-95353589D01*
X149466452Y-95222317D01*
X149466453Y-95222317D01*
X149466450Y-95222315D01*
X149283954Y-95124768D01*
X149085934Y-95064700D01*
X149085932Y-95064699D01*
X149085934Y-95064699D01*
X148880000Y-95044417D01*
X148674067Y-95064699D01*
X148476043Y-95124769D01*
X148365898Y-95183643D01*
X148293550Y-95222315D01*
X148293548Y-95222316D01*
X148293547Y-95222317D01*
X148133589Y-95353589D01*
X148002317Y-95513547D01*
X147904769Y-95696043D01*
X147844699Y-95894067D01*
X147824417Y-96100000D01*
X147395583Y-96100000D01*
X147375300Y-95894066D01*
X147315232Y-95696046D01*
X147217685Y-95513550D01*
X147165702Y-95450209D01*
X147086410Y-95353589D01*
X146926452Y-95222317D01*
X146926453Y-95222317D01*
X146926450Y-95222315D01*
X146743954Y-95124768D01*
X146545934Y-95064700D01*
X146545932Y-95064699D01*
X146545934Y-95064699D01*
X146340000Y-95044417D01*
X146134067Y-95064699D01*
X145936043Y-95124769D01*
X145825898Y-95183643D01*
X145753550Y-95222315D01*
X145753548Y-95222316D01*
X145753547Y-95222317D01*
X145593589Y-95353589D01*
X145462317Y-95513547D01*
X145383358Y-95661267D01*
X145334395Y-95711111D01*
X145266257Y-95726571D01*
X145200578Y-95702739D01*
X145158209Y-95647181D01*
X145150000Y-95602813D01*
X145150000Y-95202172D01*
X145149999Y-95202155D01*
X145143598Y-95142627D01*
X145143596Y-95142620D01*
X145093354Y-95007913D01*
X145093350Y-95007906D01*
X145007190Y-94892812D01*
X145007187Y-94892809D01*
X144892093Y-94806649D01*
X144892086Y-94806645D01*
X144757379Y-94756403D01*
X144757372Y-94756401D01*
X144697844Y-94750000D01*
X144050000Y-94750000D01*
X144050000Y-95655439D01*
X143996853Y-95624755D01*
X143867143Y-95590000D01*
X143732857Y-95590000D01*
X143603147Y-95624755D01*
X143550000Y-95655439D01*
X143550000Y-94750000D01*
X142902155Y-94750000D01*
X142842627Y-94756401D01*
X142842620Y-94756403D01*
X142707913Y-94806645D01*
X142707906Y-94806649D01*
X142592812Y-94892809D01*
X142592809Y-94892812D01*
X142506649Y-95007906D01*
X142506645Y-95007913D01*
X142456403Y-95142620D01*
X142456401Y-95142627D01*
X142450000Y-95202155D01*
X142450000Y-95602813D01*
X142430315Y-95669852D01*
X142377511Y-95715607D01*
X142308353Y-95725551D01*
X142244797Y-95696526D01*
X142216642Y-95661267D01*
X142209113Y-95647181D01*
X142137685Y-95513550D01*
X142085702Y-95450209D01*
X142006410Y-95353589D01*
X141846452Y-95222317D01*
X141846453Y-95222317D01*
X141846450Y-95222315D01*
X141663954Y-95124768D01*
X141465934Y-95064700D01*
X141465932Y-95064699D01*
X141465934Y-95064699D01*
X141260000Y-95044417D01*
X141054067Y-95064699D01*
X140856043Y-95124769D01*
X140745898Y-95183643D01*
X140673550Y-95222315D01*
X140673548Y-95222316D01*
X140673547Y-95222317D01*
X140513589Y-95353589D01*
X140382317Y-95513547D01*
X140284769Y-95696043D01*
X140224699Y-95894067D01*
X140204417Y-96100000D01*
X139775583Y-96100000D01*
X139755300Y-95894066D01*
X139695232Y-95696046D01*
X139597685Y-95513550D01*
X139545702Y-95450209D01*
X139466410Y-95353589D01*
X139306452Y-95222317D01*
X139306453Y-95222317D01*
X139306450Y-95222315D01*
X139123954Y-95124768D01*
X138925934Y-95064700D01*
X138925932Y-95064699D01*
X138925934Y-95064699D01*
X138720000Y-95044417D01*
X138514067Y-95064699D01*
X138316043Y-95124769D01*
X138205898Y-95183643D01*
X138133550Y-95222315D01*
X138133548Y-95222316D01*
X138133547Y-95222317D01*
X137973589Y-95353589D01*
X137842317Y-95513547D01*
X137744769Y-95696043D01*
X137684699Y-95894067D01*
X137664417Y-96100000D01*
X137235583Y-96100000D01*
X137215300Y-95894066D01*
X137155232Y-95696046D01*
X137057685Y-95513550D01*
X137005702Y-95450209D01*
X136926410Y-95353589D01*
X136766452Y-95222317D01*
X136766453Y-95222317D01*
X136766450Y-95222315D01*
X136583954Y-95124768D01*
X136385934Y-95064700D01*
X136385932Y-95064699D01*
X136385934Y-95064699D01*
X136180000Y-95044417D01*
X135974067Y-95064699D01*
X135776043Y-95124769D01*
X135665898Y-95183643D01*
X135593550Y-95222315D01*
X135593548Y-95222316D01*
X135593547Y-95222317D01*
X135433589Y-95353589D01*
X135302317Y-95513547D01*
X135204769Y-95696043D01*
X135144699Y-95894067D01*
X135124417Y-96100000D01*
X134695583Y-96100000D01*
X134675300Y-95894066D01*
X134615232Y-95696046D01*
X134517685Y-95513550D01*
X134465702Y-95450209D01*
X134386410Y-95353589D01*
X134226452Y-95222317D01*
X134226453Y-95222317D01*
X134226450Y-95222315D01*
X134043954Y-95124768D01*
X133845934Y-95064700D01*
X133845932Y-95064699D01*
X133845934Y-95064699D01*
X133640000Y-95044417D01*
X133434067Y-95064699D01*
X133236043Y-95124769D01*
X133125898Y-95183643D01*
X133053550Y-95222315D01*
X133053548Y-95222316D01*
X133053547Y-95222317D01*
X132893589Y-95353589D01*
X132762317Y-95513547D01*
X132683358Y-95661267D01*
X132634395Y-95711111D01*
X132566257Y-95726571D01*
X132500578Y-95702739D01*
X132458209Y-95647181D01*
X132450000Y-95602813D01*
X132450000Y-95202172D01*
X132449999Y-95202155D01*
X132443598Y-95142627D01*
X132443596Y-95142620D01*
X132393354Y-95007913D01*
X132393350Y-95007906D01*
X132307190Y-94892812D01*
X132307187Y-94892809D01*
X132192093Y-94806649D01*
X132192086Y-94806645D01*
X132057379Y-94756403D01*
X132057372Y-94756401D01*
X131997844Y-94750000D01*
X131350000Y-94750000D01*
X131350000Y-95655439D01*
X131296853Y-95624755D01*
X131167143Y-95590000D01*
X131032857Y-95590000D01*
X130903147Y-95624755D01*
X130850000Y-95655439D01*
X130850000Y-94750000D01*
X130202155Y-94750000D01*
X130142627Y-94756401D01*
X130142620Y-94756403D01*
X130007913Y-94806645D01*
X130007906Y-94806649D01*
X129892812Y-94892809D01*
X129892809Y-94892812D01*
X129806649Y-95007906D01*
X129806645Y-95007913D01*
X129756403Y-95142620D01*
X129756401Y-95142627D01*
X129750000Y-95202155D01*
X129750000Y-95602813D01*
X129730315Y-95669852D01*
X129677511Y-95715607D01*
X129608353Y-95725551D01*
X129544797Y-95696526D01*
X129516642Y-95661267D01*
X129509113Y-95647181D01*
X129437685Y-95513550D01*
X129385702Y-95450209D01*
X129306410Y-95353589D01*
X129146452Y-95222317D01*
X129146453Y-95222317D01*
X129146450Y-95222315D01*
X128963954Y-95124768D01*
X128765934Y-95064700D01*
X128765932Y-95064699D01*
X128765934Y-95064699D01*
X128560000Y-95044417D01*
X128354067Y-95064699D01*
X128156043Y-95124769D01*
X128045898Y-95183643D01*
X127973550Y-95222315D01*
X127973548Y-95222316D01*
X127973547Y-95222317D01*
X127813589Y-95353589D01*
X127682317Y-95513547D01*
X127584769Y-95696043D01*
X127524699Y-95894067D01*
X127504417Y-96100000D01*
X127075583Y-96100000D01*
X127055300Y-95894066D01*
X126995232Y-95696046D01*
X126897685Y-95513550D01*
X126845702Y-95450209D01*
X126766410Y-95353589D01*
X126606452Y-95222317D01*
X126606453Y-95222317D01*
X126606450Y-95222315D01*
X126423954Y-95124768D01*
X126225934Y-95064700D01*
X126225932Y-95064699D01*
X126225934Y-95064699D01*
X126020000Y-95044417D01*
X125814067Y-95064699D01*
X125616043Y-95124769D01*
X125505898Y-95183643D01*
X125433550Y-95222315D01*
X125433548Y-95222316D01*
X125433547Y-95222317D01*
X125273589Y-95353589D01*
X125142317Y-95513547D01*
X125044769Y-95696043D01*
X124984699Y-95894067D01*
X124964417Y-96100000D01*
X110000000Y-96100000D01*
X110000000Y-93150000D01*
X172494353Y-93150000D01*
X172514834Y-93292456D01*
X172546816Y-93362485D01*
X172574623Y-93423373D01*
X172668872Y-93532143D01*
X172789947Y-93609953D01*
X172789950Y-93609954D01*
X172789949Y-93609954D01*
X172897107Y-93641417D01*
X172928032Y-93650498D01*
X172928036Y-93650499D01*
X172928038Y-93650500D01*
X172928039Y-93650500D01*
X172953456Y-93650500D01*
X173020495Y-93670185D01*
X173041137Y-93686819D01*
X174202702Y-94848384D01*
X174236187Y-94909707D01*
X174231203Y-94979399D01*
X174189331Y-95035332D01*
X174127177Y-95059468D01*
X174074067Y-95064699D01*
X173876043Y-95124769D01*
X173765898Y-95183643D01*
X173693550Y-95222315D01*
X173693548Y-95222316D01*
X173693547Y-95222317D01*
X173533589Y-95353589D01*
X173402317Y-95513547D01*
X173304769Y-95696043D01*
X173244699Y-95894067D01*
X173224417Y-96100000D01*
X173244699Y-96305932D01*
X173244700Y-96305934D01*
X173304768Y-96503954D01*
X173402315Y-96686450D01*
X173402317Y-96686452D01*
X173533589Y-96846410D01*
X173630209Y-96925702D01*
X173693550Y-96977685D01*
X173876046Y-97075232D01*
X174074066Y-97135300D01*
X174074065Y-97135300D01*
X174092529Y-97137118D01*
X174280000Y-97155583D01*
X174485934Y-97135300D01*
X174683954Y-97075232D01*
X174866450Y-96977685D01*
X175026410Y-96846410D01*
X175157685Y-96686450D01*
X175255232Y-96503954D01*
X175315300Y-96305934D01*
X175335583Y-96100000D01*
X175315300Y-95894066D01*
X175255232Y-95696046D01*
X175157685Y-95513550D01*
X175105702Y-95450209D01*
X175026410Y-95353589D01*
X174924986Y-95270354D01*
X174885651Y-95212608D01*
X174883780Y-95142764D01*
X174919967Y-95082995D01*
X174982723Y-95052279D01*
X175003650Y-95050500D01*
X180366142Y-95050500D01*
X180366144Y-95050500D01*
X180455288Y-95026614D01*
X180535212Y-94980470D01*
X180535211Y-94980470D01*
X180541027Y-94977113D01*
X180603027Y-94960500D01*
X180631962Y-94960500D01*
X180631962Y-94960499D01*
X180770053Y-94919953D01*
X180891128Y-94842143D01*
X180985377Y-94733373D01*
X181045165Y-94602457D01*
X181065647Y-94460000D01*
X181045165Y-94317543D01*
X180985377Y-94186627D01*
X180891128Y-94077857D01*
X180770053Y-94000047D01*
X180770051Y-94000046D01*
X180770049Y-94000045D01*
X180770050Y-94000045D01*
X180631963Y-93959500D01*
X180631961Y-93959500D01*
X180488039Y-93959500D01*
X180488036Y-93959500D01*
X180349949Y-94000045D01*
X180228873Y-94077856D01*
X180134623Y-94186626D01*
X180134622Y-94186628D01*
X180093345Y-94277012D01*
X180047590Y-94329816D01*
X179980551Y-94349500D01*
X174746544Y-94349500D01*
X174679505Y-94329815D01*
X174658863Y-94313181D01*
X173568157Y-93222475D01*
X176049500Y-93222475D01*
X176068252Y-93292456D01*
X176087017Y-93362488D01*
X176159488Y-93488011D01*
X176159490Y-93488013D01*
X176159491Y-93488015D01*
X176261985Y-93590509D01*
X176261986Y-93590510D01*
X176261988Y-93590511D01*
X176387511Y-93662982D01*
X176387512Y-93662982D01*
X176387515Y-93662984D01*
X176527525Y-93700500D01*
X176527528Y-93700500D01*
X177072472Y-93700500D01*
X177072474Y-93700500D01*
X177072475Y-93700500D01*
X177212485Y-93662984D01*
X177234108Y-93650500D01*
X177338015Y-93590510D01*
X177840510Y-93088015D01*
X177912984Y-92962485D01*
X177926603Y-92911658D01*
X177950500Y-92822475D01*
X177950500Y-88129387D01*
X177970185Y-88062348D01*
X177986819Y-88041706D01*
X178640510Y-87388015D01*
X180440510Y-85588015D01*
X180512984Y-85462485D01*
X180521554Y-85430500D01*
X180550500Y-85322475D01*
X180550500Y-80400000D01*
X182154785Y-80400000D01*
X182173602Y-80603082D01*
X182229417Y-80799247D01*
X182229422Y-80799260D01*
X182320327Y-80981821D01*
X182443237Y-81144581D01*
X182582638Y-81271660D01*
X182593783Y-81281821D01*
X182593958Y-81281980D01*
X182593960Y-81281982D01*
X182654955Y-81319748D01*
X182767363Y-81389348D01*
X182957544Y-81463024D01*
X183158024Y-81500500D01*
X183158026Y-81500500D01*
X183361974Y-81500500D01*
X183361976Y-81500500D01*
X183562456Y-81463024D01*
X183752637Y-81389348D01*
X183865039Y-81319752D01*
X184699500Y-81319752D01*
X184711131Y-81378229D01*
X184711132Y-81378230D01*
X184755447Y-81444552D01*
X184821769Y-81488867D01*
X184821770Y-81488868D01*
X184880247Y-81500499D01*
X184880250Y-81500500D01*
X184880252Y-81500500D01*
X186719750Y-81500500D01*
X186719751Y-81500499D01*
X186734568Y-81497552D01*
X186778229Y-81488868D01*
X186778229Y-81488867D01*
X186778231Y-81488867D01*
X186844552Y-81444552D01*
X186888867Y-81378231D01*
X186888867Y-81378229D01*
X186888868Y-81378229D01*
X186900499Y-81319752D01*
X186900500Y-81319750D01*
X186900500Y-79480249D01*
X186900499Y-79480247D01*
X186888868Y-79421770D01*
X186888867Y-79421769D01*
X186844552Y-79355447D01*
X186778230Y-79311132D01*
X186778229Y-79311131D01*
X186719752Y-79299500D01*
X186719748Y-79299500D01*
X184880252Y-79299500D01*
X184880247Y-79299500D01*
X184821770Y-79311131D01*
X184821769Y-79311132D01*
X184755447Y-79355447D01*
X184711132Y-79421769D01*
X184711131Y-79421770D01*
X184699500Y-79480247D01*
X184699500Y-81319752D01*
X183865039Y-81319752D01*
X183926041Y-81281981D01*
X184076764Y-81144579D01*
X184199673Y-80981821D01*
X184290582Y-80799250D01*
X184346397Y-80603083D01*
X184365215Y-80400000D01*
X184360731Y-80351614D01*
X184346397Y-80196917D01*
X184323994Y-80118179D01*
X184290582Y-80000750D01*
X184285067Y-79989675D01*
X184234637Y-79888397D01*
X184199673Y-79818179D01*
X184118475Y-79710655D01*
X184076762Y-79655418D01*
X183926041Y-79518019D01*
X183926039Y-79518017D01*
X183752642Y-79410655D01*
X183752635Y-79410651D01*
X183618966Y-79358868D01*
X183562456Y-79336976D01*
X183361976Y-79299500D01*
X183158024Y-79299500D01*
X182957544Y-79336976D01*
X182957541Y-79336976D01*
X182957541Y-79336977D01*
X182767364Y-79410651D01*
X182767357Y-79410655D01*
X182593960Y-79518017D01*
X182593958Y-79518019D01*
X182443237Y-79655418D01*
X182320327Y-79818178D01*
X182229422Y-80000739D01*
X182229417Y-80000752D01*
X182173603Y-80196917D01*
X182173602Y-80196917D01*
X182154785Y-80399999D01*
X182154785Y-80400000D01*
X180550500Y-80400000D01*
X180550500Y-79424500D01*
X180570185Y-79357461D01*
X180622989Y-79311706D01*
X180674500Y-79300500D01*
X180919750Y-79300500D01*
X180919751Y-79300499D01*
X180934568Y-79297552D01*
X180978229Y-79288868D01*
X180978229Y-79288867D01*
X180978231Y-79288867D01*
X181044552Y-79244552D01*
X181088867Y-79178231D01*
X181088867Y-79178229D01*
X181088868Y-79178229D01*
X181100499Y-79119752D01*
X181100500Y-79119750D01*
X181100500Y-77280249D01*
X181100499Y-77280247D01*
X181088868Y-77221770D01*
X181088867Y-77221769D01*
X181044552Y-77155447D01*
X180978230Y-77111132D01*
X180978229Y-77111131D01*
X180919752Y-77099500D01*
X180919748Y-77099500D01*
X179080252Y-77099500D01*
X179080247Y-77099500D01*
X179021770Y-77111131D01*
X179021769Y-77111132D01*
X178955447Y-77155447D01*
X178911132Y-77221769D01*
X178911131Y-77221770D01*
X178899500Y-77280247D01*
X178899500Y-79119752D01*
X178911131Y-79178229D01*
X178911132Y-79178230D01*
X178955447Y-79244552D01*
X179021769Y-79288867D01*
X179021770Y-79288868D01*
X179080247Y-79300499D01*
X179080250Y-79300500D01*
X179080252Y-79300500D01*
X179325500Y-79300500D01*
X179392539Y-79320185D01*
X179438294Y-79372989D01*
X179449500Y-79424500D01*
X179449500Y-84970613D01*
X179429815Y-85037652D01*
X179413181Y-85058294D01*
X176959491Y-87511983D01*
X176959489Y-87511986D01*
X176887016Y-87637514D01*
X176887016Y-87637515D01*
X176849500Y-87777525D01*
X176849500Y-87777527D01*
X176849500Y-92470613D01*
X176829815Y-92537652D01*
X176813181Y-92558294D01*
X176808294Y-92563181D01*
X176746971Y-92596666D01*
X176720613Y-92599500D01*
X176527525Y-92599500D01*
X176398993Y-92633940D01*
X176387511Y-92637017D01*
X176261988Y-92709488D01*
X176261982Y-92709493D01*
X176159493Y-92811982D01*
X176159488Y-92811988D01*
X176087017Y-92937511D01*
X176087016Y-92937515D01*
X176049500Y-93077525D01*
X176049500Y-93222475D01*
X173568157Y-93222475D01*
X173536503Y-93190821D01*
X173503018Y-93129498D01*
X173501449Y-93120805D01*
X173485165Y-93007543D01*
X173425377Y-92876627D01*
X173331128Y-92767857D01*
X173210053Y-92690047D01*
X173210051Y-92690046D01*
X173210049Y-92690045D01*
X173210050Y-92690045D01*
X173071963Y-92649500D01*
X173071961Y-92649500D01*
X172928039Y-92649500D01*
X172928036Y-92649500D01*
X172789949Y-92690045D01*
X172668873Y-92767856D01*
X172574623Y-92876626D01*
X172574622Y-92876628D01*
X172514834Y-93007543D01*
X172494353Y-93150000D01*
X110000000Y-93150000D01*
X110000000Y-91450000D01*
X140344353Y-91450000D01*
X140364834Y-91592456D01*
X140424622Y-91723371D01*
X140424623Y-91723373D01*
X140518872Y-91832143D01*
X140639947Y-91909953D01*
X140639950Y-91909954D01*
X140639949Y-91909954D01*
X140778036Y-91950499D01*
X140778038Y-91950500D01*
X140778039Y-91950500D01*
X140921962Y-91950500D01*
X140921962Y-91950499D01*
X141060053Y-91909953D01*
X141181128Y-91832143D01*
X141275377Y-91723373D01*
X141335165Y-91592457D01*
X141355647Y-91450000D01*
X141355647Y-91449999D01*
X141355647Y-91441396D01*
X141375332Y-91374357D01*
X141391966Y-91353715D01*
X142158862Y-90586819D01*
X142220185Y-90553334D01*
X142246543Y-90550500D01*
X142271962Y-90550500D01*
X142271962Y-90550499D01*
X142410053Y-90509953D01*
X142531128Y-90432143D01*
X142625377Y-90323373D01*
X142685165Y-90192457D01*
X142705647Y-90050000D01*
X142685165Y-89907543D01*
X142625377Y-89776627D01*
X142602305Y-89750000D01*
X172994417Y-89750000D01*
X173014699Y-89955932D01*
X173014700Y-89955934D01*
X173074768Y-90153954D01*
X173172315Y-90336450D01*
X173172317Y-90336452D01*
X173303589Y-90496410D01*
X173400209Y-90575702D01*
X173463550Y-90627685D01*
X173646046Y-90725232D01*
X173844066Y-90785300D01*
X173844065Y-90785300D01*
X173862529Y-90787118D01*
X174050000Y-90805583D01*
X174255934Y-90785300D01*
X174453954Y-90725232D01*
X174636450Y-90627685D01*
X174796410Y-90496410D01*
X174927685Y-90336450D01*
X175025232Y-90153954D01*
X175085300Y-89955934D01*
X175105583Y-89750000D01*
X175085300Y-89544066D01*
X175025232Y-89346046D01*
X174927685Y-89163550D01*
X174840609Y-89057447D01*
X174796410Y-89003589D01*
X174636452Y-88872317D01*
X174636453Y-88872317D01*
X174636450Y-88872315D01*
X174453954Y-88774768D01*
X174255934Y-88714700D01*
X174255932Y-88714699D01*
X174255934Y-88714699D01*
X174050000Y-88694417D01*
X173844067Y-88714699D01*
X173646043Y-88774769D01*
X173535898Y-88833643D01*
X173463550Y-88872315D01*
X173463548Y-88872316D01*
X173463547Y-88872317D01*
X173303589Y-89003589D01*
X173174337Y-89161086D01*
X173172315Y-89163550D01*
X173160580Y-89185505D01*
X173074769Y-89346043D01*
X173014699Y-89544067D01*
X172994417Y-89750000D01*
X142602305Y-89750000D01*
X142531128Y-89667857D01*
X142410053Y-89590047D01*
X142410051Y-89590046D01*
X142410049Y-89590045D01*
X142410050Y-89590045D01*
X142271963Y-89549500D01*
X142271961Y-89549500D01*
X142128039Y-89549500D01*
X142128036Y-89549500D01*
X141989949Y-89590045D01*
X141868873Y-89667856D01*
X141774623Y-89776626D01*
X141774622Y-89776628D01*
X141714834Y-89907543D01*
X141698552Y-90020789D01*
X141669526Y-90084344D01*
X141663495Y-90090822D01*
X140838329Y-90915988D01*
X140785583Y-90947284D01*
X140639948Y-90990045D01*
X140518873Y-91067856D01*
X140424623Y-91176626D01*
X140424622Y-91176628D01*
X140364834Y-91307543D01*
X140344353Y-91450000D01*
X110000000Y-91450000D01*
X110000000Y-90025551D01*
X124999500Y-90025551D01*
X125027829Y-90204410D01*
X125083787Y-90376636D01*
X125083788Y-90376639D01*
X125139664Y-90486300D01*
X125151716Y-90509953D01*
X125166006Y-90537997D01*
X125272441Y-90684494D01*
X125272445Y-90684499D01*
X125400500Y-90812554D01*
X125400505Y-90812558D01*
X125528287Y-90905396D01*
X125547006Y-90918996D01*
X125652484Y-90972740D01*
X125708360Y-91001211D01*
X125708363Y-91001212D01*
X125794476Y-91029191D01*
X125880591Y-91057171D01*
X125963429Y-91070291D01*
X126059449Y-91085500D01*
X126059454Y-91085500D01*
X126240551Y-91085500D01*
X126327259Y-91071765D01*
X126419409Y-91057171D01*
X126591639Y-91001211D01*
X126752994Y-90918996D01*
X126899501Y-90812553D01*
X127027553Y-90684501D01*
X127133996Y-90537994D01*
X127216211Y-90376639D01*
X127272171Y-90204409D01*
X127287297Y-90108907D01*
X127300500Y-90025551D01*
X127300500Y-89844448D01*
X127282933Y-89733543D01*
X128179499Y-89733543D01*
X128217947Y-89926829D01*
X128217950Y-89926839D01*
X128293364Y-90108907D01*
X128293371Y-90108920D01*
X128402860Y-90272781D01*
X128402863Y-90272785D01*
X128542214Y-90412136D01*
X128542218Y-90412139D01*
X128706079Y-90521628D01*
X128706092Y-90521635D01*
X128888160Y-90597049D01*
X128888165Y-90597051D01*
X128888169Y-90597051D01*
X128888170Y-90597052D01*
X129081456Y-90635500D01*
X129081459Y-90635500D01*
X129278543Y-90635500D01*
X129408582Y-90609632D01*
X129471835Y-90597051D01*
X129653914Y-90521632D01*
X129817782Y-90412139D01*
X129957139Y-90272782D01*
X130066632Y-90108914D01*
X130142051Y-89926835D01*
X130158439Y-89844448D01*
X130180500Y-89733543D01*
X130180500Y-89536456D01*
X130142052Y-89343170D01*
X130142051Y-89343169D01*
X130142051Y-89343165D01*
X130076745Y-89185500D01*
X130066635Y-89161092D01*
X130066628Y-89161079D01*
X129957139Y-88997218D01*
X129957136Y-88997214D01*
X129817785Y-88857863D01*
X129817781Y-88857860D01*
X129653920Y-88748371D01*
X129653907Y-88748364D01*
X129471839Y-88672950D01*
X129471829Y-88672947D01*
X129278543Y-88634500D01*
X129278541Y-88634500D01*
X129081459Y-88634500D01*
X129081457Y-88634500D01*
X128888170Y-88672947D01*
X128888160Y-88672950D01*
X128706092Y-88748364D01*
X128706079Y-88748371D01*
X128542218Y-88857860D01*
X128542214Y-88857863D01*
X128402863Y-88997214D01*
X128402860Y-88997218D01*
X128293371Y-89161079D01*
X128293364Y-89161092D01*
X128217950Y-89343160D01*
X128217947Y-89343170D01*
X128179500Y-89536456D01*
X128179500Y-89536459D01*
X128179500Y-89733541D01*
X128179500Y-89733543D01*
X128179499Y-89733543D01*
X127282933Y-89733543D01*
X127282933Y-89733541D01*
X127272171Y-89665591D01*
X127216211Y-89493361D01*
X127216211Y-89493360D01*
X127187740Y-89437484D01*
X127133996Y-89332006D01*
X127120396Y-89313287D01*
X127027558Y-89185505D01*
X127027554Y-89185500D01*
X126899499Y-89057445D01*
X126899494Y-89057441D01*
X126752997Y-88951006D01*
X126752996Y-88951005D01*
X126752994Y-88951004D01*
X126701300Y-88924664D01*
X126591639Y-88868788D01*
X126591636Y-88868787D01*
X126419410Y-88812829D01*
X126240551Y-88784500D01*
X126240546Y-88784500D01*
X126059454Y-88784500D01*
X126059449Y-88784500D01*
X125880589Y-88812829D01*
X125708363Y-88868787D01*
X125708360Y-88868788D01*
X125547002Y-88951006D01*
X125400505Y-89057441D01*
X125400500Y-89057445D01*
X125272445Y-89185500D01*
X125272441Y-89185505D01*
X125166006Y-89332002D01*
X125083788Y-89493360D01*
X125083787Y-89493363D01*
X125027829Y-89665589D01*
X124999500Y-89844448D01*
X124999500Y-90025551D01*
X110000000Y-90025551D01*
X110000000Y-88079752D01*
X172999500Y-88079752D01*
X173011131Y-88138229D01*
X173011132Y-88138230D01*
X173055447Y-88204552D01*
X173121769Y-88248867D01*
X173121770Y-88248868D01*
X173180247Y-88260499D01*
X173180250Y-88260500D01*
X173180252Y-88260500D01*
X174919750Y-88260500D01*
X174919751Y-88260499D01*
X174934568Y-88257552D01*
X174978229Y-88248868D01*
X174978229Y-88248867D01*
X174978231Y-88248867D01*
X175044552Y-88204552D01*
X175088867Y-88138231D01*
X175088867Y-88138229D01*
X175088868Y-88138229D01*
X175100499Y-88079752D01*
X175100500Y-88079750D01*
X175100500Y-86340249D01*
X175100499Y-86340247D01*
X175088868Y-86281770D01*
X175088867Y-86281769D01*
X175044552Y-86215447D01*
X174978230Y-86171132D01*
X174978229Y-86171131D01*
X174919752Y-86159500D01*
X174919748Y-86159500D01*
X173180252Y-86159500D01*
X173180247Y-86159500D01*
X173121770Y-86171131D01*
X173121769Y-86171132D01*
X173055447Y-86215447D01*
X173011132Y-86281769D01*
X173011131Y-86281770D01*
X172999500Y-86340247D01*
X172999500Y-88079752D01*
X110000000Y-88079752D01*
X110000000Y-85010710D01*
X110001837Y-84989446D01*
X110005115Y-84970613D01*
X110110010Y-84367994D01*
X110110628Y-84364713D01*
X110365555Y-83107605D01*
X110366381Y-83103835D01*
X110660962Y-81855618D01*
X110661904Y-81851895D01*
X110724517Y-81619752D01*
X113124500Y-81619752D01*
X113136131Y-81678229D01*
X113136132Y-81678230D01*
X113180447Y-81744552D01*
X113246769Y-81788867D01*
X113246770Y-81788868D01*
X113305247Y-81800499D01*
X113305250Y-81800500D01*
X113305252Y-81800500D01*
X115144750Y-81800500D01*
X115144751Y-81800499D01*
X115159568Y-81797552D01*
X115203229Y-81788868D01*
X115203229Y-81788867D01*
X115203231Y-81788867D01*
X115269552Y-81744552D01*
X115313867Y-81678231D01*
X115313867Y-81678229D01*
X115313868Y-81678229D01*
X115325499Y-81619752D01*
X115325500Y-81619750D01*
X115325500Y-80700000D01*
X115659785Y-80700000D01*
X115678602Y-80903082D01*
X115734417Y-81099247D01*
X115734422Y-81099260D01*
X115825327Y-81281821D01*
X115948237Y-81444581D01*
X116098958Y-81581980D01*
X116098960Y-81581982D01*
X116159955Y-81619748D01*
X116272363Y-81689348D01*
X116462544Y-81763024D01*
X116663024Y-81800500D01*
X116663026Y-81800500D01*
X116866974Y-81800500D01*
X116866976Y-81800500D01*
X117067456Y-81763024D01*
X117257637Y-81689348D01*
X117431041Y-81581981D01*
X117581764Y-81444579D01*
X117704673Y-81281821D01*
X117795582Y-81099250D01*
X117851397Y-80903083D01*
X117870215Y-80700000D01*
X117851397Y-80496917D01*
X117795582Y-80300750D01*
X117769757Y-80248887D01*
X117743880Y-80196917D01*
X117704673Y-80118179D01*
X117625916Y-80013888D01*
X117581762Y-79955418D01*
X117431041Y-79818019D01*
X117431039Y-79818017D01*
X117257642Y-79710655D01*
X117257635Y-79710651D01*
X117136176Y-79663598D01*
X117067456Y-79636976D01*
X116866976Y-79599500D01*
X116663024Y-79599500D01*
X116462544Y-79636976D01*
X116462541Y-79636976D01*
X116462541Y-79636977D01*
X116272364Y-79710651D01*
X116272357Y-79710655D01*
X116098960Y-79818017D01*
X116098958Y-79818019D01*
X115948237Y-79955418D01*
X115825327Y-80118178D01*
X115734422Y-80300739D01*
X115734417Y-80300752D01*
X115678602Y-80496917D01*
X115659785Y-80699999D01*
X115659785Y-80700000D01*
X115325500Y-80700000D01*
X115325500Y-79780249D01*
X115325499Y-79780247D01*
X115313868Y-79721770D01*
X115313867Y-79721769D01*
X115269552Y-79655447D01*
X115203230Y-79611132D01*
X115203229Y-79611131D01*
X115144752Y-79599500D01*
X115144748Y-79599500D01*
X113305252Y-79599500D01*
X113305247Y-79599500D01*
X113246770Y-79611131D01*
X113246769Y-79611132D01*
X113180447Y-79655447D01*
X113136132Y-79721769D01*
X113136131Y-79721770D01*
X113124500Y-79780247D01*
X113124500Y-81619752D01*
X110724517Y-81619752D01*
X110995872Y-80613672D01*
X110996948Y-80609922D01*
X110999028Y-80603082D01*
X111369957Y-79382958D01*
X111371152Y-79379242D01*
X111459112Y-79119752D01*
X118924500Y-79119752D01*
X118936131Y-79178229D01*
X118936132Y-79178230D01*
X118980447Y-79244552D01*
X119046769Y-79288867D01*
X119046770Y-79288868D01*
X119105247Y-79300499D01*
X119105250Y-79300500D01*
X119105252Y-79300500D01*
X119450500Y-79300500D01*
X119517539Y-79320185D01*
X119563294Y-79372989D01*
X119574500Y-79424500D01*
X119574500Y-80134309D01*
X119591276Y-80196917D01*
X119605201Y-80248887D01*
X119664511Y-80351614D01*
X120123386Y-80810489D01*
X120226113Y-80869799D01*
X120250321Y-80876284D01*
X120250324Y-80876286D01*
X120250325Y-80876286D01*
X120280447Y-80884357D01*
X120340691Y-80900500D01*
X122112035Y-80900500D01*
X122179074Y-80920185D01*
X122199716Y-80936819D01*
X124323387Y-83060490D01*
X124323388Y-83060491D01*
X124323390Y-83060492D01*
X124409989Y-83110490D01*
X124423464Y-83118269D01*
X124426114Y-83119799D01*
X124540691Y-83150500D01*
X124909461Y-83150500D01*
X124971456Y-83167110D01*
X124976113Y-83169799D01*
X125000321Y-83176284D01*
X125000324Y-83176286D01*
X125000325Y-83176286D01*
X125030447Y-83184357D01*
X125090691Y-83200500D01*
X125090693Y-83200500D01*
X125620280Y-83200500D01*
X125687319Y-83220185D01*
X125733074Y-83272989D01*
X125743018Y-83342147D01*
X125713993Y-83405703D01*
X125676575Y-83434985D01*
X125547002Y-83501006D01*
X125400505Y-83607441D01*
X125400500Y-83607445D01*
X125272445Y-83735500D01*
X125272441Y-83735505D01*
X125166006Y-83882002D01*
X125083788Y-84043360D01*
X125083787Y-84043363D01*
X125027829Y-84215589D01*
X124999500Y-84394448D01*
X124999500Y-84575551D01*
X125027829Y-84754410D01*
X125083787Y-84926636D01*
X125083788Y-84926639D01*
X125132365Y-85021975D01*
X125160320Y-85076839D01*
X125166006Y-85087997D01*
X125272441Y-85234494D01*
X125272445Y-85234499D01*
X125400500Y-85362554D01*
X125400505Y-85362558D01*
X125494026Y-85430504D01*
X125547006Y-85468996D01*
X125652484Y-85522740D01*
X125708360Y-85551211D01*
X125708363Y-85551212D01*
X125741985Y-85562136D01*
X125880591Y-85607171D01*
X125963429Y-85620291D01*
X126059449Y-85635500D01*
X126059454Y-85635500D01*
X126240551Y-85635500D01*
X126327259Y-85621765D01*
X126419409Y-85607171D01*
X126591639Y-85551211D01*
X126752994Y-85468996D01*
X126899501Y-85362553D01*
X127027553Y-85234501D01*
X127133996Y-85087994D01*
X127216211Y-84926639D01*
X127230214Y-84883543D01*
X128179499Y-84883543D01*
X128217947Y-85076829D01*
X128217950Y-85076839D01*
X128293364Y-85258907D01*
X128293371Y-85258920D01*
X128402860Y-85422781D01*
X128402863Y-85422785D01*
X128542214Y-85562136D01*
X128542218Y-85562139D01*
X128706079Y-85671628D01*
X128706092Y-85671635D01*
X128836336Y-85725583D01*
X128888165Y-85747051D01*
X128888169Y-85747051D01*
X128888170Y-85747052D01*
X129081456Y-85785500D01*
X129081459Y-85785500D01*
X129278543Y-85785500D01*
X129408582Y-85759632D01*
X129471835Y-85747051D01*
X129653914Y-85671632D01*
X129817782Y-85562139D01*
X129957139Y-85422782D01*
X130066632Y-85258914D01*
X130142051Y-85076835D01*
X130180500Y-84883541D01*
X130180500Y-84686459D01*
X130180500Y-84686456D01*
X130177227Y-84670000D01*
X172994417Y-84670000D01*
X173014699Y-84875932D01*
X173017008Y-84883543D01*
X173074768Y-85073954D01*
X173172315Y-85256450D01*
X173174337Y-85258914D01*
X173303589Y-85416410D01*
X173400209Y-85495702D01*
X173463550Y-85547685D01*
X173646046Y-85645232D01*
X173844066Y-85705300D01*
X173844065Y-85705300D01*
X173862529Y-85707118D01*
X174050000Y-85725583D01*
X174255934Y-85705300D01*
X174453954Y-85645232D01*
X174636450Y-85547685D01*
X174796410Y-85416410D01*
X174927685Y-85256450D01*
X175025232Y-85073954D01*
X175085300Y-84875934D01*
X175105583Y-84670000D01*
X175085300Y-84464066D01*
X175025232Y-84266046D01*
X174927685Y-84083550D01*
X174865568Y-84007860D01*
X174796410Y-83923589D01*
X174636452Y-83792317D01*
X174636453Y-83792317D01*
X174636450Y-83792315D01*
X174453954Y-83694768D01*
X174255934Y-83634700D01*
X174255932Y-83634699D01*
X174255934Y-83634699D01*
X174050000Y-83614417D01*
X173844067Y-83634699D01*
X173646043Y-83694769D01*
X173569844Y-83735499D01*
X173463550Y-83792315D01*
X173463548Y-83792316D01*
X173463547Y-83792317D01*
X173303589Y-83923589D01*
X173172317Y-84083547D01*
X173074769Y-84266043D01*
X173014699Y-84464067D01*
X172994417Y-84670000D01*
X130177227Y-84670000D01*
X130142052Y-84493170D01*
X130142051Y-84493169D01*
X130142051Y-84493165D01*
X130101164Y-84394454D01*
X130066635Y-84311092D01*
X130066628Y-84311079D01*
X129957139Y-84147218D01*
X129957136Y-84147214D01*
X129817785Y-84007863D01*
X129817781Y-84007860D01*
X129653920Y-83898371D01*
X129653907Y-83898364D01*
X129471839Y-83822950D01*
X129471829Y-83822947D01*
X129278543Y-83784500D01*
X129278541Y-83784500D01*
X129081459Y-83784500D01*
X129081457Y-83784500D01*
X128888170Y-83822947D01*
X128888160Y-83822950D01*
X128706092Y-83898364D01*
X128706079Y-83898371D01*
X128542218Y-84007860D01*
X128542214Y-84007863D01*
X128402863Y-84147214D01*
X128402860Y-84147218D01*
X128293371Y-84311079D01*
X128293364Y-84311092D01*
X128217950Y-84493160D01*
X128217947Y-84493170D01*
X128179500Y-84686456D01*
X128179500Y-84686459D01*
X128179500Y-84883541D01*
X128179500Y-84883543D01*
X128179499Y-84883543D01*
X127230214Y-84883543D01*
X127272171Y-84754409D01*
X127286765Y-84662259D01*
X127300500Y-84575551D01*
X127300500Y-84394448D01*
X127280162Y-84266043D01*
X127272171Y-84215591D01*
X127216211Y-84043361D01*
X127216211Y-84043360D01*
X127155184Y-83923590D01*
X127133996Y-83882006D01*
X127091089Y-83822949D01*
X127027558Y-83735505D01*
X127027554Y-83735500D01*
X126899499Y-83607445D01*
X126899494Y-83607441D01*
X126752997Y-83501006D01*
X126752996Y-83501005D01*
X126752994Y-83501004D01*
X126623424Y-83434984D01*
X126572629Y-83387010D01*
X126555834Y-83319189D01*
X126578372Y-83253054D01*
X126633087Y-83209603D01*
X126679720Y-83200500D01*
X134109308Y-83200500D01*
X134109309Y-83200500D01*
X134199673Y-83176286D01*
X134223887Y-83169799D01*
X134326614Y-83110489D01*
X134441093Y-82996008D01*
X134493840Y-82964713D01*
X134510053Y-82959953D01*
X134631128Y-82882143D01*
X134725377Y-82773373D01*
X134785165Y-82642457D01*
X134805647Y-82500000D01*
X134785165Y-82357543D01*
X134725377Y-82226627D01*
X134631128Y-82117857D01*
X134510053Y-82040047D01*
X134510051Y-82040046D01*
X134510049Y-82040045D01*
X134510050Y-82040045D01*
X134371963Y-81999500D01*
X134371961Y-81999500D01*
X134228039Y-81999500D01*
X134228036Y-81999500D01*
X134089949Y-82040045D01*
X133968873Y-82117856D01*
X133874623Y-82226626D01*
X133874447Y-82227013D01*
X133874168Y-82227334D01*
X133869829Y-82234087D01*
X133868857Y-82233462D01*
X133828691Y-82279816D01*
X133761653Y-82299500D01*
X125340539Y-82299500D01*
X125278538Y-82282886D01*
X125273891Y-82280203D01*
X125273888Y-82280201D01*
X125261780Y-82276957D01*
X125249673Y-82273713D01*
X125249670Y-82273712D01*
X125211478Y-82263478D01*
X125159309Y-82249500D01*
X125159308Y-82249500D01*
X124837965Y-82249500D01*
X124770926Y-82229815D01*
X124750284Y-82213181D01*
X122626616Y-80089513D01*
X122626614Y-80089511D01*
X122575250Y-80059856D01*
X122523888Y-80030201D01*
X122511780Y-80026957D01*
X122499673Y-80023713D01*
X122499670Y-80023712D01*
X122461478Y-80013478D01*
X122409309Y-79999500D01*
X122409308Y-79999500D01*
X120637965Y-79999500D01*
X120570926Y-79979815D01*
X120550284Y-79963181D01*
X120511819Y-79924716D01*
X120478334Y-79863393D01*
X120475500Y-79837035D01*
X120475500Y-79424500D01*
X120495185Y-79357461D01*
X120547989Y-79311706D01*
X120599500Y-79300500D01*
X120944750Y-79300500D01*
X120944751Y-79300499D01*
X120959568Y-79297552D01*
X121003229Y-79288868D01*
X121003229Y-79288867D01*
X121003231Y-79288867D01*
X121069552Y-79244552D01*
X121113867Y-79178231D01*
X121113867Y-79178229D01*
X121113868Y-79178229D01*
X121125499Y-79119752D01*
X121125500Y-79119750D01*
X121125500Y-78200000D01*
X121459785Y-78200000D01*
X121478602Y-78403082D01*
X121534417Y-78599247D01*
X121534422Y-78599260D01*
X121625327Y-78781821D01*
X121748237Y-78944581D01*
X121898958Y-79081980D01*
X121898960Y-79081982D01*
X121959955Y-79119748D01*
X122072363Y-79189348D01*
X122262544Y-79263024D01*
X122463024Y-79300500D01*
X122463026Y-79300500D01*
X122666974Y-79300500D01*
X122666976Y-79300500D01*
X122867456Y-79263024D01*
X122881101Y-79257737D01*
X122950720Y-79251872D01*
X123012462Y-79284579D01*
X123013578Y-79285681D01*
X125088386Y-81360489D01*
X125191113Y-81419799D01*
X125215321Y-81426284D01*
X125215324Y-81426286D01*
X125215325Y-81426286D01*
X125245447Y-81434357D01*
X125305691Y-81450500D01*
X125305693Y-81450500D01*
X152859308Y-81450500D01*
X152859309Y-81450500D01*
X152949673Y-81426286D01*
X152973887Y-81419799D01*
X153076614Y-81360489D01*
X154320490Y-80116614D01*
X154379799Y-80013887D01*
X154386285Y-79989675D01*
X154386286Y-79989675D01*
X154386286Y-79989671D01*
X154410500Y-79899309D01*
X154410500Y-79344674D01*
X154430185Y-79277635D01*
X154476046Y-79235316D01*
X154546450Y-79197685D01*
X154706410Y-79066410D01*
X154837685Y-78906450D01*
X154916643Y-78758730D01*
X154965605Y-78708888D01*
X155033742Y-78693428D01*
X155099422Y-78717260D01*
X155141791Y-78772818D01*
X155150000Y-78817186D01*
X155150000Y-79217844D01*
X155156401Y-79277372D01*
X155156403Y-79277379D01*
X155206645Y-79412086D01*
X155206649Y-79412093D01*
X155292809Y-79527187D01*
X155292812Y-79527190D01*
X155407906Y-79613350D01*
X155407913Y-79613354D01*
X155542620Y-79663596D01*
X155542627Y-79663598D01*
X155602155Y-79669999D01*
X155602172Y-79670000D01*
X156250000Y-79670000D01*
X156250000Y-78764560D01*
X156303147Y-78795245D01*
X156432857Y-78830000D01*
X156567143Y-78830000D01*
X156696853Y-78795245D01*
X156750000Y-78764560D01*
X156750000Y-79670000D01*
X157397828Y-79670000D01*
X157397844Y-79669999D01*
X157457372Y-79663598D01*
X157457379Y-79663596D01*
X157592086Y-79613354D01*
X157592093Y-79613350D01*
X157707187Y-79527190D01*
X157707190Y-79527187D01*
X157793350Y-79412093D01*
X157793354Y-79412086D01*
X157843596Y-79277379D01*
X157843598Y-79277372D01*
X157849999Y-79217844D01*
X157850000Y-79217827D01*
X157850000Y-78817186D01*
X157869685Y-78750147D01*
X157922489Y-78704392D01*
X157991647Y-78694448D01*
X158055203Y-78723473D01*
X158083356Y-78758729D01*
X158162315Y-78906450D01*
X158193608Y-78944581D01*
X158293589Y-79066410D01*
X158390209Y-79145702D01*
X158453550Y-79197685D01*
X158636046Y-79295232D01*
X158834066Y-79355300D01*
X158834065Y-79355300D01*
X158852529Y-79357118D01*
X159040000Y-79375583D01*
X159245934Y-79355300D01*
X159443954Y-79295232D01*
X159626450Y-79197685D01*
X159786410Y-79066410D01*
X159917685Y-78906450D01*
X160015232Y-78723954D01*
X160075300Y-78525934D01*
X160095583Y-78320000D01*
X160524417Y-78320000D01*
X160544699Y-78525932D01*
X160544700Y-78525934D01*
X160604768Y-78723954D01*
X160702315Y-78906450D01*
X160733608Y-78944581D01*
X160833589Y-79066410D01*
X160930209Y-79145702D01*
X160993550Y-79197685D01*
X161176046Y-79295232D01*
X161374066Y-79355300D01*
X161374065Y-79355300D01*
X161392529Y-79357118D01*
X161580000Y-79375583D01*
X161785934Y-79355300D01*
X161983954Y-79295232D01*
X162166450Y-79197685D01*
X162326410Y-79066410D01*
X162457685Y-78906450D01*
X162555232Y-78723954D01*
X162615300Y-78525934D01*
X162635583Y-78320000D01*
X163064417Y-78320000D01*
X163084699Y-78525932D01*
X163084700Y-78525934D01*
X163144768Y-78723954D01*
X163242315Y-78906450D01*
X163273608Y-78944581D01*
X163373589Y-79066410D01*
X163470209Y-79145702D01*
X163533550Y-79197685D01*
X163716046Y-79295232D01*
X163914066Y-79355300D01*
X163914065Y-79355300D01*
X163932529Y-79357118D01*
X164120000Y-79375583D01*
X164325934Y-79355300D01*
X164523954Y-79295232D01*
X164706450Y-79197685D01*
X164866410Y-79066410D01*
X164997685Y-78906450D01*
X165095232Y-78723954D01*
X165155300Y-78525934D01*
X165175583Y-78320000D01*
X165604417Y-78320000D01*
X165624699Y-78525932D01*
X165624700Y-78525934D01*
X165684768Y-78723954D01*
X165782315Y-78906450D01*
X165813608Y-78944581D01*
X165913589Y-79066410D01*
X166010209Y-79145702D01*
X166073550Y-79197685D01*
X166256046Y-79295232D01*
X166454066Y-79355300D01*
X166454065Y-79355300D01*
X166472529Y-79357118D01*
X166660000Y-79375583D01*
X166865934Y-79355300D01*
X167063954Y-79295232D01*
X167246450Y-79197685D01*
X167406410Y-79066410D01*
X167537685Y-78906450D01*
X167616643Y-78758730D01*
X167665605Y-78708888D01*
X167733742Y-78693428D01*
X167799422Y-78717260D01*
X167841791Y-78772818D01*
X167850000Y-78817186D01*
X167850000Y-79217844D01*
X167856401Y-79277372D01*
X167856403Y-79277379D01*
X167906645Y-79412086D01*
X167906649Y-79412093D01*
X167992809Y-79527187D01*
X167992812Y-79527190D01*
X168107906Y-79613350D01*
X168107913Y-79613354D01*
X168242620Y-79663596D01*
X168242627Y-79663598D01*
X168302155Y-79669999D01*
X168302172Y-79670000D01*
X168950000Y-79670000D01*
X168950000Y-78764560D01*
X169003147Y-78795245D01*
X169132857Y-78830000D01*
X169267143Y-78830000D01*
X169396853Y-78795245D01*
X169450000Y-78764560D01*
X169450000Y-79670000D01*
X170097828Y-79670000D01*
X170097844Y-79669999D01*
X170157372Y-79663598D01*
X170157379Y-79663596D01*
X170292086Y-79613354D01*
X170292093Y-79613350D01*
X170407187Y-79527190D01*
X170407190Y-79527187D01*
X170493350Y-79412093D01*
X170493354Y-79412086D01*
X170543596Y-79277379D01*
X170543598Y-79277372D01*
X170549999Y-79217844D01*
X170550000Y-79217827D01*
X170550000Y-78817186D01*
X170569685Y-78750147D01*
X170622489Y-78704392D01*
X170691647Y-78694448D01*
X170755203Y-78723473D01*
X170783356Y-78758729D01*
X170862315Y-78906450D01*
X170893608Y-78944581D01*
X170993589Y-79066410D01*
X171090209Y-79145702D01*
X171153550Y-79197685D01*
X171336046Y-79295232D01*
X171534066Y-79355300D01*
X171534065Y-79355300D01*
X171552529Y-79357118D01*
X171740000Y-79375583D01*
X171945934Y-79355300D01*
X172143954Y-79295232D01*
X172326450Y-79197685D01*
X172486410Y-79066410D01*
X172617685Y-78906450D01*
X172715232Y-78723954D01*
X172775300Y-78525934D01*
X172795583Y-78320000D01*
X173224417Y-78320000D01*
X173244699Y-78525932D01*
X173244700Y-78525934D01*
X173304768Y-78723954D01*
X173402315Y-78906450D01*
X173433608Y-78944581D01*
X173533589Y-79066410D01*
X173630209Y-79145702D01*
X173693550Y-79197685D01*
X173876046Y-79295232D01*
X174074066Y-79355300D01*
X174074065Y-79355300D01*
X174092529Y-79357118D01*
X174280000Y-79375583D01*
X174485934Y-79355300D01*
X174683954Y-79295232D01*
X174866450Y-79197685D01*
X175026410Y-79066410D01*
X175157685Y-78906450D01*
X175255232Y-78723954D01*
X175315300Y-78525934D01*
X175335583Y-78320000D01*
X175323764Y-78200000D01*
X176354785Y-78200000D01*
X176373602Y-78403082D01*
X176429417Y-78599247D01*
X176429422Y-78599260D01*
X176520327Y-78781821D01*
X176643237Y-78944581D01*
X176793958Y-79081980D01*
X176793960Y-79081982D01*
X176854955Y-79119748D01*
X176967363Y-79189348D01*
X177157544Y-79263024D01*
X177358024Y-79300500D01*
X177358026Y-79300500D01*
X177561974Y-79300500D01*
X177561976Y-79300500D01*
X177762456Y-79263024D01*
X177952637Y-79189348D01*
X178126041Y-79081981D01*
X178276764Y-78944579D01*
X178399673Y-78781821D01*
X178490582Y-78599250D01*
X178546397Y-78403083D01*
X178565215Y-78200000D01*
X178546397Y-77996917D01*
X178490582Y-77800750D01*
X178399673Y-77618179D01*
X178276764Y-77455421D01*
X178276762Y-77455418D01*
X178126041Y-77318019D01*
X178126039Y-77318017D01*
X177952642Y-77210655D01*
X177952635Y-77210651D01*
X177810135Y-77155447D01*
X177762456Y-77136976D01*
X177561976Y-77099500D01*
X177358024Y-77099500D01*
X177157544Y-77136976D01*
X177157541Y-77136976D01*
X177157541Y-77136977D01*
X176967364Y-77210651D01*
X176967357Y-77210655D01*
X176793960Y-77318017D01*
X176793958Y-77318019D01*
X176643237Y-77455418D01*
X176520327Y-77618178D01*
X176429422Y-77800739D01*
X176429417Y-77800752D01*
X176373602Y-77996917D01*
X176354785Y-78199999D01*
X176354785Y-78200000D01*
X175323764Y-78200000D01*
X175315300Y-78114066D01*
X175255232Y-77916046D01*
X175157685Y-77733550D01*
X175063003Y-77618179D01*
X175026410Y-77573589D01*
X174876121Y-77450252D01*
X174866450Y-77442315D01*
X174683954Y-77344768D01*
X174485934Y-77284700D01*
X174485932Y-77284699D01*
X174485934Y-77284699D01*
X174280000Y-77264417D01*
X174074067Y-77284699D01*
X173876043Y-77344769D01*
X173842634Y-77362627D01*
X173693550Y-77442315D01*
X173693548Y-77442316D01*
X173693547Y-77442317D01*
X173533589Y-77573589D01*
X173402317Y-77733547D01*
X173304769Y-77916043D01*
X173244699Y-78114067D01*
X173224417Y-78320000D01*
X172795583Y-78320000D01*
X172775300Y-78114066D01*
X172715232Y-77916046D01*
X172617685Y-77733550D01*
X172523003Y-77618179D01*
X172486410Y-77573589D01*
X172336121Y-77450252D01*
X172326450Y-77442315D01*
X172143954Y-77344768D01*
X171945934Y-77284700D01*
X171945932Y-77284699D01*
X171945934Y-77284699D01*
X171740000Y-77264417D01*
X171534067Y-77284699D01*
X171336043Y-77344769D01*
X171302634Y-77362627D01*
X171153550Y-77442315D01*
X171153548Y-77442316D01*
X171153547Y-77442317D01*
X170993589Y-77573589D01*
X170862317Y-77733547D01*
X170862315Y-77733550D01*
X170821451Y-77810000D01*
X170783358Y-77881267D01*
X170734395Y-77931111D01*
X170666257Y-77946571D01*
X170600578Y-77922739D01*
X170558209Y-77867181D01*
X170550000Y-77822813D01*
X170550000Y-77422172D01*
X170549999Y-77422155D01*
X170543598Y-77362627D01*
X170543596Y-77362620D01*
X170493354Y-77227913D01*
X170493350Y-77227906D01*
X170407190Y-77112812D01*
X170407187Y-77112809D01*
X170292093Y-77026649D01*
X170292086Y-77026645D01*
X170157379Y-76976403D01*
X170157372Y-76976401D01*
X170097844Y-76970000D01*
X169450000Y-76970000D01*
X169450000Y-77875439D01*
X169396853Y-77844755D01*
X169267143Y-77810000D01*
X169132857Y-77810000D01*
X169003147Y-77844755D01*
X168950000Y-77875439D01*
X168950000Y-76970000D01*
X168302155Y-76970000D01*
X168242627Y-76976401D01*
X168242620Y-76976403D01*
X168107913Y-77026645D01*
X168107906Y-77026649D01*
X167992812Y-77112809D01*
X167992809Y-77112812D01*
X167906649Y-77227906D01*
X167906645Y-77227913D01*
X167856403Y-77362620D01*
X167856401Y-77362627D01*
X167850000Y-77422155D01*
X167850000Y-77822813D01*
X167830315Y-77889852D01*
X167777511Y-77935607D01*
X167708353Y-77945551D01*
X167644797Y-77916526D01*
X167616642Y-77881267D01*
X167609113Y-77867181D01*
X167537685Y-77733550D01*
X167443003Y-77618179D01*
X167406410Y-77573589D01*
X167256121Y-77450252D01*
X167246450Y-77442315D01*
X167063954Y-77344768D01*
X166865934Y-77284700D01*
X166865932Y-77284699D01*
X166865934Y-77284699D01*
X166660000Y-77264417D01*
X166454067Y-77284699D01*
X166256043Y-77344769D01*
X166222634Y-77362627D01*
X166073550Y-77442315D01*
X166073548Y-77442316D01*
X166073547Y-77442317D01*
X165913589Y-77573589D01*
X165782317Y-77733547D01*
X165684769Y-77916043D01*
X165624699Y-78114067D01*
X165604417Y-78320000D01*
X165175583Y-78320000D01*
X165155300Y-78114066D01*
X165095232Y-77916046D01*
X164997685Y-77733550D01*
X164903003Y-77618179D01*
X164866410Y-77573589D01*
X164716121Y-77450252D01*
X164706450Y-77442315D01*
X164523954Y-77344768D01*
X164325934Y-77284700D01*
X164325932Y-77284699D01*
X164325934Y-77284699D01*
X164120000Y-77264417D01*
X163914067Y-77284699D01*
X163716043Y-77344769D01*
X163682634Y-77362627D01*
X163533550Y-77442315D01*
X163533548Y-77442316D01*
X163533547Y-77442317D01*
X163373589Y-77573589D01*
X163242317Y-77733547D01*
X163144769Y-77916043D01*
X163084699Y-78114067D01*
X163064417Y-78320000D01*
X162635583Y-78320000D01*
X162615300Y-78114066D01*
X162555232Y-77916046D01*
X162457685Y-77733550D01*
X162363003Y-77618179D01*
X162326410Y-77573589D01*
X162176121Y-77450252D01*
X162166450Y-77442315D01*
X161983954Y-77344768D01*
X161785934Y-77284700D01*
X161785932Y-77284699D01*
X161785934Y-77284699D01*
X161580000Y-77264417D01*
X161374067Y-77284699D01*
X161176043Y-77344769D01*
X161142634Y-77362627D01*
X160993550Y-77442315D01*
X160993548Y-77442316D01*
X160993547Y-77442317D01*
X160833589Y-77573589D01*
X160702317Y-77733547D01*
X160604769Y-77916043D01*
X160544699Y-78114067D01*
X160524417Y-78320000D01*
X160095583Y-78320000D01*
X160075300Y-78114066D01*
X160015232Y-77916046D01*
X159917685Y-77733550D01*
X159823003Y-77618179D01*
X159786410Y-77573589D01*
X159636121Y-77450252D01*
X159626450Y-77442315D01*
X159443954Y-77344768D01*
X159245934Y-77284700D01*
X159245932Y-77284699D01*
X159245934Y-77284699D01*
X159040000Y-77264417D01*
X158834067Y-77284699D01*
X158636043Y-77344769D01*
X158602634Y-77362627D01*
X158453550Y-77442315D01*
X158453548Y-77442316D01*
X158453547Y-77442317D01*
X158293589Y-77573589D01*
X158162317Y-77733547D01*
X158162315Y-77733550D01*
X158121451Y-77810000D01*
X158083358Y-77881267D01*
X158034395Y-77931111D01*
X157966257Y-77946571D01*
X157900578Y-77922739D01*
X157858209Y-77867181D01*
X157850000Y-77822813D01*
X157850000Y-77422172D01*
X157849999Y-77422155D01*
X157843598Y-77362627D01*
X157843596Y-77362620D01*
X157793354Y-77227913D01*
X157793350Y-77227906D01*
X157707190Y-77112812D01*
X157707187Y-77112809D01*
X157592093Y-77026649D01*
X157592086Y-77026645D01*
X157457379Y-76976403D01*
X157457372Y-76976401D01*
X157397844Y-76970000D01*
X156750000Y-76970000D01*
X156750000Y-77875439D01*
X156696853Y-77844755D01*
X156567143Y-77810000D01*
X156432857Y-77810000D01*
X156303147Y-77844755D01*
X156250000Y-77875439D01*
X156250000Y-76970000D01*
X155602155Y-76970000D01*
X155542627Y-76976401D01*
X155542620Y-76976403D01*
X155407913Y-77026645D01*
X155407906Y-77026649D01*
X155292812Y-77112809D01*
X155292809Y-77112812D01*
X155206649Y-77227906D01*
X155206645Y-77227913D01*
X155156403Y-77362620D01*
X155156401Y-77362627D01*
X155150000Y-77422155D01*
X155150000Y-77822813D01*
X155130315Y-77889852D01*
X155077511Y-77935607D01*
X155008353Y-77945551D01*
X154944797Y-77916526D01*
X154916642Y-77881267D01*
X154909113Y-77867181D01*
X154837685Y-77733550D01*
X154743003Y-77618179D01*
X154706410Y-77573589D01*
X154556121Y-77450252D01*
X154546450Y-77442315D01*
X154363954Y-77344768D01*
X154165934Y-77284700D01*
X154165932Y-77284699D01*
X154165934Y-77284699D01*
X153960000Y-77264417D01*
X153754067Y-77284699D01*
X153556043Y-77344769D01*
X153522634Y-77362627D01*
X153373550Y-77442315D01*
X153373548Y-77442316D01*
X153373547Y-77442317D01*
X153213589Y-77573589D01*
X153082317Y-77733547D01*
X152984769Y-77916043D01*
X152924699Y-78114067D01*
X152904417Y-78320000D01*
X152924699Y-78525932D01*
X152924700Y-78525934D01*
X152984768Y-78723954D01*
X153082315Y-78906450D01*
X153113608Y-78944581D01*
X153213589Y-79066410D01*
X153344864Y-79174143D01*
X153373546Y-79197682D01*
X153373549Y-79197684D01*
X153373551Y-79197686D01*
X153400242Y-79211952D01*
X153443953Y-79235316D01*
X153493797Y-79284277D01*
X153509500Y-79344674D01*
X153509500Y-79602034D01*
X153489815Y-79669073D01*
X153473181Y-79689715D01*
X152649716Y-80513181D01*
X152588393Y-80546666D01*
X152562035Y-80549500D01*
X125602965Y-80549500D01*
X125535926Y-80529815D01*
X125515284Y-80513181D01*
X123648387Y-78646284D01*
X123614902Y-78584961D01*
X123616802Y-78524668D01*
X123619026Y-78516853D01*
X123651397Y-78403083D01*
X123659096Y-78320000D01*
X124964417Y-78320000D01*
X124984699Y-78525932D01*
X124984700Y-78525934D01*
X125044768Y-78723954D01*
X125142315Y-78906450D01*
X125173608Y-78944581D01*
X125273589Y-79066410D01*
X125370209Y-79145702D01*
X125433550Y-79197685D01*
X125616046Y-79295232D01*
X125814066Y-79355300D01*
X125814065Y-79355300D01*
X125832529Y-79357118D01*
X126020000Y-79375583D01*
X126225934Y-79355300D01*
X126423954Y-79295232D01*
X126606450Y-79197685D01*
X126766410Y-79066410D01*
X126897685Y-78906450D01*
X126995232Y-78723954D01*
X127055300Y-78525934D01*
X127075583Y-78320000D01*
X127504417Y-78320000D01*
X127524699Y-78525932D01*
X127524700Y-78525934D01*
X127584768Y-78723954D01*
X127682315Y-78906450D01*
X127713608Y-78944581D01*
X127813589Y-79066410D01*
X127910209Y-79145702D01*
X127973550Y-79197685D01*
X128156046Y-79295232D01*
X128354066Y-79355300D01*
X128354065Y-79355300D01*
X128372529Y-79357118D01*
X128560000Y-79375583D01*
X128765934Y-79355300D01*
X128963954Y-79295232D01*
X129146450Y-79197685D01*
X129156116Y-79189752D01*
X130049500Y-79189752D01*
X130061131Y-79248229D01*
X130061132Y-79248230D01*
X130105447Y-79314552D01*
X130171769Y-79358867D01*
X130171770Y-79358868D01*
X130230247Y-79370499D01*
X130230250Y-79370500D01*
X130230252Y-79370500D01*
X131969750Y-79370500D01*
X131969751Y-79370499D01*
X131984568Y-79367552D01*
X132028229Y-79358868D01*
X132028229Y-79358867D01*
X132028231Y-79358867D01*
X132094552Y-79314552D01*
X132138867Y-79248231D01*
X132138867Y-79248229D01*
X132138868Y-79248229D01*
X132150499Y-79189752D01*
X132150500Y-79189750D01*
X132150500Y-78320000D01*
X132584417Y-78320000D01*
X132604699Y-78525932D01*
X132604700Y-78525934D01*
X132664768Y-78723954D01*
X132762315Y-78906450D01*
X132793608Y-78944581D01*
X132893589Y-79066410D01*
X132990209Y-79145702D01*
X133053550Y-79197685D01*
X133236046Y-79295232D01*
X133434066Y-79355300D01*
X133434065Y-79355300D01*
X133452529Y-79357118D01*
X133640000Y-79375583D01*
X133845934Y-79355300D01*
X134043954Y-79295232D01*
X134226450Y-79197685D01*
X134386410Y-79066410D01*
X134517685Y-78906450D01*
X134615232Y-78723954D01*
X134675300Y-78525934D01*
X134695583Y-78320000D01*
X135124417Y-78320000D01*
X135144699Y-78525932D01*
X135144700Y-78525934D01*
X135204768Y-78723954D01*
X135302315Y-78906450D01*
X135333608Y-78944581D01*
X135433589Y-79066410D01*
X135530209Y-79145702D01*
X135593550Y-79197685D01*
X135776046Y-79295232D01*
X135974066Y-79355300D01*
X135974065Y-79355300D01*
X135992529Y-79357118D01*
X136180000Y-79375583D01*
X136385934Y-79355300D01*
X136583954Y-79295232D01*
X136766450Y-79197685D01*
X136926410Y-79066410D01*
X137057685Y-78906450D01*
X137155232Y-78723954D01*
X137215300Y-78525934D01*
X137235583Y-78320000D01*
X137664417Y-78320000D01*
X137684699Y-78525932D01*
X137684700Y-78525934D01*
X137744768Y-78723954D01*
X137842315Y-78906450D01*
X137873608Y-78944581D01*
X137973589Y-79066410D01*
X138070209Y-79145702D01*
X138133550Y-79197685D01*
X138316046Y-79295232D01*
X138514066Y-79355300D01*
X138514065Y-79355300D01*
X138532529Y-79357118D01*
X138720000Y-79375583D01*
X138925934Y-79355300D01*
X139123954Y-79295232D01*
X139306450Y-79197685D01*
X139466410Y-79066410D01*
X139597685Y-78906450D01*
X139695232Y-78723954D01*
X139755300Y-78525934D01*
X139775583Y-78320000D01*
X140204417Y-78320000D01*
X140224699Y-78525932D01*
X140224700Y-78525934D01*
X140284768Y-78723954D01*
X140382315Y-78906450D01*
X140413608Y-78944581D01*
X140513589Y-79066410D01*
X140610209Y-79145702D01*
X140673550Y-79197685D01*
X140856046Y-79295232D01*
X141054066Y-79355300D01*
X141054065Y-79355300D01*
X141072529Y-79357118D01*
X141260000Y-79375583D01*
X141465934Y-79355300D01*
X141663954Y-79295232D01*
X141846450Y-79197685D01*
X141856116Y-79189752D01*
X142749500Y-79189752D01*
X142761131Y-79248229D01*
X142761132Y-79248230D01*
X142805447Y-79314552D01*
X142871769Y-79358867D01*
X142871770Y-79358868D01*
X142930247Y-79370499D01*
X142930250Y-79370500D01*
X142930252Y-79370500D01*
X144669750Y-79370500D01*
X144669751Y-79370499D01*
X144684568Y-79367552D01*
X144728229Y-79358868D01*
X144728229Y-79358867D01*
X144728231Y-79358867D01*
X144794552Y-79314552D01*
X144838867Y-79248231D01*
X144838867Y-79248229D01*
X144838868Y-79248229D01*
X144850499Y-79189752D01*
X144850500Y-79189750D01*
X144850500Y-78320000D01*
X145284417Y-78320000D01*
X145304699Y-78525932D01*
X145304700Y-78525934D01*
X145364768Y-78723954D01*
X145462315Y-78906450D01*
X145493608Y-78944581D01*
X145593589Y-79066410D01*
X145690209Y-79145702D01*
X145753550Y-79197685D01*
X145936046Y-79295232D01*
X146134066Y-79355300D01*
X146134065Y-79355300D01*
X146152529Y-79357118D01*
X146340000Y-79375583D01*
X146545934Y-79355300D01*
X146743954Y-79295232D01*
X146926450Y-79197685D01*
X147086410Y-79066410D01*
X147217685Y-78906450D01*
X147315232Y-78723954D01*
X147375300Y-78525934D01*
X147395583Y-78320000D01*
X147824417Y-78320000D01*
X147844699Y-78525932D01*
X147844700Y-78525934D01*
X147904768Y-78723954D01*
X148002315Y-78906450D01*
X148033608Y-78944581D01*
X148133589Y-79066410D01*
X148230209Y-79145702D01*
X148293550Y-79197685D01*
X148476046Y-79295232D01*
X148674066Y-79355300D01*
X148674065Y-79355300D01*
X148692529Y-79357118D01*
X148880000Y-79375583D01*
X149085934Y-79355300D01*
X149283954Y-79295232D01*
X149466450Y-79197685D01*
X149626410Y-79066410D01*
X149757685Y-78906450D01*
X149855232Y-78723954D01*
X149915300Y-78525934D01*
X149935583Y-78320000D01*
X150364417Y-78320000D01*
X150384699Y-78525932D01*
X150384700Y-78525934D01*
X150444768Y-78723954D01*
X150542315Y-78906450D01*
X150573608Y-78944581D01*
X150673589Y-79066410D01*
X150770209Y-79145702D01*
X150833550Y-79197685D01*
X151016046Y-79295232D01*
X151214066Y-79355300D01*
X151214065Y-79355300D01*
X151232529Y-79357118D01*
X151420000Y-79375583D01*
X151625934Y-79355300D01*
X151823954Y-79295232D01*
X152006450Y-79197685D01*
X152166410Y-79066410D01*
X152297685Y-78906450D01*
X152395232Y-78723954D01*
X152455300Y-78525934D01*
X152475583Y-78320000D01*
X152455300Y-78114066D01*
X152395232Y-77916046D01*
X152297685Y-77733550D01*
X152203003Y-77618179D01*
X152166410Y-77573589D01*
X152016121Y-77450252D01*
X152006450Y-77442315D01*
X151823954Y-77344768D01*
X151625934Y-77284700D01*
X151625932Y-77284699D01*
X151625934Y-77284699D01*
X151420000Y-77264417D01*
X151214067Y-77284699D01*
X151016043Y-77344769D01*
X150982634Y-77362627D01*
X150833550Y-77442315D01*
X150833548Y-77442316D01*
X150833547Y-77442317D01*
X150673589Y-77573589D01*
X150542317Y-77733547D01*
X150444769Y-77916043D01*
X150384699Y-78114067D01*
X150364417Y-78320000D01*
X149935583Y-78320000D01*
X149915300Y-78114066D01*
X149855232Y-77916046D01*
X149757685Y-77733550D01*
X149663003Y-77618179D01*
X149626410Y-77573589D01*
X149476121Y-77450252D01*
X149466450Y-77442315D01*
X149283954Y-77344768D01*
X149085934Y-77284700D01*
X149085932Y-77284699D01*
X149085934Y-77284699D01*
X148880000Y-77264417D01*
X148674067Y-77284699D01*
X148476043Y-77344769D01*
X148442634Y-77362627D01*
X148293550Y-77442315D01*
X148293548Y-77442316D01*
X148293547Y-77442317D01*
X148133589Y-77573589D01*
X148002317Y-77733547D01*
X147904769Y-77916043D01*
X147844699Y-78114067D01*
X147824417Y-78320000D01*
X147395583Y-78320000D01*
X147375300Y-78114066D01*
X147315232Y-77916046D01*
X147217685Y-77733550D01*
X147123003Y-77618179D01*
X147086410Y-77573589D01*
X146936121Y-77450252D01*
X146926450Y-77442315D01*
X146743954Y-77344768D01*
X146545934Y-77284700D01*
X146545932Y-77284699D01*
X146545934Y-77284699D01*
X146340000Y-77264417D01*
X146134067Y-77284699D01*
X145936043Y-77344769D01*
X145902634Y-77362627D01*
X145753550Y-77442315D01*
X145753548Y-77442316D01*
X145753547Y-77442317D01*
X145593589Y-77573589D01*
X145462317Y-77733547D01*
X145364769Y-77916043D01*
X145304699Y-78114067D01*
X145284417Y-78320000D01*
X144850500Y-78320000D01*
X144850500Y-77450249D01*
X144850499Y-77450247D01*
X144838868Y-77391770D01*
X144838867Y-77391769D01*
X144794552Y-77325447D01*
X144728230Y-77281132D01*
X144728229Y-77281131D01*
X144669752Y-77269500D01*
X144669748Y-77269500D01*
X142930252Y-77269500D01*
X142930247Y-77269500D01*
X142871770Y-77281131D01*
X142871769Y-77281132D01*
X142805447Y-77325447D01*
X142761132Y-77391769D01*
X142761131Y-77391770D01*
X142749500Y-77450247D01*
X142749500Y-79189752D01*
X141856116Y-79189752D01*
X142006410Y-79066410D01*
X142137685Y-78906450D01*
X142235232Y-78723954D01*
X142295300Y-78525934D01*
X142315583Y-78320000D01*
X142295300Y-78114066D01*
X142235232Y-77916046D01*
X142137685Y-77733550D01*
X142043003Y-77618179D01*
X142006410Y-77573589D01*
X141856121Y-77450252D01*
X141846450Y-77442315D01*
X141663954Y-77344768D01*
X141465934Y-77284700D01*
X141465932Y-77284699D01*
X141465934Y-77284699D01*
X141260000Y-77264417D01*
X141054067Y-77284699D01*
X140856043Y-77344769D01*
X140822634Y-77362627D01*
X140673550Y-77442315D01*
X140673548Y-77442316D01*
X140673547Y-77442317D01*
X140513589Y-77573589D01*
X140382317Y-77733547D01*
X140284769Y-77916043D01*
X140224699Y-78114067D01*
X140204417Y-78320000D01*
X139775583Y-78320000D01*
X139755300Y-78114066D01*
X139695232Y-77916046D01*
X139597685Y-77733550D01*
X139503003Y-77618179D01*
X139466410Y-77573589D01*
X139316121Y-77450252D01*
X139306450Y-77442315D01*
X139123954Y-77344768D01*
X138925934Y-77284700D01*
X138925932Y-77284699D01*
X138925934Y-77284699D01*
X138720000Y-77264417D01*
X138514067Y-77284699D01*
X138316043Y-77344769D01*
X138282634Y-77362627D01*
X138133550Y-77442315D01*
X138133548Y-77442316D01*
X138133547Y-77442317D01*
X137973589Y-77573589D01*
X137842317Y-77733547D01*
X137744769Y-77916043D01*
X137684699Y-78114067D01*
X137664417Y-78320000D01*
X137235583Y-78320000D01*
X137215300Y-78114066D01*
X137155232Y-77916046D01*
X137057685Y-77733550D01*
X136963003Y-77618179D01*
X136926410Y-77573589D01*
X136776121Y-77450252D01*
X136766450Y-77442315D01*
X136583954Y-77344768D01*
X136385934Y-77284700D01*
X136385932Y-77284699D01*
X136385934Y-77284699D01*
X136180000Y-77264417D01*
X135974067Y-77284699D01*
X135776043Y-77344769D01*
X135742634Y-77362627D01*
X135593550Y-77442315D01*
X135593548Y-77442316D01*
X135593547Y-77442317D01*
X135433589Y-77573589D01*
X135302317Y-77733547D01*
X135204769Y-77916043D01*
X135144699Y-78114067D01*
X135124417Y-78320000D01*
X134695583Y-78320000D01*
X134675300Y-78114066D01*
X134615232Y-77916046D01*
X134517685Y-77733550D01*
X134423003Y-77618179D01*
X134386410Y-77573589D01*
X134236121Y-77450252D01*
X134226450Y-77442315D01*
X134043954Y-77344768D01*
X133845934Y-77284700D01*
X133845932Y-77284699D01*
X133845934Y-77284699D01*
X133640000Y-77264417D01*
X133434067Y-77284699D01*
X133236043Y-77344769D01*
X133202634Y-77362627D01*
X133053550Y-77442315D01*
X133053548Y-77442316D01*
X133053547Y-77442317D01*
X132893589Y-77573589D01*
X132762317Y-77733547D01*
X132664769Y-77916043D01*
X132604699Y-78114067D01*
X132584417Y-78320000D01*
X132150500Y-78320000D01*
X132150500Y-77450249D01*
X132150499Y-77450247D01*
X132138868Y-77391770D01*
X132138867Y-77391769D01*
X132094552Y-77325447D01*
X132028230Y-77281132D01*
X132028229Y-77281131D01*
X131969752Y-77269500D01*
X131969748Y-77269500D01*
X130230252Y-77269500D01*
X130230247Y-77269500D01*
X130171770Y-77281131D01*
X130171769Y-77281132D01*
X130105447Y-77325447D01*
X130061132Y-77391769D01*
X130061131Y-77391770D01*
X130049500Y-77450247D01*
X130049500Y-79189752D01*
X129156116Y-79189752D01*
X129306410Y-79066410D01*
X129437685Y-78906450D01*
X129535232Y-78723954D01*
X129595300Y-78525934D01*
X129615583Y-78320000D01*
X129595300Y-78114066D01*
X129535232Y-77916046D01*
X129437685Y-77733550D01*
X129343003Y-77618179D01*
X129306410Y-77573589D01*
X129156121Y-77450252D01*
X129146450Y-77442315D01*
X128963954Y-77344768D01*
X128765934Y-77284700D01*
X128765932Y-77284699D01*
X128765934Y-77284699D01*
X128560000Y-77264417D01*
X128354067Y-77284699D01*
X128156043Y-77344769D01*
X128122634Y-77362627D01*
X127973550Y-77442315D01*
X127973548Y-77442316D01*
X127973547Y-77442317D01*
X127813589Y-77573589D01*
X127682317Y-77733547D01*
X127584769Y-77916043D01*
X127524699Y-78114067D01*
X127504417Y-78320000D01*
X127075583Y-78320000D01*
X127055300Y-78114066D01*
X126995232Y-77916046D01*
X126897685Y-77733550D01*
X126803003Y-77618179D01*
X126766410Y-77573589D01*
X126616121Y-77450252D01*
X126606450Y-77442315D01*
X126423954Y-77344768D01*
X126225934Y-77284700D01*
X126225932Y-77284699D01*
X126225934Y-77284699D01*
X126020000Y-77264417D01*
X125814067Y-77284699D01*
X125616043Y-77344769D01*
X125582634Y-77362627D01*
X125433550Y-77442315D01*
X125433548Y-77442316D01*
X125433547Y-77442317D01*
X125273589Y-77573589D01*
X125142317Y-77733547D01*
X125044769Y-77916043D01*
X124984699Y-78114067D01*
X124964417Y-78320000D01*
X123659096Y-78320000D01*
X123670215Y-78200000D01*
X123651397Y-77996917D01*
X123595582Y-77800750D01*
X123504673Y-77618179D01*
X123381764Y-77455421D01*
X123381762Y-77455418D01*
X123231041Y-77318019D01*
X123231039Y-77318017D01*
X123057642Y-77210655D01*
X123057635Y-77210651D01*
X122915135Y-77155447D01*
X122867456Y-77136976D01*
X122666976Y-77099500D01*
X122463024Y-77099500D01*
X122262544Y-77136976D01*
X122262541Y-77136976D01*
X122262541Y-77136977D01*
X122072364Y-77210651D01*
X122072357Y-77210655D01*
X121898960Y-77318017D01*
X121898958Y-77318019D01*
X121748237Y-77455418D01*
X121625327Y-77618178D01*
X121534422Y-77800739D01*
X121534417Y-77800752D01*
X121478602Y-77996917D01*
X121459785Y-78199999D01*
X121459785Y-78200000D01*
X121125500Y-78200000D01*
X121125500Y-77280249D01*
X121125499Y-77280247D01*
X121113868Y-77221770D01*
X121113867Y-77221769D01*
X121069552Y-77155447D01*
X121003230Y-77111132D01*
X121003229Y-77111131D01*
X120944752Y-77099500D01*
X120944748Y-77099500D01*
X119105252Y-77099500D01*
X119105247Y-77099500D01*
X119046770Y-77111131D01*
X119046769Y-77111132D01*
X118980447Y-77155447D01*
X118936132Y-77221769D01*
X118936131Y-77221770D01*
X118924500Y-77280247D01*
X118924500Y-79119752D01*
X111459112Y-79119752D01*
X111782874Y-78164623D01*
X111784153Y-78161039D01*
X112234124Y-76960137D01*
X112235551Y-76956505D01*
X112723354Y-75770428D01*
X112724876Y-75766889D01*
X113250008Y-74596865D01*
X113251624Y-74593409D01*
X113813589Y-73440547D01*
X113815302Y-73437169D01*
X114413504Y-72302695D01*
X114415384Y-72299266D01*
X114415385Y-72299265D01*
X115049149Y-71184448D01*
X115051115Y-71181112D01*
X115719938Y-70086835D01*
X115722030Y-70083532D01*
X116425134Y-69011070D01*
X116427340Y-69007819D01*
X116427342Y-69007816D01*
X117164107Y-67958111D01*
X117166331Y-67955046D01*
X117935993Y-66929194D01*
X117938390Y-66926103D01*
X117938392Y-66926101D01*
X118740159Y-65925154D01*
X118742572Y-65922237D01*
X119575691Y-64947142D01*
X119578220Y-64944276D01*
X120441827Y-63996047D01*
X120444409Y-63993301D01*
X121337568Y-63072964D01*
X121340285Y-63070251D01*
X122262165Y-62178659D01*
X122264985Y-62176016D01*
X123214642Y-61314082D01*
X123217511Y-61311560D01*
X124194010Y-60480132D01*
X124196910Y-60477741D01*
X125199291Y-59677639D01*
X125202336Y-59675287D01*
X125436803Y-59500002D01*
X135122780Y-59500002D01*
X135138340Y-59578230D01*
X135138340Y-59578231D01*
X135171470Y-59627812D01*
X135171473Y-59627816D01*
X136472183Y-60928526D01*
X136472187Y-60928529D01*
X136472189Y-60928531D01*
X136521769Y-60961659D01*
X136599998Y-60977220D01*
X136600000Y-60977220D01*
X136600002Y-60977220D01*
X136652154Y-60966846D01*
X136678231Y-60961659D01*
X136727811Y-60928531D01*
X137769523Y-59886819D01*
X137830846Y-59853334D01*
X137857204Y-59850500D01*
X141253456Y-59850500D01*
X141320495Y-59870185D01*
X141341137Y-59886819D01*
X144734787Y-63280469D01*
X144814712Y-63326614D01*
X144903856Y-63350500D01*
X144903858Y-63350500D01*
X154596142Y-63350500D01*
X154596144Y-63350500D01*
X154685288Y-63326614D01*
X154765212Y-63280470D01*
X158745682Y-59300000D01*
X162594785Y-59300000D01*
X162613602Y-59503082D01*
X162669417Y-59699247D01*
X162669422Y-59699260D01*
X162760327Y-59881821D01*
X162883237Y-60044581D01*
X163033958Y-60181980D01*
X163033960Y-60181982D01*
X163133141Y-60243392D01*
X163207363Y-60289348D01*
X163397544Y-60363024D01*
X163598024Y-60400500D01*
X163598026Y-60400500D01*
X163801974Y-60400500D01*
X163801976Y-60400500D01*
X164002456Y-60363024D01*
X164192637Y-60289348D01*
X164366041Y-60181981D01*
X164516764Y-60044579D01*
X164639673Y-59881821D01*
X164730582Y-59699250D01*
X164786397Y-59503083D01*
X164805215Y-59300000D01*
X164786397Y-59096917D01*
X164730582Y-58900750D01*
X164728491Y-58896551D01*
X164663968Y-58766971D01*
X164639673Y-58718179D01*
X164516764Y-58555421D01*
X164516762Y-58555418D01*
X164366041Y-58418019D01*
X164366039Y-58418017D01*
X164192642Y-58310655D01*
X164192635Y-58310651D01*
X164097546Y-58273814D01*
X164002456Y-58236976D01*
X163801976Y-58199500D01*
X163598024Y-58199500D01*
X163397544Y-58236976D01*
X163397541Y-58236976D01*
X163397541Y-58236977D01*
X163207364Y-58310651D01*
X163207357Y-58310655D01*
X163033960Y-58418017D01*
X163033958Y-58418019D01*
X162883237Y-58555418D01*
X162760327Y-58718178D01*
X162669422Y-58900739D01*
X162669417Y-58900752D01*
X162613602Y-59096917D01*
X162594785Y-59299999D01*
X162594785Y-59300000D01*
X158745682Y-59300000D01*
X160154914Y-57890768D01*
X160216237Y-57857283D01*
X160242595Y-57854449D01*
X160646745Y-57854449D01*
X160713784Y-57874134D01*
X160734426Y-57890768D01*
X161776132Y-58932475D01*
X161776136Y-58932478D01*
X161776138Y-58932480D01*
X161825718Y-58965608D01*
X161903947Y-58981169D01*
X161903949Y-58981169D01*
X161903951Y-58981169D01*
X161956103Y-58970795D01*
X161982180Y-58965608D01*
X162031760Y-58932480D01*
X163332480Y-57631760D01*
X163365608Y-57582180D01*
X163381169Y-57503949D01*
X163381169Y-57503946D01*
X163365608Y-57425718D01*
X163365608Y-57425717D01*
X163346279Y-57396790D01*
X163332480Y-57376138D01*
X163332478Y-57376136D01*
X163332475Y-57376132D01*
X162031765Y-56075422D01*
X162031761Y-56075419D01*
X161982179Y-56042289D01*
X161903951Y-56026729D01*
X161903947Y-56026729D01*
X161825718Y-56042289D01*
X161825717Y-56042289D01*
X161776136Y-56075419D01*
X161776132Y-56075422D01*
X160734426Y-57117130D01*
X160673103Y-57150615D01*
X160646745Y-57153449D01*
X159999907Y-57153449D01*
X159910763Y-57177335D01*
X159910760Y-57177336D01*
X159830842Y-57223476D01*
X159830837Y-57223480D01*
X154441137Y-62613181D01*
X154379814Y-62646666D01*
X154353456Y-62649500D01*
X145146544Y-62649500D01*
X145079505Y-62629815D01*
X145058863Y-62613181D01*
X141665213Y-59219531D01*
X141665208Y-59219527D01*
X141585286Y-59173385D01*
X141585284Y-59173384D01*
X141565894Y-59168189D01*
X141565893Y-59168188D01*
X141565893Y-59168189D01*
X141531018Y-59158844D01*
X141496144Y-59149500D01*
X141496143Y-59149500D01*
X137857204Y-59149500D01*
X137790165Y-59129815D01*
X137769523Y-59113181D01*
X136727816Y-58071473D01*
X136727812Y-58071470D01*
X136678230Y-58038340D01*
X136600002Y-58022780D01*
X136599998Y-58022780D01*
X136521769Y-58038340D01*
X136521768Y-58038340D01*
X136472187Y-58071470D01*
X136472183Y-58071473D01*
X135171473Y-59372183D01*
X135171470Y-59372187D01*
X135138340Y-59421768D01*
X135138340Y-59421769D01*
X135122780Y-59499997D01*
X135122780Y-59500002D01*
X125436803Y-59500002D01*
X126229516Y-58907377D01*
X126232641Y-58905118D01*
X127283626Y-58170140D01*
X127286794Y-58167999D01*
X127997274Y-57703949D01*
X137290836Y-57703949D01*
X137309653Y-57907031D01*
X137365468Y-58103196D01*
X137365473Y-58103209D01*
X137456378Y-58285770D01*
X137579288Y-58448530D01*
X137730009Y-58585929D01*
X137730011Y-58585931D01*
X137829192Y-58647341D01*
X137903414Y-58693297D01*
X138093595Y-58766973D01*
X138294075Y-58804449D01*
X138294077Y-58804449D01*
X138498025Y-58804449D01*
X138498027Y-58804449D01*
X138698507Y-58766973D01*
X138888688Y-58693297D01*
X139062092Y-58585930D01*
X139212815Y-58448528D01*
X139335724Y-58285770D01*
X139426633Y-58103199D01*
X139482448Y-57907032D01*
X139492366Y-57800002D01*
X141722780Y-57800002D01*
X141738340Y-57878230D01*
X141738340Y-57878231D01*
X141771470Y-57927812D01*
X141771473Y-57927816D01*
X143072183Y-59228526D01*
X143072187Y-59228529D01*
X143072189Y-59228531D01*
X143121769Y-59261659D01*
X143199998Y-59277220D01*
X143200000Y-59277220D01*
X143200002Y-59277220D01*
X143252154Y-59266846D01*
X143278231Y-59261659D01*
X143327811Y-59228531D01*
X143501228Y-59055112D01*
X143562549Y-59021629D01*
X143632241Y-59026613D01*
X143676589Y-59055114D01*
X145211985Y-60590510D01*
X145337515Y-60662984D01*
X145477525Y-60700500D01*
X145477526Y-60700500D01*
X145477528Y-60700500D01*
X154639574Y-60700500D01*
X154639576Y-60700500D01*
X154639577Y-60700500D01*
X154779587Y-60662984D01*
X154905117Y-60590510D01*
X156587506Y-58908118D01*
X156648827Y-58874635D01*
X156697970Y-58873912D01*
X156819075Y-58896551D01*
X156819077Y-58896551D01*
X157023025Y-58896551D01*
X157023027Y-58896551D01*
X157223507Y-58859075D01*
X157413688Y-58785399D01*
X157587092Y-58678032D01*
X157737815Y-58540630D01*
X157860724Y-58377872D01*
X157951633Y-58195301D01*
X158007448Y-57999134D01*
X158026266Y-57796051D01*
X158007448Y-57592968D01*
X157951633Y-57396801D01*
X157860724Y-57214230D01*
X157749521Y-57066973D01*
X157737813Y-57051469D01*
X157587092Y-56914070D01*
X157587090Y-56914068D01*
X157413693Y-56806706D01*
X157413686Y-56806702D01*
X157263520Y-56748528D01*
X157223507Y-56733027D01*
X157023027Y-56695551D01*
X156819075Y-56695551D01*
X156618595Y-56733027D01*
X156618592Y-56733027D01*
X156618592Y-56733028D01*
X156428415Y-56806702D01*
X156428408Y-56806706D01*
X156255011Y-56914068D01*
X156255009Y-56914070D01*
X156104288Y-57051469D01*
X155981378Y-57214229D01*
X155890473Y-57396790D01*
X155890468Y-57396803D01*
X155834653Y-57592968D01*
X155815836Y-57796050D01*
X155815836Y-57796051D01*
X155834653Y-57999131D01*
X155834654Y-57999133D01*
X155834654Y-57999134D01*
X155837922Y-58010623D01*
X155837337Y-58080489D01*
X155806338Y-58132238D01*
X154375396Y-59563181D01*
X154314073Y-59596666D01*
X154287715Y-59599500D01*
X145829387Y-59599500D01*
X145762348Y-59579815D01*
X145741706Y-59563181D01*
X144455114Y-58276589D01*
X144421629Y-58215266D01*
X144426613Y-58145574D01*
X144455111Y-58101229D01*
X144628531Y-57927811D01*
X144661659Y-57878231D01*
X144677220Y-57800000D01*
X144677220Y-57799997D01*
X144661659Y-57721769D01*
X144661659Y-57721768D01*
X144645037Y-57696893D01*
X144628531Y-57672189D01*
X144628529Y-57672187D01*
X144628526Y-57672183D01*
X143327816Y-56371473D01*
X143327812Y-56371470D01*
X143278230Y-56338340D01*
X143200002Y-56322780D01*
X143199998Y-56322780D01*
X143121769Y-56338340D01*
X143121768Y-56338340D01*
X143072187Y-56371470D01*
X143072183Y-56371473D01*
X141771473Y-57672183D01*
X141771470Y-57672187D01*
X141738340Y-57721768D01*
X141738340Y-57721769D01*
X141722780Y-57799997D01*
X141722780Y-57800002D01*
X139492366Y-57800002D01*
X139501266Y-57703949D01*
X139482448Y-57500866D01*
X139426633Y-57304699D01*
X139386190Y-57223479D01*
X139363214Y-57177336D01*
X139335724Y-57122128D01*
X139276755Y-57044040D01*
X139212813Y-56959367D01*
X139062092Y-56821968D01*
X139062090Y-56821966D01*
X138888693Y-56714604D01*
X138888686Y-56714600D01*
X138793597Y-56677763D01*
X138698507Y-56640925D01*
X138498027Y-56603449D01*
X138294075Y-56603449D01*
X138093595Y-56640925D01*
X138093592Y-56640925D01*
X138093592Y-56640926D01*
X137903415Y-56714600D01*
X137903408Y-56714604D01*
X137730011Y-56821966D01*
X137730009Y-56821968D01*
X137579288Y-56959367D01*
X137456378Y-57122127D01*
X137365473Y-57304688D01*
X137365468Y-57304701D01*
X137309653Y-57500866D01*
X137290836Y-57703948D01*
X137290836Y-57703949D01*
X127997274Y-57703949D01*
X128360537Y-57466684D01*
X128363792Y-57464631D01*
X129459176Y-56797707D01*
X129462527Y-56795738D01*
X130155788Y-56403196D01*
X130578496Y-56163848D01*
X130581927Y-56161976D01*
X130882870Y-56003949D01*
X143890836Y-56003949D01*
X143909653Y-56207031D01*
X143965468Y-56403196D01*
X143965473Y-56403209D01*
X144056378Y-56585770D01*
X144179288Y-56748530D01*
X144330009Y-56885929D01*
X144330011Y-56885931D01*
X144429192Y-56947341D01*
X144503414Y-56993297D01*
X144693595Y-57066973D01*
X144894075Y-57104449D01*
X144894077Y-57104449D01*
X145098025Y-57104449D01*
X145098027Y-57104449D01*
X145298507Y-57066973D01*
X145488688Y-56993297D01*
X145662092Y-56885930D01*
X145812815Y-56748528D01*
X145935724Y-56585770D01*
X146026633Y-56403199D01*
X146082448Y-56207032D01*
X146101266Y-56003949D01*
X146100900Y-56000002D01*
X153647780Y-56000002D01*
X153663340Y-56078230D01*
X153663340Y-56078231D01*
X153696470Y-56127812D01*
X153696473Y-56127816D01*
X154997183Y-57428526D01*
X154997187Y-57428529D01*
X154997189Y-57428531D01*
X155046769Y-57461659D01*
X155124998Y-57477220D01*
X155125000Y-57477220D01*
X155125002Y-57477220D01*
X155177968Y-57466684D01*
X155203231Y-57461659D01*
X155252811Y-57428531D01*
X156553531Y-56127811D01*
X156586659Y-56078231D01*
X156593808Y-56042289D01*
X156602220Y-56000002D01*
X156602220Y-55999997D01*
X156586659Y-55921769D01*
X156586659Y-55921768D01*
X156570037Y-55896893D01*
X156553531Y-55872189D01*
X156553529Y-55872187D01*
X156553526Y-55872183D01*
X155252816Y-54571473D01*
X155252812Y-54571470D01*
X155203230Y-54538340D01*
X155125002Y-54522780D01*
X155124998Y-54522780D01*
X155046769Y-54538340D01*
X155046768Y-54538340D01*
X154997187Y-54571470D01*
X154997183Y-54571473D01*
X153696473Y-55872183D01*
X153696470Y-55872187D01*
X153663340Y-55921768D01*
X153663340Y-55921769D01*
X153647780Y-55999997D01*
X153647780Y-56000002D01*
X146100900Y-56000002D01*
X146082448Y-55800866D01*
X146026633Y-55604699D01*
X146007247Y-55565767D01*
X145982323Y-55515713D01*
X145935724Y-55422128D01*
X145812815Y-55259370D01*
X145812813Y-55259367D01*
X145662092Y-55121968D01*
X145662090Y-55121966D01*
X145488693Y-55014604D01*
X145488686Y-55014600D01*
X145393597Y-54977763D01*
X145298507Y-54940925D01*
X145098027Y-54903449D01*
X144894075Y-54903449D01*
X144693595Y-54940925D01*
X144693592Y-54940925D01*
X144693592Y-54940926D01*
X144503415Y-55014600D01*
X144503408Y-55014604D01*
X144330011Y-55121966D01*
X144330009Y-55121968D01*
X144179288Y-55259367D01*
X144056378Y-55422127D01*
X143965473Y-55604688D01*
X143965468Y-55604701D01*
X143909653Y-55800866D01*
X143890836Y-56003948D01*
X143890836Y-56003949D01*
X130882870Y-56003949D01*
X131717381Y-55565742D01*
X131720779Y-55564026D01*
X132874609Y-55004035D01*
X132878040Y-55002437D01*
X134048986Y-54479301D01*
X134052507Y-54477794D01*
X135239482Y-53991998D01*
X135243012Y-53990619D01*
X136444710Y-53542697D01*
X136448405Y-53541386D01*
X136448414Y-53541383D01*
X137663682Y-53131761D01*
X137667362Y-53130586D01*
X138895018Y-52759663D01*
X138898680Y-52758620D01*
X140137525Y-52426761D01*
X140141238Y-52425830D01*
X141390182Y-52133336D01*
X141393425Y-52132623D01*
X142009532Y-52006247D01*
X142034448Y-52003718D01*
X157965553Y-52003718D01*
X157990468Y-52006246D01*
G37*
%TD.AperFunction*%
%TD*%
M02*
