%TF.GenerationSoftware,KiCad,Pcbnew,8.0.1*%
%TF.CreationDate,2024-08-25T23:19:24+05:30*%
%TF.ProjectId,mm3.0,6d6d332e-302e-46b6-9963-61645f706362,v3.0*%
%TF.SameCoordinates,Original*%
%TF.FileFunction,Copper,L1,Top*%
%TF.FilePolarity,Positive*%
%FSLAX46Y46*%
G04 Gerber Fmt 4.6, Leading zero omitted, Abs format (unit mm)*
G04 Created by KiCad (PCBNEW 8.0.1) date 2024-08-25 23:19:24*
%MOMM*%
%LPD*%
G01*
G04 APERTURE LIST*
G04 Aperture macros list*
%AMRoundRect*
0 Rectangle with rounded corners*
0 $1 Rounding radius*
0 $2 $3 $4 $5 $6 $7 $8 $9 X,Y pos of 4 corners*
0 Add a 4 corners polygon primitive as box body*
4,1,4,$2,$3,$4,$5,$6,$7,$8,$9,$2,$3,0*
0 Add four circle primitives for the rounded corners*
1,1,$1+$1,$2,$3*
1,1,$1+$1,$4,$5*
1,1,$1+$1,$6,$7*
1,1,$1+$1,$8,$9*
0 Add four rect primitives between the rounded corners*
20,1,$1+$1,$2,$3,$4,$5,0*
20,1,$1+$1,$4,$5,$6,$7,0*
20,1,$1+$1,$6,$7,$8,$9,0*
20,1,$1+$1,$8,$9,$2,$3,0*%
%AMRotRect*
0 Rectangle, with rotation*
0 The origin of the aperture is its center*
0 $1 length*
0 $2 width*
0 $3 Rotation angle, in degrees counterclockwise*
0 Add horizontal line*
21,1,$1,$2,0,0,$3*%
G04 Aperture macros list end*
%TA.AperFunction,SMDPad,CuDef*%
%ADD10RoundRect,0.249999X-1.075001X0.450001X-1.075001X-0.450001X1.075001X-0.450001X1.075001X0.450001X0*%
%TD*%
%TA.AperFunction,SMDPad,CuDef*%
%ADD11RoundRect,0.249999X0.450001X1.075001X-0.450001X1.075001X-0.450001X-1.075001X0.450001X-1.075001X0*%
%TD*%
%TA.AperFunction,SMDPad,CuDef*%
%ADD12RoundRect,0.160000X-0.160000X0.197500X-0.160000X-0.197500X0.160000X-0.197500X0.160000X0.197500X0*%
%TD*%
%TA.AperFunction,ComponentPad*%
%ADD13C,1.100000*%
%TD*%
%TA.AperFunction,SMDPad,CuDef*%
%ADD14RoundRect,0.155000X-0.212500X-0.155000X0.212500X-0.155000X0.212500X0.155000X-0.212500X0.155000X0*%
%TD*%
%TA.AperFunction,ComponentPad*%
%ADD15R,1.800000X1.800000*%
%TD*%
%TA.AperFunction,ComponentPad*%
%ADD16C,1.800000*%
%TD*%
%TA.AperFunction,SMDPad,CuDef*%
%ADD17RoundRect,0.250000X-0.625000X0.400000X-0.625000X-0.400000X0.625000X-0.400000X0.625000X0.400000X0*%
%TD*%
%TA.AperFunction,SMDPad,CuDef*%
%ADD18RoundRect,0.250000X0.450000X-0.350000X0.450000X0.350000X-0.450000X0.350000X-0.450000X-0.350000X0*%
%TD*%
%TA.AperFunction,SMDPad,CuDef*%
%ADD19RoundRect,0.250000X-0.450000X0.350000X-0.450000X-0.350000X0.450000X-0.350000X0.450000X0.350000X0*%
%TD*%
%TA.AperFunction,SMDPad,CuDef*%
%ADD20RoundRect,0.250000X0.625000X-0.400000X0.625000X0.400000X-0.625000X0.400000X-0.625000X-0.400000X0*%
%TD*%
%TA.AperFunction,SMDPad,CuDef*%
%ADD21RoundRect,0.250000X-0.159099X0.724784X-0.724784X0.159099X0.159099X-0.724784X0.724784X-0.159099X0*%
%TD*%
%TA.AperFunction,SMDPad,CuDef*%
%ADD22RoundRect,0.250000X0.724784X0.159099X0.159099X0.724784X-0.724784X-0.159099X-0.159099X-0.724784X0*%
%TD*%
%TA.AperFunction,SMDPad,CuDef*%
%ADD23RoundRect,0.250000X-0.250000X-0.250000X0.250000X-0.250000X0.250000X0.250000X-0.250000X0.250000X0*%
%TD*%
%TA.AperFunction,SMDPad,CuDef*%
%ADD24RoundRect,0.250000X-0.337500X-0.475000X0.337500X-0.475000X0.337500X0.475000X-0.337500X0.475000X0*%
%TD*%
%TA.AperFunction,SMDPad,CuDef*%
%ADD25RoundRect,0.250000X0.574524X0.097227X0.097227X0.574524X-0.574524X-0.097227X-0.097227X-0.574524X0*%
%TD*%
%TA.AperFunction,SMDPad,CuDef*%
%ADD26RoundRect,0.250000X0.337500X0.475000X-0.337500X0.475000X-0.337500X-0.475000X0.337500X-0.475000X0*%
%TD*%
%TA.AperFunction,SMDPad,CuDef*%
%ADD27RoundRect,0.250000X0.425000X-0.537500X0.425000X0.537500X-0.425000X0.537500X-0.425000X-0.537500X0*%
%TD*%
%TA.AperFunction,SMDPad,CuDef*%
%ADD28RoundRect,0.250000X-0.425000X0.537500X-0.425000X-0.537500X0.425000X-0.537500X0.425000X0.537500X0*%
%TD*%
%TA.AperFunction,SMDPad,CuDef*%
%ADD29R,1.150000X0.600000*%
%TD*%
%TA.AperFunction,ComponentPad*%
%ADD30C,2.000000*%
%TD*%
%TA.AperFunction,ComponentPad*%
%ADD31R,2.000000X2.000000*%
%TD*%
%TA.AperFunction,ComponentPad*%
%ADD32RotRect,1.800000X1.800000X315.000000*%
%TD*%
%TA.AperFunction,ComponentPad*%
%ADD33R,1.308000X1.308000*%
%TD*%
%TA.AperFunction,ComponentPad*%
%ADD34C,1.308000*%
%TD*%
%TA.AperFunction,SMDPad,CuDef*%
%ADD35RoundRect,0.250000X0.325000X0.450000X-0.325000X0.450000X-0.325000X-0.450000X0.325000X-0.450000X0*%
%TD*%
%TA.AperFunction,SMDPad,CuDef*%
%ADD36R,3.500000X1.700000*%
%TD*%
%TA.AperFunction,ComponentPad*%
%ADD37O,1.700000X1.700000*%
%TD*%
%TA.AperFunction,ComponentPad*%
%ADD38R,1.700000X1.700000*%
%TD*%
%TA.AperFunction,SMDPad,CuDef*%
%ADD39R,1.700000X3.500000*%
%TD*%
%TA.AperFunction,SMDPad,CuDef*%
%ADD40RoundRect,0.155000X-0.040659X-0.259862X0.259862X0.040659X0.040659X0.259862X-0.259862X-0.040659X0*%
%TD*%
%TA.AperFunction,SMDPad,CuDef*%
%ADD41R,0.600000X1.150000*%
%TD*%
%TA.AperFunction,SMDPad,CuDef*%
%ADD42RoundRect,0.155000X-0.155000X0.212500X-0.155000X-0.212500X0.155000X-0.212500X0.155000X0.212500X0*%
%TD*%
%TA.AperFunction,SMDPad,CuDef*%
%ADD43RoundRect,0.250000X-0.475000X0.337500X-0.475000X-0.337500X0.475000X-0.337500X0.475000X0.337500X0*%
%TD*%
%TA.AperFunction,ComponentPad*%
%ADD44RoundRect,0.250000X-0.600000X-0.750000X0.600000X-0.750000X0.600000X0.750000X-0.600000X0.750000X0*%
%TD*%
%TA.AperFunction,ComponentPad*%
%ADD45O,1.700000X2.000000*%
%TD*%
%TA.AperFunction,ComponentPad*%
%ADD46RotRect,1.800000X1.800000X45.000000*%
%TD*%
%TA.AperFunction,SMDPad,CuDef*%
%ADD47RoundRect,0.155000X0.212500X0.155000X-0.212500X0.155000X-0.212500X-0.155000X0.212500X-0.155000X0*%
%TD*%
%TA.AperFunction,SMDPad,CuDef*%
%ADD48R,0.450000X1.750000*%
%TD*%
%TA.AperFunction,SMDPad,CuDef*%
%ADD49RoundRect,0.375000X-0.625000X-0.375000X0.625000X-0.375000X0.625000X0.375000X-0.625000X0.375000X0*%
%TD*%
%TA.AperFunction,SMDPad,CuDef*%
%ADD50RoundRect,0.500000X-0.500000X-1.400000X0.500000X-1.400000X0.500000X1.400000X-0.500000X1.400000X0*%
%TD*%
%TA.AperFunction,SMDPad,CuDef*%
%ADD51RoundRect,0.075000X-0.350000X-0.075000X0.350000X-0.075000X0.350000X0.075000X-0.350000X0.075000X0*%
%TD*%
%TA.AperFunction,SMDPad,CuDef*%
%ADD52RoundRect,0.075000X0.075000X-0.350000X0.075000X0.350000X-0.075000X0.350000X-0.075000X-0.350000X0*%
%TD*%
%TA.AperFunction,SMDPad,CuDef*%
%ADD53RoundRect,0.155000X0.155000X-0.212500X0.155000X0.212500X-0.155000X0.212500X-0.155000X-0.212500X0*%
%TD*%
%TA.AperFunction,ViaPad*%
%ADD54C,0.700000*%
%TD*%
%TA.AperFunction,ViaPad*%
%ADD55C,0.600000*%
%TD*%
%TA.AperFunction,Conductor*%
%ADD56C,0.300000*%
%TD*%
%TA.AperFunction,Conductor*%
%ADD57C,0.700000*%
%TD*%
%TA.AperFunction,Conductor*%
%ADD58C,0.500000*%
%TD*%
G04 APERTURE END LIST*
D10*
%TO.P,R9,1*%
%TO.N,diagonal_emitter*%
X147850000Y-64620000D03*
%TO.P,R9,2*%
%TO.N,GND*%
X147850000Y-69420000D03*
%TD*%
D11*
%TO.P,R13,1*%
%TO.N,LF_emitter*%
X122850000Y-90350000D03*
%TO.P,R13,2*%
%TO.N,GND*%
X118050000Y-90350000D03*
%TD*%
D12*
%TO.P,R11,1*%
%TO.N,Net-(D4-K)*%
X150780000Y-59035000D03*
%TO.P,R11,2*%
%TO.N,Net-(Q5-D)*%
X150780000Y-60230000D03*
%TD*%
%TO.P,R10,1*%
%TO.N,Net-(D4-K)*%
X148340000Y-58985000D03*
%TO.P,R10,2*%
%TO.N,Net-(Q5-D)*%
X148340000Y-60180000D03*
%TD*%
D11*
%TO.P,R8,1*%
%TO.N,RF_emitter*%
X173790000Y-70920000D03*
%TO.P,R8,2*%
%TO.N,GND*%
X168990000Y-70920000D03*
%TD*%
%TO.P,R7,2*%
%TO.N,GND*%
X172660000Y-144430000D03*
%TO.P,R7,1*%
%TO.N,buzzer*%
X177460000Y-144430000D03*
%TD*%
D13*
%TO.P,X2,6*%
%TO.N,/Mpow2B*%
X161575000Y-150275000D03*
%TO.P,X2,5*%
%TO.N,+3.3V*%
X163075000Y-150275000D03*
%TO.P,X2,4*%
%TO.N,/GPIO12*%
X164575000Y-150275000D03*
%TO.P,X2,3*%
%TO.N,/GPIO13*%
X166075000Y-150275000D03*
%TO.P,X2,2*%
%TO.N,GND*%
X167575000Y-150275000D03*
%TO.P,X2,1*%
%TO.N,/Mpow1B*%
X169075000Y-150275000D03*
%TD*%
%TO.P,X1,1*%
%TO.N,/Mpow1A*%
X140855000Y-149325000D03*
%TO.P,X1,2*%
%TO.N,GND*%
X142355000Y-149325000D03*
%TO.P,X1,3*%
%TO.N,/GPIO0*%
X143855000Y-149325000D03*
%TO.P,X1,4*%
%TO.N,/GPIO1*%
X145355000Y-149325000D03*
%TO.P,X1,5*%
%TO.N,+3.3V*%
X146855000Y-149325000D03*
%TO.P,X1,6*%
%TO.N,/Mpow2A*%
X148355000Y-149325000D03*
%TD*%
D14*
%TO.P,C14,1*%
%TO.N,GND*%
X115582500Y-86650000D03*
%TO.P,C14,2*%
%TO.N,+5V*%
X116717500Y-86650000D03*
%TD*%
D15*
%TO.P,D5,1,K*%
%TO.N,Net-(D5-K)*%
X114225000Y-80700000D03*
D16*
%TO.P,D5,2,A*%
%TO.N,+5V*%
X116765000Y-80700000D03*
%TD*%
D17*
%TO.P,R3,1*%
%TO.N,RF_Reciever*%
X178600000Y-81350000D03*
%TO.P,R3,2*%
%TO.N,GND*%
X178600000Y-84450000D03*
%TD*%
D18*
%TO.P,R12,1*%
%TO.N,Net-(Q2-D)*%
X112900000Y-95552500D03*
%TO.P,R12,2*%
%TO.N,Net-(D5-K)*%
X112900000Y-93552500D03*
%TD*%
D19*
%TO.P,R6,1*%
%TO.N,Net-(D2-K)*%
X188850000Y-93252500D03*
%TO.P,R6,2*%
%TO.N,Net-(Q4-D)*%
X188850000Y-95252500D03*
%TD*%
D20*
%TO.P,R5,1*%
%TO.N,LF_Reciever*%
X126350000Y-71250000D03*
%TO.P,R5,2*%
%TO.N,GND*%
X126350000Y-68150000D03*
%TD*%
D21*
%TO.P,R4,1*%
%TO.N,L_Reciever*%
X141496016Y-60803984D03*
%TO.P,R4,2*%
%TO.N,GND*%
X139303984Y-62996016D03*
%TD*%
D22*
%TO.P,R2,1*%
%TO.N,R_Reciever*%
X161900000Y-62900000D03*
%TO.P,R2,2*%
%TO.N,GND*%
X159707968Y-60707968D03*
%TD*%
D23*
%TO.P,D1,1,K*%
%TO.N,+3.3V*%
X180750000Y-146900000D03*
%TO.P,D1,2,A*%
%TO.N,Net-(BZ1--)*%
X183250000Y-146900000D03*
%TD*%
D24*
%TO.P,C13,1*%
%TO.N,GND*%
X115062500Y-85000000D03*
%TO.P,C13,2*%
%TO.N,+5V*%
X117137500Y-85000000D03*
%TD*%
D25*
%TO.P,C11,1*%
%TO.N,GND*%
X148550000Y-55150000D03*
%TO.P,C11,2*%
%TO.N,+5V*%
X147082754Y-53682754D03*
%TD*%
D26*
%TO.P,C9,1*%
%TO.N,GND*%
X186300000Y-84750000D03*
%TO.P,C9,2*%
%TO.N,+5V*%
X184225000Y-84750000D03*
%TD*%
D27*
%TO.P,C3,1*%
%TO.N,+5V*%
X175700000Y-133037500D03*
%TO.P,C3,2*%
%TO.N,GND*%
X175700000Y-130162500D03*
%TD*%
D28*
%TO.P,C1,2*%
%TO.N,GND*%
X173100000Y-137487500D03*
%TO.P,C1,1*%
%TO.N,+7.4V*%
X173100000Y-134612500D03*
%TD*%
D15*
%TO.P,Q1,1,C*%
%TO.N,+3.3V*%
X120025000Y-78200000D03*
D16*
%TO.P,Q1,2,E*%
%TO.N,LF_Reciever*%
X122565000Y-78200000D03*
%TD*%
D29*
%TO.P,Q4,1,G*%
%TO.N,RF_emitter*%
X184250000Y-94250000D03*
%TO.P,Q4,2,S*%
%TO.N,GND*%
X184250000Y-96150000D03*
%TO.P,Q4,3,D*%
%TO.N,Net-(Q4-D)*%
X186850000Y-95200000D03*
%TD*%
D12*
%TO.P,R1,1*%
%TO.N,+3.3V*%
X134900000Y-61505000D03*
%TO.P,R1,2*%
%TO.N,Net-(D6-A)*%
X134900000Y-62700000D03*
%TD*%
D30*
%TO.P,BZ1,2,-*%
%TO.N,Net-(BZ1--)*%
X187450000Y-139250000D03*
D31*
%TO.P,BZ1,1,+*%
%TO.N,+3.3V*%
X179850000Y-139250000D03*
%TD*%
D32*
%TO.P,Q7,1,C*%
%TO.N,+3.3V*%
X161903949Y-57503949D03*
D16*
%TO.P,Q7,2,E*%
%TO.N,R_Reciever*%
X163700000Y-59300000D03*
%TD*%
D33*
%TO.P,S1,1*%
%TO.N,unconnected-(S1-Pad1)*%
X116900000Y-135900000D03*
D34*
%TO.P,S1,2*%
%TO.N,Net-(J2-Pad1)*%
X116900000Y-137900000D03*
%TO.P,S1,3*%
%TO.N,+7.4V*%
X116900000Y-139900000D03*
%TO.P,S1,4*%
%TO.N,unconnected-(S1-Pad4)*%
X111900000Y-135900000D03*
%TO.P,S1,5*%
%TO.N,unconnected-(S1-Pad5)*%
X111900000Y-137900000D03*
%TO.P,S1,6*%
%TO.N,unconnected-(S1-Pad6)*%
X111900000Y-139900000D03*
%TD*%
D35*
%TO.P,D6,1,K*%
%TO.N,GND*%
X137000000Y-65900000D03*
%TO.P,D6,2,A*%
%TO.N,Net-(D6-A)*%
X134950000Y-65900000D03*
%TD*%
D14*
%TO.P,C15,1*%
%TO.N,+3.3V*%
X154115000Y-137550000D03*
%TO.P,C15,2*%
%TO.N,GND*%
X155250000Y-137550000D03*
%TD*%
D36*
%TO.P,U1,43,SWDIO*%
%TO.N,unconnected-(U1-SWDIO-Pad43)*%
X174950000Y-84670000D03*
D37*
X174050000Y-84670000D03*
D36*
%TO.P,U1,42,GND*%
%TO.N,unconnected-(U1-GND-Pad42)*%
X174950000Y-87210000D03*
D38*
X174050000Y-87210000D03*
D36*
%TO.P,U1,41,SWCLK*%
%TO.N,unconnected-(U1-SWCLK-Pad41)*%
X174950000Y-89750000D03*
D37*
X174050000Y-89750000D03*
D39*
%TO.P,U1,40,VBUS*%
%TO.N,unconnected-(U1-VBUS-Pad40)*%
X126020000Y-77420000D03*
D37*
X126020000Y-78320000D03*
D39*
%TO.P,U1,39,VSYS*%
%TO.N,+5V*%
X128560000Y-77420000D03*
D37*
X128560000Y-78320000D03*
D39*
%TO.P,U1,38,GND*%
%TO.N,unconnected-(U1-GND-Pad38)*%
X131100000Y-77420000D03*
D38*
X131100000Y-78320000D03*
D39*
%TO.P,U1,37,3V3_EN*%
%TO.N,unconnected-(U1-3V3_EN-Pad37)*%
X133640000Y-77420000D03*
D37*
X133640000Y-78320000D03*
D39*
%TO.P,U1,36,3V3*%
%TO.N,+3.3V*%
X136180000Y-77420000D03*
D37*
X136180000Y-78320000D03*
D39*
%TO.P,U1,35,ADC_VREF*%
%TO.N,unconnected-(U1-ADC_VREF-Pad35)*%
X138720000Y-77420000D03*
D37*
X138720000Y-78320000D03*
D39*
%TO.P,U1,34,GPIO28_ADC2*%
%TO.N,unconnected-(U1-GPIO28_ADC2-Pad34)*%
X141260000Y-77420000D03*
D37*
X141260000Y-78320000D03*
D39*
%TO.P,U1,33,AGND*%
%TO.N,unconnected-(U1-AGND-Pad33)*%
X143800000Y-77420000D03*
D38*
X143800000Y-78320000D03*
D39*
%TO.P,U1,32,GPIO27_ADC1*%
%TO.N,unconnected-(U1-GPIO27_ADC1-Pad32)*%
X146340000Y-77420000D03*
D37*
X146340000Y-78320000D03*
D39*
%TO.P,U1,31,GPIO26_ADC0*%
%TO.N,unconnected-(U1-GPIO26_ADC0-Pad31)*%
X148880000Y-77420000D03*
D37*
X148880000Y-78320000D03*
D39*
%TO.P,U1,30,RUN*%
%TO.N,unconnected-(U1-RUN-Pad30)*%
X151420000Y-77420000D03*
D37*
X151420000Y-78320000D03*
D39*
%TO.P,U1,29,GPIO22*%
%TO.N,LF_Reciever*%
X153960000Y-77420000D03*
D37*
X153960000Y-78320000D03*
D39*
%TO.P,U1,28,GND*%
%TO.N,GND*%
X156500000Y-77420000D03*
D38*
X156500000Y-78320000D03*
D39*
%TO.P,U1,27,GPIO21*%
%TO.N,LF_emitter*%
X159040000Y-77420000D03*
D37*
X159040000Y-78320000D03*
D39*
%TO.P,U1,26,GPIO20*%
%TO.N,L_Reciever*%
X161580000Y-77420000D03*
D37*
X161580000Y-78320000D03*
D39*
%TO.P,U1,25,GPIO19*%
%TO.N,diagonal_emitter*%
X164120000Y-77420000D03*
D37*
X164120000Y-78320000D03*
D39*
%TO.P,U1,24,GPIO18*%
%TO.N,R_Reciever*%
X166660000Y-77420000D03*
D37*
X166660000Y-78320000D03*
D39*
%TO.P,U1,23,GND*%
%TO.N,GND*%
X169200000Y-77420000D03*
D38*
X169200000Y-78320000D03*
D39*
%TO.P,U1,22,GPIO17*%
%TO.N,RF_emitter*%
X171740000Y-77420000D03*
D37*
X171740000Y-78320000D03*
D39*
%TO.P,U1,21,GPIO16*%
%TO.N,RF_Reciever*%
X174280000Y-77420000D03*
D37*
X174280000Y-78320000D03*
D39*
%TO.P,U1,20,GPIO15*%
%TO.N,buzzer*%
X174280000Y-97000000D03*
D37*
X174280000Y-96100000D03*
D39*
%TO.P,U1,19,GPIO14*%
%TO.N,unconnected-(U1-GPIO14-Pad19)*%
X171740000Y-97000000D03*
D37*
X171740000Y-96100000D03*
D39*
%TO.P,U1,18,GND*%
%TO.N,GND*%
X169200000Y-97000000D03*
D38*
X169200000Y-96100000D03*
D39*
%TO.P,U1,17,GPIO13*%
%TO.N,/GPIO13*%
X166660000Y-97000000D03*
D37*
X166660000Y-96100000D03*
D39*
%TO.P,U1,16,GPIO12*%
%TO.N,/GPIO12*%
X164120000Y-97000000D03*
D37*
X164120000Y-96100000D03*
D39*
%TO.P,U1,15,GPIO11*%
%TO.N,/IMU_SCL*%
X161580000Y-97000000D03*
D37*
X161580000Y-96100000D03*
D39*
%TO.P,U1,14,GPIO10*%
%TO.N,/IMU_SDA*%
X159040000Y-97000000D03*
D37*
X159040000Y-96100000D03*
D39*
%TO.P,U1,13,GND*%
%TO.N,GND*%
X156500000Y-97000000D03*
D38*
X156500000Y-96100000D03*
D39*
%TO.P,U1,12,GPIO9*%
%TO.N,/IMU_INT*%
X153960000Y-97000000D03*
D37*
X153960000Y-96100000D03*
D39*
%TO.P,U1,11,GPIO8*%
%TO.N,/GPIO8*%
X151420000Y-97000000D03*
D37*
X151420000Y-96100000D03*
D39*
%TO.P,U1,10,GPIO7*%
%TO.N,/GPIO7*%
X148880000Y-97000000D03*
D37*
X148880000Y-96100000D03*
D39*
%TO.P,U1,9,GPIO6*%
%TO.N,/GPIO6*%
X146340000Y-97000000D03*
D37*
X146340000Y-96100000D03*
D39*
%TO.P,U1,8,GND*%
%TO.N,GND*%
X143800000Y-97000000D03*
D38*
X143800000Y-96100000D03*
D39*
%TO.P,U1,7,GPIO5*%
%TO.N,/GPIO5*%
X141260000Y-97000000D03*
D37*
X141260000Y-96100000D03*
D39*
%TO.P,U1,6,GPIO4*%
%TO.N,/GPIO4*%
X138720000Y-97000000D03*
D37*
X138720000Y-96100000D03*
D39*
%TO.P,U1,5,GPIO3*%
%TO.N,/GPIO3*%
X136180000Y-97000000D03*
D37*
X136180000Y-96100000D03*
D39*
%TO.P,U1,4,GPIO2*%
%TO.N,/GPIO2*%
X133640000Y-97000000D03*
D37*
X133640000Y-96100000D03*
D39*
%TO.P,U1,3,GND*%
%TO.N,GND*%
X131100000Y-97000000D03*
D38*
X131100000Y-96100000D03*
D39*
%TO.P,U1,2,GPIO1*%
%TO.N,/GPIO1*%
X128560000Y-97000000D03*
D37*
X128560000Y-96100000D03*
D39*
%TO.P,U1,1,GPIO0*%
%TO.N,/GPIO0*%
X126020000Y-97000000D03*
D37*
X126020000Y-96100000D03*
%TD*%
D40*
%TO.P,C12,1*%
%TO.N,GND*%
X151397434Y-56152566D03*
%TO.P,C12,2*%
%TO.N,+5V*%
X152200000Y-55350000D03*
%TD*%
D41*
%TO.P,Q8,3,D*%
%TO.N,Net-(BZ1--)*%
X175900000Y-149550000D03*
%TO.P,Q8,2,S*%
%TO.N,GND*%
X174950000Y-146950000D03*
%TO.P,Q8,1,G*%
%TO.N,buzzer*%
X176850000Y-146950000D03*
%TD*%
D26*
%TO.P,C7,1*%
%TO.N,GND*%
X142900000Y-143400000D03*
%TO.P,C7,2*%
%TO.N,+5V*%
X140825000Y-143400000D03*
%TD*%
D42*
%TO.P,C4,1*%
%TO.N,GND*%
X177550000Y-132350000D03*
%TO.P,C4,2*%
%TO.N,+5V*%
X177550000Y-133485000D03*
%TD*%
D43*
%TO.P,C17,1*%
%TO.N,+3.3V*%
X149200000Y-141875000D03*
%TO.P,C17,2*%
%TO.N,GND*%
X149200000Y-143950000D03*
%TD*%
D41*
%TO.P,Q5,1,G*%
%TO.N,diagonal_emitter*%
X154220000Y-67480000D03*
%TO.P,Q5,2,S*%
%TO.N,GND*%
X156120000Y-67480000D03*
%TO.P,Q5,3,D*%
%TO.N,Net-(Q5-D)*%
X155170000Y-64880000D03*
%TD*%
D44*
%TO.P,J1,1,1*%
%TO.N,Net-(J1-Pad1)*%
X122000000Y-135500000D03*
D45*
%TO.P,J1,2,2*%
%TO.N,GND*%
X124500000Y-135500000D03*
%TD*%
D24*
%TO.P,C18,1*%
%TO.N,/IMU_CPOUT*%
X154547500Y-135400000D03*
%TO.P,C18,2*%
%TO.N,GND*%
X156622500Y-135400000D03*
%TD*%
D46*
%TO.P,Q6,1,C*%
%TO.N,+3.3V*%
X136600000Y-59500000D03*
D16*
%TO.P,Q6,2,E*%
%TO.N,L_Reciever*%
X138396051Y-57703949D03*
%TD*%
D29*
%TO.P,Q2,1,G*%
%TO.N,LF_emitter*%
X118250000Y-96100000D03*
%TO.P,Q2,2,S*%
%TO.N,GND*%
X118250000Y-94200000D03*
%TO.P,Q2,3,D*%
%TO.N,Net-(Q2-D)*%
X115650000Y-95150000D03*
%TD*%
D47*
%TO.P,C10,1*%
%TO.N,GND*%
X185400000Y-86350000D03*
%TO.P,C10,2*%
%TO.N,+5V*%
X184265000Y-86350000D03*
%TD*%
D48*
%TO.P,U2,1,AO1*%
%TO.N,/Mpow1A*%
X163950000Y-141550000D03*
%TO.P,U2,2,AO1*%
X164600000Y-141550000D03*
%TO.P,U2,3,PGND1*%
%TO.N,GND*%
X165250000Y-141550000D03*
%TO.P,U2,4,PGND1*%
X165900000Y-141550000D03*
%TO.P,U2,5,AO2*%
%TO.N,/Mpow2A*%
X166550000Y-141550000D03*
%TO.P,U2,6,AO2*%
X167200000Y-141550000D03*
%TO.P,U2,7,BO2*%
%TO.N,/Mpow2B*%
X167850000Y-141550000D03*
%TO.P,U2,8,BO2*%
X168500000Y-141550000D03*
%TO.P,U2,9,PGND2*%
%TO.N,GND*%
X169150000Y-141550000D03*
%TO.P,U2,10,PGND2*%
X169800000Y-141550000D03*
%TO.P,U2,11,BO1*%
%TO.N,/Mpow1B*%
X170450000Y-141550000D03*
%TO.P,U2,12,BO1*%
X171100000Y-141550000D03*
%TO.P,U2,13,VM2*%
%TO.N,+7.4V*%
X171100000Y-134350000D03*
%TO.P,U2,14,VM3*%
X170450000Y-134350000D03*
%TO.P,U2,15,PWMB*%
%TO.N,/GPIO8*%
X169800000Y-134350000D03*
%TO.P,U2,16,BIN2*%
%TO.N,/GPIO7*%
X169150000Y-134350000D03*
%TO.P,U2,17,BIN1*%
%TO.N,/GPIO6*%
X168500000Y-134350000D03*
%TO.P,U2,18,GND*%
%TO.N,GND*%
X167850000Y-134350000D03*
%TO.P,U2,19,STBY*%
%TO.N,/GPIO5*%
X167200000Y-134350000D03*
%TO.P,U2,20,VCC*%
%TO.N,+5V*%
X166550000Y-134350000D03*
%TO.P,U2,21,AIN1*%
%TO.N,/GPIO4*%
X165900000Y-134350000D03*
%TO.P,U2,22,AIN2*%
%TO.N,/GPIO3*%
X165250000Y-134350000D03*
%TO.P,U2,23,PWMA*%
%TO.N,/GPIO2*%
X164600000Y-134350000D03*
%TO.P,U2,24,VM1*%
%TO.N,+7.4V*%
X163950000Y-134350000D03*
%TD*%
D24*
%TO.P,C16,1*%
%TO.N,/IMU_REGOUT*%
X151125000Y-142150000D03*
%TO.P,C16,2*%
%TO.N,GND*%
X153200000Y-142150000D03*
%TD*%
D32*
%TO.P,D4,1,K*%
%TO.N,Net-(D4-K)*%
X155125000Y-56000000D03*
D16*
%TO.P,D4,2,A*%
%TO.N,Net-(D3-K)*%
X156921051Y-57796051D03*
%TD*%
D49*
%TO.P,U4,1,GND*%
%TO.N,GND*%
X131725000Y-139490000D03*
%TO.P,U4,2,VO*%
%TO.N,+5V*%
X131725000Y-141790000D03*
D50*
X138025000Y-141790000D03*
D49*
%TO.P,U4,3,VI*%
%TO.N,+7.4V*%
X131725000Y-144090000D03*
%TD*%
D51*
%TO.P,U3,1,CLKIN*%
%TO.N,GND*%
X148650000Y-135800000D03*
%TO.P,U3,2,NC*%
%TO.N,unconnected-(U3-NC-Pad2)*%
X148650000Y-136300000D03*
%TO.P,U3,3,NC*%
%TO.N,unconnected-(U3-NC-Pad3)*%
X148650000Y-136800000D03*
%TO.P,U3,4,NC*%
%TO.N,unconnected-(U3-NC-Pad4)*%
X148650000Y-137300000D03*
%TO.P,U3,5,NC*%
%TO.N,unconnected-(U3-NC-Pad5)*%
X148650000Y-137800000D03*
%TO.P,U3,6,AUX_DA*%
%TO.N,unconnected-(U3-AUX_DA-Pad6)*%
X148650000Y-138300000D03*
D52*
%TO.P,U3,7,AUX_CL*%
%TO.N,unconnected-(U3-AUX_CL-Pad7)*%
X149350000Y-139000000D03*
%TO.P,U3,8,VLOGIC*%
%TO.N,+3.3V*%
X149850000Y-139000000D03*
%TO.P,U3,9,AD0*%
%TO.N,GND*%
X150350000Y-139000000D03*
%TO.P,U3,10,REGOUT*%
%TO.N,/IMU_REGOUT*%
X150850000Y-139000000D03*
%TO.P,U3,11,FSYNC*%
%TO.N,GND*%
X151350000Y-139000000D03*
%TO.P,U3,12,INT*%
%TO.N,/IMU_INT*%
X151850000Y-139000000D03*
D51*
%TO.P,U3,13,VDD*%
%TO.N,+3.3V*%
X152550000Y-138300000D03*
%TO.P,U3,14,NC*%
%TO.N,unconnected-(U3-NC-Pad14)*%
X152550000Y-137800000D03*
%TO.P,U3,15,NC*%
%TO.N,unconnected-(U3-NC-Pad15)*%
X152550000Y-137300000D03*
%TO.P,U3,16,NC*%
%TO.N,unconnected-(U3-NC-Pad16)*%
X152550000Y-136800000D03*
%TO.P,U3,17,NC*%
%TO.N,unconnected-(U3-NC-Pad17)*%
X152550000Y-136300000D03*
%TO.P,U3,18,GND*%
%TO.N,GND*%
X152550000Y-135800000D03*
D52*
%TO.P,U3,19,RESV*%
%TO.N,unconnected-(U3-RESV-Pad19)*%
X151850000Y-135100000D03*
%TO.P,U3,20,CPOUT*%
%TO.N,/IMU_CPOUT*%
X151350000Y-135100000D03*
%TO.P,U3,21,RESV*%
%TO.N,unconnected-(U3-RESV-Pad21)*%
X150850000Y-135100000D03*
%TO.P,U3,22,RESV*%
%TO.N,unconnected-(U3-RESV-Pad22)*%
X150350000Y-135100000D03*
%TO.P,U3,23,SCL*%
%TO.N,/IMU_SCL*%
X149850000Y-135100000D03*
%TO.P,U3,24,SDA*%
%TO.N,/IMU_SDA*%
X149350000Y-135100000D03*
%TD*%
D53*
%TO.P,C2,1*%
%TO.N,GND*%
X174800000Y-136650000D03*
%TO.P,C2,2*%
%TO.N,+7.4V*%
X174800000Y-135515000D03*
%TD*%
D24*
%TO.P,C5,1*%
%TO.N,+7.4V*%
X131787500Y-147890000D03*
%TO.P,C5,2*%
%TO.N,GND*%
X133862500Y-147890000D03*
%TD*%
D44*
%TO.P,J2,1,1*%
%TO.N,Net-(J2-Pad1)*%
X122200000Y-146100000D03*
D45*
%TO.P,J2,2,2*%
%TO.N,Net-(J1-Pad1)*%
X124700000Y-146100000D03*
%TD*%
D24*
%TO.P,C6,1*%
%TO.N,+7.4V*%
X131750000Y-150390000D03*
%TO.P,C6,2*%
%TO.N,GND*%
X133825000Y-150390000D03*
%TD*%
D26*
%TO.P,C8,1*%
%TO.N,GND*%
X142900000Y-140390000D03*
%TO.P,C8,2*%
%TO.N,+5V*%
X140825000Y-140390000D03*
%TD*%
D46*
%TO.P,D3,1,K*%
%TO.N,Net-(D3-K)*%
X143200000Y-57800000D03*
D16*
%TO.P,D3,2,A*%
%TO.N,+5V*%
X144996051Y-56003949D03*
%TD*%
D15*
%TO.P,D2,1,K*%
%TO.N,Net-(D2-K)*%
X185800000Y-80400000D03*
D16*
%TO.P,D2,2,A*%
%TO.N,+5V*%
X183260000Y-80400000D03*
%TD*%
D15*
%TO.P,Q3,1,C*%
%TO.N,+3.3V*%
X180000000Y-78200000D03*
D16*
%TO.P,Q3,2,E*%
%TO.N,RF_Reciever*%
X177460000Y-78200000D03*
%TD*%
D54*
%TO.N,GND*%
X184150000Y-97420000D03*
X183010000Y-96280000D03*
X173450000Y-146370000D03*
X173430000Y-142450000D03*
X172670000Y-142440000D03*
X113750000Y-85690000D03*
X113780000Y-84770000D03*
X115580000Y-87570000D03*
X119490000Y-94600000D03*
X119520000Y-93790000D03*
X116590000Y-91720000D03*
X116570000Y-90820000D03*
X116590000Y-90020000D03*
X116590000Y-89190000D03*
X157380000Y-68530000D03*
X157440000Y-67710000D03*
X157420000Y-66870000D03*
X149900000Y-68680000D03*
X149420000Y-70840000D03*
X148450000Y-70840000D03*
X149920000Y-69610000D03*
%TO.N,+3.3V*%
X147075000Y-147500000D03*
%TO.N,/GPIO1*%
X146050000Y-147425000D03*
D55*
%TO.N,/GPIO0*%
X145050000Y-147375000D03*
D54*
%TO.N,GND*%
X177200000Y-130800000D03*
X177200000Y-129850000D03*
X186400000Y-86300000D03*
X130800000Y-137500000D03*
X158200000Y-61350000D03*
X158750000Y-61850000D03*
X150250000Y-56400000D03*
X149900000Y-55600000D03*
X149400000Y-56200000D03*
X138100000Y-63750000D03*
X137500000Y-64350000D03*
X126850000Y-66650000D03*
X125750000Y-66700000D03*
X177300000Y-85800000D03*
D55*
%TO.N,+3.3V*%
X176600000Y-93150000D03*
X147150000Y-141850000D03*
D54*
X155100000Y-138850000D03*
D55*
X134300000Y-82500000D03*
%TO.N,+7.4V*%
X164700000Y-138300000D03*
X166900000Y-137150000D03*
X164950000Y-136050000D03*
X167100000Y-136050000D03*
D54*
%TO.N,GND*%
X147500000Y-135650000D03*
D55*
X174400000Y-137500000D03*
D54*
X154450000Y-141700000D03*
X150650000Y-144400000D03*
X154500000Y-142650000D03*
X143350000Y-141850000D03*
D55*
X169500000Y-143000000D03*
X175200000Y-137500000D03*
D54*
X132600000Y-137600000D03*
X156300000Y-137550000D03*
D55*
X185450000Y-87200000D03*
D54*
X157100000Y-134000000D03*
D55*
X134200000Y-149200000D03*
X133550000Y-149150000D03*
D54*
X150100000Y-140350000D03*
X156350000Y-134000000D03*
D55*
X169500000Y-140000000D03*
X165000000Y-143000000D03*
D54*
X150650000Y-143650000D03*
X142450000Y-141850000D03*
D55*
X138750000Y-64850000D03*
X153650000Y-140650000D03*
X167850000Y-132650000D03*
D54*
X156550000Y-136850000D03*
D55*
X165500000Y-140000000D03*
%TO.N,+5V*%
X174950000Y-111050000D03*
X144800000Y-132550000D03*
X141650000Y-135750000D03*
X180050000Y-105050000D03*
%TO.N,Net-(J1-Pad1)*%
X127250000Y-141300000D03*
X128300000Y-144700000D03*
%TO.N,LF_emitter*%
X142200000Y-90050000D03*
X140850000Y-91450000D03*
%TO.N,RF_emitter*%
X173000000Y-93150000D03*
X180560000Y-94460000D03*
%TO.N,/IMU_SDA*%
X149550000Y-132400000D03*
%TO.N,/IMU_INT*%
X148150000Y-131800000D03*
%TO.N,/GPIO0*%
X145100000Y-144500000D03*
%TO.N,/IMU_SCL*%
X151550000Y-132850000D03*
%TO.N,/GPIO1*%
X146050000Y-144550000D03*
%TD*%
D56*
%TO.N,RF_emitter*%
X180770000Y-94250000D02*
X184250000Y-94250000D01*
X180560000Y-94460000D02*
X180770000Y-94250000D01*
%TO.N,buzzer*%
X177460000Y-143540000D02*
X177460000Y-144430000D01*
X176850000Y-142930000D02*
X177460000Y-143540000D01*
X176850000Y-138750000D02*
X176850000Y-142930000D01*
X179200000Y-136400000D02*
X176850000Y-138750000D01*
X179200000Y-128350000D02*
X179200000Y-136400000D01*
X176600000Y-125750000D02*
X179200000Y-128350000D01*
X176600000Y-102800000D02*
X176600000Y-125750000D01*
X174280000Y-100480000D02*
X176600000Y-102800000D01*
X174280000Y-96100000D02*
X174280000Y-100480000D01*
D57*
X177460000Y-146340000D02*
X176850000Y-146950000D01*
X177460000Y-144430000D02*
X177460000Y-146340000D01*
D58*
%TO.N,LF_emitter*%
X143700000Y-88550000D02*
X142200000Y-90050000D01*
X150990000Y-88540000D02*
X143700000Y-88540000D01*
X159040000Y-80490000D02*
X150990000Y-88540000D01*
X159040000Y-78320000D02*
X159040000Y-80490000D01*
X143700000Y-88540000D02*
X143700000Y-88550000D01*
D57*
X140060000Y-92240000D02*
X140850000Y-91450000D01*
X122850000Y-92240000D02*
X140060000Y-92240000D01*
X122850000Y-92240000D02*
X122850000Y-90350000D01*
X122850000Y-94200000D02*
X122850000Y-92240000D01*
X118250000Y-96100000D02*
X120950000Y-96100000D01*
X120950000Y-96100000D02*
X122850000Y-94200000D01*
%TO.N,RF_emitter*%
X171740000Y-74370000D02*
X171740000Y-78320000D01*
X173790000Y-72320000D02*
X171740000Y-74370000D01*
X173790000Y-70920000D02*
X173790000Y-72320000D01*
%TO.N,GND*%
X168990000Y-78110000D02*
X169200000Y-78320000D01*
X168990000Y-70920000D02*
X168990000Y-78110000D01*
%TO.N,diagonal_emitter*%
X160640000Y-72780000D02*
X164120000Y-76260000D01*
X159520000Y-72780000D02*
X160640000Y-72780000D01*
X154220000Y-67480000D02*
X159520000Y-72780000D01*
X164120000Y-76260000D02*
X164120000Y-78320000D01*
X153170000Y-67480000D02*
X154220000Y-67480000D01*
X147850000Y-64620000D02*
X150310000Y-64620000D01*
X150310000Y-64620000D02*
X153170000Y-67480000D01*
D58*
%TO.N,Net-(Q5-D)*%
X154390000Y-64880000D02*
X155170000Y-64880000D01*
X150780000Y-61270000D02*
X154390000Y-64880000D01*
X150780000Y-60230000D02*
X150780000Y-61270000D01*
D57*
%TO.N,Net-(D4-K)*%
X153815000Y-56000000D02*
X150780000Y-59035000D01*
X155125000Y-56000000D02*
X153815000Y-56000000D01*
D58*
%TO.N,Net-(Q5-D)*%
X150730000Y-60180000D02*
X150780000Y-60230000D01*
X148340000Y-60180000D02*
X150730000Y-60180000D01*
%TO.N,Net-(D4-K)*%
X150730000Y-58985000D02*
X150780000Y-59035000D01*
X148340000Y-58985000D02*
X150730000Y-58985000D01*
D57*
%TO.N,+3.3V*%
X180150000Y-127850000D02*
X178600000Y-126300000D01*
X179850000Y-137350000D02*
X180150000Y-137050000D01*
X180150000Y-137050000D02*
X180150000Y-127850000D01*
X179850000Y-139250000D02*
X179850000Y-137350000D01*
D58*
X170200000Y-151650000D02*
X162300000Y-151650000D01*
X178075000Y-148175000D02*
X173675000Y-148175000D01*
X173675000Y-148175000D02*
X170200000Y-151650000D01*
X180750000Y-146900000D02*
X179350000Y-146900000D01*
X179350000Y-146900000D02*
X178075000Y-148175000D01*
X162400000Y-151650000D02*
X162750000Y-151300000D01*
X162750000Y-151300000D02*
X163125000Y-150925000D01*
X163150000Y-150350000D02*
X163075000Y-150275000D01*
X163150000Y-150925000D02*
X163150000Y-150350000D01*
X163125000Y-150925000D02*
X163150000Y-150925000D01*
X146855000Y-149325000D02*
X146855000Y-150530000D01*
X146855000Y-150530000D02*
X147975000Y-151650000D01*
X147975000Y-151650000D02*
X162400000Y-151650000D01*
D57*
%TO.N,/Mpow1B*%
X171100000Y-148250000D02*
X171100000Y-141550000D01*
X169075000Y-150275000D02*
X171100000Y-148250000D01*
%TO.N,/Mpow2B*%
X161575000Y-149497183D02*
X168225000Y-142847183D01*
X168225000Y-142847183D02*
X168375000Y-142847183D01*
X161575000Y-150275000D02*
X161575000Y-149497183D01*
%TO.N,/Mpow1A*%
X163950000Y-142050000D02*
X163950000Y-141550000D01*
X155500000Y-146500000D02*
X156500000Y-145500000D01*
X142611091Y-146500000D02*
X155500000Y-146500000D01*
X156500000Y-145500000D02*
X160500000Y-145500000D01*
X160500000Y-145500000D02*
X163950000Y-142050000D01*
X140855000Y-148256091D02*
X142611091Y-146500000D01*
X140855000Y-149325000D02*
X140855000Y-148256091D01*
%TO.N,+7.4V*%
X153475000Y-144175000D02*
X158825000Y-144175000D01*
X152050000Y-145600000D02*
X153475000Y-144175000D01*
X158825000Y-144175000D02*
X164700000Y-138300000D01*
X136600000Y-145600000D02*
X152050000Y-145600000D01*
X131725000Y-144090000D02*
X135090000Y-144090000D01*
X135090000Y-144090000D02*
X136600000Y-145600000D01*
D58*
%TO.N,+3.3V*%
X147100000Y-147525000D02*
X147075000Y-147500000D01*
X147100000Y-148175000D02*
X147100000Y-147525000D01*
%TO.N,/GPIO1*%
X146050000Y-147900000D02*
X146050000Y-147425000D01*
X145875000Y-148075000D02*
X146050000Y-147900000D01*
D57*
%TO.N,/Mpow2A*%
X154800000Y-150200000D02*
X149230000Y-150200000D01*
X149230000Y-150200000D02*
X148355000Y-149325000D01*
D58*
%TO.N,/GPIO0*%
X145050000Y-147625000D02*
X145050000Y-147375000D01*
X143855000Y-149325000D02*
X143855000Y-148820000D01*
X143855000Y-148820000D02*
X145050000Y-147625000D01*
%TO.N,+3.3V*%
X146855000Y-148420000D02*
X147100000Y-148175000D01*
X146855000Y-149325000D02*
X146855000Y-148420000D01*
%TO.N,/GPIO1*%
X145355000Y-148595000D02*
X145875000Y-148075000D01*
X145355000Y-149325000D02*
X145355000Y-148595000D01*
D57*
%TO.N,+5V*%
X178450000Y-93550000D02*
X184265000Y-87735000D01*
X180150000Y-101650000D02*
X178450000Y-99950000D01*
X180150000Y-104950000D02*
X180150000Y-101650000D01*
X184265000Y-87735000D02*
X184265000Y-86350000D01*
X180050000Y-105050000D02*
X180150000Y-104950000D01*
X178450000Y-99950000D02*
X178450000Y-93550000D01*
X177550000Y-136800000D02*
X177550000Y-133485000D01*
X175300000Y-139050000D02*
X177550000Y-136800000D01*
X176765000Y-133485000D02*
X177550000Y-133485000D01*
X176750000Y-133500000D02*
X176765000Y-133485000D01*
X176287500Y-133037500D02*
X176750000Y-133500000D01*
X175700000Y-133037500D02*
X176287500Y-133037500D01*
X174437500Y-133037500D02*
X175700000Y-133037500D01*
X174050000Y-128950000D02*
X174050000Y-132650000D01*
X174050000Y-132650000D02*
X174437500Y-133037500D01*
X174950000Y-111050000D02*
X174950000Y-128050000D01*
X174950000Y-128050000D02*
X174050000Y-128950000D01*
%TO.N,+3.3V*%
X179850000Y-143150000D02*
X179850000Y-139250000D01*
X180975000Y-144275000D02*
X179850000Y-143150000D01*
%TO.N,Net-(BZ1--)*%
X183025000Y-143675000D02*
X187450000Y-139250000D01*
X183025000Y-146900000D02*
X183025000Y-143675000D01*
%TO.N,+5V*%
X165200000Y-137150000D02*
X164925000Y-137150000D01*
X175300000Y-139050000D02*
X167100000Y-139050000D01*
X167100000Y-139050000D02*
X165200000Y-137150000D01*
%TO.N,R_Reciever*%
X161900000Y-61100000D02*
X163700000Y-59300000D01*
X161900000Y-62900000D02*
X161900000Y-61100000D01*
X166660000Y-67660000D02*
X166660000Y-78320000D01*
X161900000Y-62900000D02*
X166660000Y-67660000D01*
D58*
%TO.N,+5V*%
X163700000Y-54850000D02*
X183260000Y-74410000D01*
X183260000Y-74410000D02*
X183260000Y-80400000D01*
X154550000Y-53000000D02*
X159450000Y-53000000D01*
X159450000Y-53000000D02*
X161300000Y-54850000D01*
X161300000Y-54850000D02*
X163700000Y-54850000D01*
X152200000Y-55350000D02*
X154550000Y-53000000D01*
X149650000Y-52800000D02*
X152200000Y-55350000D01*
X147965508Y-52800000D02*
X149650000Y-52800000D01*
X147082754Y-53682754D02*
X147965508Y-52800000D01*
X144996051Y-55769457D02*
X147082754Y-53682754D01*
X144996051Y-56003949D02*
X144996051Y-55769457D01*
X143992102Y-55000000D02*
X144996051Y-56003949D01*
D57*
%TO.N,L_Reciever*%
X149350000Y-74400000D02*
X159750000Y-74400000D01*
X161580000Y-76230000D02*
X161580000Y-78320000D01*
X159750000Y-74400000D02*
X161580000Y-76230000D01*
X143950000Y-69000000D02*
X149350000Y-74400000D01*
X141496016Y-60803984D02*
X143950000Y-63257968D01*
X143950000Y-63257968D02*
X143950000Y-69000000D01*
X138396051Y-57704019D02*
X141496016Y-60803984D01*
X138396051Y-57703949D02*
X138396051Y-57704019D01*
%TO.N,LF_Reciever*%
X124850000Y-71250000D02*
X122565000Y-73535000D01*
X126350000Y-71250000D02*
X124850000Y-71250000D01*
X122565000Y-73535000D02*
X122565000Y-78200000D01*
D58*
%TO.N,RF_Reciever*%
X177460000Y-80210000D02*
X178600000Y-81350000D01*
X177460000Y-78200000D02*
X177460000Y-80210000D01*
D57*
%TO.N,GND*%
X178600000Y-84500000D02*
X177300000Y-85800000D01*
X178600000Y-84450000D02*
X178600000Y-84500000D01*
D58*
%TO.N,+3.3V*%
X178600000Y-102700000D02*
X178600000Y-126300000D01*
D56*
X134900000Y-61505000D02*
X133795000Y-61505000D01*
D58*
X175250000Y-94050000D02*
X177350000Y-96150000D01*
D56*
X147150000Y-140800000D02*
X147150000Y-141850000D01*
X134900000Y-61505000D02*
X134900000Y-61200000D01*
D58*
X136180000Y-85130000D02*
X145100000Y-94050000D01*
D56*
X132600000Y-69950000D02*
X136180000Y-73530000D01*
X132600000Y-62700000D02*
X132600000Y-69950000D01*
X147750000Y-140200000D02*
X147150000Y-140800000D01*
D58*
X136180000Y-79450000D02*
X136180000Y-85130000D01*
D56*
X149850000Y-139000000D02*
X149850000Y-139528120D01*
X154115000Y-137865000D02*
X155100000Y-138850000D01*
X152550000Y-138300000D02*
X153365000Y-138300000D01*
X134900000Y-61200000D02*
X136600000Y-59500000D01*
D58*
X177350000Y-101450000D02*
X178600000Y-102700000D01*
D56*
X147150000Y-141850000D02*
X149175000Y-141850000D01*
D58*
X175000000Y-94050000D02*
X175250000Y-94050000D01*
D56*
X133795000Y-61505000D02*
X132600000Y-62700000D01*
X149175000Y-141850000D02*
X149200000Y-141875000D01*
X136180000Y-73530000D02*
X136180000Y-78320000D01*
X149178120Y-140200000D02*
X147750000Y-140200000D01*
D57*
X175900000Y-93150000D02*
X175000000Y-94050000D01*
D56*
X149850000Y-139528120D02*
X149178120Y-140200000D01*
D58*
X145100000Y-94050000D02*
X175000000Y-94050000D01*
D57*
X180975000Y-144275000D02*
X180975000Y-146900000D01*
D58*
X136180000Y-80620000D02*
X136180000Y-79450000D01*
D56*
X153365000Y-138300000D02*
X154115000Y-137550000D01*
D57*
X176600000Y-93150000D02*
X175900000Y-93150000D01*
D58*
X136180000Y-78320000D02*
X136180000Y-79450000D01*
X134300000Y-82500000D02*
X136180000Y-80620000D01*
D56*
X154115000Y-137550000D02*
X154115000Y-137865000D01*
D58*
X177350000Y-96150000D02*
X177350000Y-101450000D01*
D56*
%TO.N,Net-(BZ1--)*%
X175900000Y-149550000D02*
X181450000Y-149550000D01*
X181450000Y-149550000D02*
X183025000Y-147975000D01*
X183025000Y-147975000D02*
X183025000Y-146900000D01*
D57*
%TO.N,+7.4V*%
X119350000Y-142350000D02*
X128050000Y-142350000D01*
X166900000Y-137150000D02*
X168000000Y-136050000D01*
D56*
X169250000Y-136050000D02*
X169925000Y-136050000D01*
X169925000Y-136050000D02*
X170450000Y-135525000D01*
X164475000Y-136050000D02*
X164950000Y-136050000D01*
D57*
X168000000Y-136050000D02*
X169250000Y-136050000D01*
D56*
X170450000Y-135525000D02*
X170450000Y-134350000D01*
X167100000Y-136050000D02*
X169250000Y-136050000D01*
X163950000Y-135525000D02*
X164475000Y-136050000D01*
D57*
X116900000Y-139900000D02*
X119350000Y-142350000D01*
X128050000Y-142350000D02*
X129790000Y-144090000D01*
X129790000Y-144090000D02*
X131725000Y-144090000D01*
D56*
X163950000Y-134350000D02*
X163950000Y-135525000D01*
%TO.N,GND*%
X165900000Y-140400000D02*
X165500000Y-140000000D01*
X169150000Y-141550000D02*
X169150000Y-142650000D01*
X152550000Y-135800000D02*
X153078120Y-135800000D01*
X169800000Y-140300000D02*
X169500000Y-140000000D01*
X139977504Y-62922496D02*
X137000000Y-65900000D01*
X169150000Y-142650000D02*
X169500000Y-143000000D01*
X147650000Y-135800000D02*
X147500000Y-135650000D01*
X150350000Y-139000000D02*
X150350000Y-140100000D01*
D58*
X185400000Y-86200000D02*
X185500000Y-86300000D01*
D56*
X165250000Y-141550000D02*
X165250000Y-142750000D01*
X155050000Y-136700000D02*
X155250000Y-136900000D01*
X148650000Y-135800000D02*
X147650000Y-135800000D01*
X169800000Y-141550000D02*
X169800000Y-140300000D01*
X165250000Y-142750000D02*
X165000000Y-143000000D01*
X151350000Y-139528120D02*
X152471880Y-140650000D01*
X153078120Y-135800000D02*
X153978120Y-136700000D01*
X165900000Y-141550000D02*
X165900000Y-140400000D01*
X155250000Y-136900000D02*
X155250000Y-137550000D01*
X153978120Y-136700000D02*
X155050000Y-136700000D01*
X167850000Y-134350000D02*
X167850000Y-132650000D01*
X151350000Y-139000000D02*
X151350000Y-139528120D01*
X169150000Y-141550000D02*
X169800000Y-141550000D01*
X165250000Y-141550000D02*
X165900000Y-141550000D01*
X150350000Y-140100000D02*
X150100000Y-140350000D01*
X152471880Y-140650000D02*
X153650000Y-140650000D01*
D58*
%TO.N,+5V*%
X162150000Y-136200000D02*
X163100000Y-137150000D01*
X128560000Y-78320000D02*
X128560000Y-61240000D01*
X128560000Y-61240000D02*
X134800000Y-55000000D01*
X144800000Y-132550000D02*
X146700000Y-130650000D01*
X146700000Y-130650000D02*
X158100000Y-130650000D01*
D56*
X166550000Y-135525000D02*
X164925000Y-137150000D01*
D58*
X158100000Y-130650000D02*
X162150000Y-134700000D01*
X162150000Y-134700000D02*
X162150000Y-136200000D01*
X138025000Y-141790000D02*
X138025000Y-139375000D01*
X134800000Y-55000000D02*
X143992102Y-55000000D01*
X163100000Y-137150000D02*
X164925000Y-137150000D01*
D56*
X166550000Y-134350000D02*
X166550000Y-135525000D01*
D58*
X144996051Y-56003949D02*
X145401383Y-56003949D01*
X138025000Y-139375000D02*
X141650000Y-135750000D01*
D56*
%TO.N,/IMU_REGOUT*%
X150850000Y-141875000D02*
X151125000Y-142150000D01*
%TO.N,/IMU_CPOUT*%
X153335000Y-134950000D02*
X153785000Y-135400000D01*
X153335000Y-134100000D02*
X153335000Y-134950000D01*
X153185000Y-133950000D02*
X153335000Y-134100000D01*
X153785000Y-135400000D02*
X154547500Y-135400000D01*
X151350000Y-134571880D02*
X151971880Y-133950000D01*
X151971880Y-133950000D02*
X153185000Y-133950000D01*
X151350000Y-135100000D02*
X151350000Y-134571880D01*
%TO.N,Net-(D2-K)*%
X188850000Y-83450000D02*
X188850000Y-93655000D01*
X185800000Y-80400000D02*
X188850000Y-83450000D01*
%TO.N,Net-(D5-K)*%
X114225000Y-80700000D02*
X112550000Y-80700000D01*
X112655000Y-93955000D02*
X112900000Y-93955000D01*
X111800000Y-81450000D02*
X111800000Y-93100000D01*
X111800000Y-93100000D02*
X112655000Y-93955000D01*
X112550000Y-80700000D02*
X111800000Y-81450000D01*
%TO.N,Net-(D6-A)*%
X134900000Y-62700000D02*
X134900000Y-65850000D01*
X134900000Y-65850000D02*
X134950000Y-65900000D01*
D57*
%TO.N,Net-(J1-Pad1)*%
X124700000Y-146100000D02*
X126900000Y-146100000D01*
X122000000Y-136050000D02*
X122000000Y-135500000D01*
X127250000Y-141300000D02*
X122000000Y-136050000D01*
X126900000Y-146100000D02*
X128300000Y-144700000D01*
%TO.N,Net-(J2-Pad1)*%
X119150000Y-146050000D02*
X119550000Y-146050000D01*
X115050000Y-137900000D02*
X114550000Y-138400000D01*
X119600000Y-146100000D02*
X122200000Y-146100000D01*
X119550000Y-146050000D02*
X119600000Y-146100000D01*
X114550000Y-141450000D02*
X119150000Y-146050000D01*
X114550000Y-138400000D02*
X114550000Y-141450000D01*
X116900000Y-137900000D02*
X115050000Y-137900000D01*
D56*
%TO.N,Net-(Q2-D)*%
X112900000Y-95150000D02*
X115650000Y-95150000D01*
D58*
%TO.N,RF_Reciever*%
X174280000Y-78320000D02*
X177340000Y-78320000D01*
X177340000Y-78320000D02*
X177460000Y-78200000D01*
D56*
%TO.N,RF_emitter*%
X173000000Y-93150000D02*
X171740000Y-91890000D01*
X171740000Y-91890000D02*
X171740000Y-78320000D01*
%TO.N,Net-(Q4-D)*%
X186850000Y-95200000D02*
X188500000Y-95200000D01*
X188500000Y-95200000D02*
X188850000Y-94850000D01*
%TO.N,diagonal_emitter*%
X164120000Y-76660000D02*
X164120000Y-78320000D01*
%TO.N,L_Reciever*%
X161580000Y-78320000D02*
X161580000Y-76660000D01*
%TO.N,/GPIO3*%
X136180000Y-101080000D02*
X165250000Y-130150000D01*
X136180000Y-96100000D02*
X136180000Y-101080000D01*
X165250000Y-130150000D02*
X165250000Y-134350000D01*
%TO.N,/IMU_SDA*%
X149350000Y-132600000D02*
X149550000Y-132400000D01*
X149350000Y-135100000D02*
X149350000Y-132600000D01*
%TO.N,/IMU_INT*%
X156750000Y-139750000D02*
X158250000Y-138250000D01*
X152600000Y-139750000D02*
X156750000Y-139750000D01*
X151850000Y-139000000D02*
X152600000Y-139750000D01*
X158250000Y-133100000D02*
X156900000Y-131750000D01*
X148200000Y-131750000D02*
X148150000Y-131800000D01*
X156900000Y-131750000D02*
X148200000Y-131750000D01*
X158250000Y-138250000D02*
X158250000Y-133100000D01*
%TO.N,/GPIO7*%
X148880000Y-101280000D02*
X148880000Y-96100000D01*
X171050000Y-130900000D02*
X171050000Y-123450000D01*
X171050000Y-123450000D02*
X148880000Y-101280000D01*
X169150000Y-132800000D02*
X171050000Y-130900000D01*
X169150000Y-134350000D02*
X169150000Y-132800000D01*
%TO.N,/GPIO6*%
X168500000Y-134350000D02*
X168500000Y-129100000D01*
X146340000Y-106940000D02*
X146340000Y-96100000D01*
X168500000Y-129100000D02*
X146340000Y-106940000D01*
%TO.N,/GPIO0*%
X135100000Y-127100000D02*
X135100000Y-118100000D01*
X145100000Y-137100000D02*
X135100000Y-127100000D01*
X135100000Y-118100000D02*
X126020000Y-109020000D01*
X126020000Y-109020000D02*
X126020000Y-96100000D01*
X145100000Y-144500000D02*
X145100000Y-137100000D01*
%TO.N,/GPIO2*%
X164600000Y-134350000D02*
X164600000Y-130900000D01*
X164600000Y-130900000D02*
X133640000Y-99940000D01*
X133640000Y-99940000D02*
X133640000Y-96100000D01*
%TO.N,/GPIO5*%
X167200000Y-129100000D02*
X167200000Y-134350000D01*
X141260000Y-103310000D02*
X167050000Y-128950000D01*
X167050000Y-128950000D02*
X167200000Y-129100000D01*
X141260000Y-96100000D02*
X141260000Y-103310000D01*
%TO.N,/IMU_SCL*%
X149850000Y-135100000D02*
X149850000Y-134550000D01*
X149850000Y-134550000D02*
X151550000Y-132850000D01*
%TO.N,/GPIO1*%
X128560000Y-109760000D02*
X128560000Y-96100000D01*
X146050000Y-144550000D02*
X146050000Y-139300000D01*
X136600000Y-126400000D02*
X136600000Y-117800000D01*
X146050000Y-139300000D02*
X146750000Y-138600000D01*
X136600000Y-117800000D02*
X128560000Y-109760000D01*
X146750000Y-136550000D02*
X136600000Y-126400000D01*
X146750000Y-138600000D02*
X146750000Y-136550000D01*
%TO.N,/GPIO8*%
X169800000Y-134350000D02*
X169800000Y-133175000D01*
X169800000Y-133175000D02*
X173050000Y-129925000D01*
X173050000Y-122600000D02*
X151420000Y-100970000D01*
X151420000Y-100970000D02*
X151420000Y-96100000D01*
X173050000Y-129925000D02*
X173050000Y-122600000D01*
%TO.N,/GPIO4*%
X138720000Y-102120000D02*
X138720000Y-96100000D01*
X165900000Y-129300000D02*
X138720000Y-102120000D01*
X165900000Y-129300000D02*
X165900000Y-134350000D01*
D57*
%TO.N,/Mpow2A*%
X158000000Y-147000000D02*
X162650000Y-147000000D01*
X154800000Y-150200000D02*
X158000000Y-147000000D01*
D56*
X166550000Y-141550000D02*
X167200000Y-141550000D01*
D57*
X166675000Y-142975000D02*
X166675000Y-141550000D01*
X162650000Y-147000000D02*
X166675000Y-142975000D01*
D56*
%TO.N,/Mpow1A*%
X163950000Y-141550000D02*
X164600000Y-141550000D01*
%TO.N,/Mpow1B*%
X170450000Y-141550000D02*
X171100000Y-141550000D01*
%TO.N,/Mpow2B*%
X167850000Y-141550000D02*
X168500000Y-141550000D01*
D57*
X168375000Y-142847183D02*
X168375000Y-141550000D01*
%TD*%
%TA.AperFunction,Conductor*%
%TO.N,GND*%
G36*
X166110527Y-140614352D02*
G01*
X166124879Y-140649000D01*
X166124643Y-140653807D01*
X166124500Y-140655257D01*
X166124500Y-142451000D01*
X166110148Y-142485648D01*
X166075500Y-142500000D01*
X165074121Y-142500000D01*
X165039473Y-142485648D01*
X165025121Y-142451000D01*
X165025357Y-142446193D01*
X165025498Y-142444753D01*
X165025500Y-142444748D01*
X165025500Y-140655252D01*
X165025499Y-140655247D01*
X165025357Y-140653807D01*
X165025500Y-140653335D01*
X165025500Y-140652845D01*
X165025649Y-140652845D01*
X165036241Y-140617918D01*
X165069314Y-140600236D01*
X165074121Y-140600000D01*
X166075879Y-140600000D01*
X166110527Y-140614352D01*
G37*
%TD.AperFunction*%
%TD*%
%TA.AperFunction,Conductor*%
%TO.N,+5V*%
G36*
X141585648Y-139414352D02*
G01*
X141600000Y-139449000D01*
X141600000Y-144251000D01*
X141585648Y-144285648D01*
X141551000Y-144300000D01*
X139820296Y-144300000D01*
X139785648Y-144285648D01*
X139500000Y-144000000D01*
X137319061Y-144000000D01*
X137285951Y-143987121D01*
X136099999Y-142899999D01*
X130548125Y-142800859D01*
X130513739Y-142785891D01*
X130500000Y-142751867D01*
X130500000Y-140949000D01*
X130514352Y-140914352D01*
X130549000Y-140900000D01*
X136099999Y-140900000D01*
X136100000Y-140900000D01*
X137185320Y-139617348D01*
X137218657Y-139600169D01*
X137222726Y-139600000D01*
X139500000Y-139600000D01*
X139787655Y-139408230D01*
X139814835Y-139400000D01*
X141551000Y-139400000D01*
X141585648Y-139414352D01*
G37*
%TD.AperFunction*%
%TD*%
%TA.AperFunction,Conductor*%
%TO.N,GND*%
G36*
X143786135Y-139414352D02*
G01*
X143800485Y-139448510D01*
X143849505Y-144350510D01*
X143835500Y-144385300D01*
X143800997Y-144399998D01*
X143800507Y-144400000D01*
X142099507Y-144400000D01*
X142064859Y-144385648D01*
X142050507Y-144351000D01*
X142050510Y-144350495D01*
X142100000Y-139550038D01*
X142100000Y-139449000D01*
X142114352Y-139414352D01*
X142149000Y-139400000D01*
X143751487Y-139400000D01*
X143786135Y-139414352D01*
G37*
%TD.AperFunction*%
%TD*%
%TA.AperFunction,Conductor*%
%TO.N,+5V*%
G36*
X184149087Y-79264352D02*
G01*
X184161024Y-79283807D01*
X184273985Y-79630221D01*
X184523117Y-80394226D01*
X184525416Y-80406056D01*
X184799930Y-84398994D01*
X184800027Y-84401028D01*
X184832284Y-85592037D01*
X184830181Y-85607623D01*
X184661193Y-86163200D01*
X184637380Y-86192172D01*
X184611596Y-86197866D01*
X183789670Y-86152203D01*
X183755871Y-86135951D01*
X183743958Y-86110729D01*
X183664159Y-85592037D01*
X183650570Y-85503705D01*
X183650000Y-85496254D01*
X183650000Y-83800002D01*
X183650000Y-83800000D01*
X182354280Y-81158724D01*
X182349374Y-81140298D01*
X182251949Y-79630219D01*
X182264040Y-79594720D01*
X182276153Y-79584743D01*
X182838557Y-79256674D01*
X182863247Y-79250000D01*
X184114439Y-79250000D01*
X184149087Y-79264352D01*
G37*
%TD.AperFunction*%
%TD*%
%TA.AperFunction,Conductor*%
%TO.N,GND*%
G36*
X157395195Y-133669685D02*
G01*
X157440950Y-133722489D01*
X157452137Y-133771825D01*
X157499338Y-136462291D01*
X157480832Y-136529665D01*
X157479554Y-136531690D01*
X156975504Y-137312969D01*
X156569298Y-137942589D01*
X156536630Y-137993224D01*
X156483745Y-138038885D01*
X156432433Y-138050000D01*
X154858384Y-138050000D01*
X154791345Y-138030315D01*
X154745590Y-137977511D01*
X154735499Y-137942592D01*
X154684115Y-137561962D01*
X154683000Y-137545373D01*
X154683000Y-137361263D01*
X154683000Y-137361258D01*
X154675962Y-137312956D01*
X154674729Y-137298940D01*
X154652684Y-136586734D01*
X154670285Y-136519121D01*
X154721649Y-136471754D01*
X154730555Y-136467777D01*
X155650000Y-136100000D01*
X155650000Y-134412278D01*
X155652408Y-134387960D01*
X155780064Y-133749682D01*
X155812514Y-133687804D01*
X155873266Y-133653294D01*
X155901656Y-133650000D01*
X157328156Y-133650000D01*
X157395195Y-133669685D01*
G37*
%TD.AperFunction*%
%TD*%
%TA.AperFunction,Conductor*%
%TO.N,GND*%
G36*
X134534434Y-147014896D02*
G01*
X134549971Y-147049029D01*
X134550000Y-147050718D01*
X134550000Y-151201000D01*
X134535648Y-151235648D01*
X134501000Y-151250000D01*
X133099587Y-151250000D01*
X133064939Y-151235648D01*
X133050587Y-151201000D01*
X133050590Y-151200417D01*
X133099443Y-147096775D01*
X133114207Y-147062300D01*
X133146748Y-147048387D01*
X134499313Y-147001747D01*
X134534434Y-147014896D01*
G37*
%TD.AperFunction*%
%TD*%
%TA.AperFunction,Conductor*%
%TO.N,+7.4V*%
G36*
X132706506Y-143347977D02*
G01*
X132740448Y-143363922D01*
X132753102Y-143393432D01*
X132948938Y-146135135D01*
X132942607Y-146162937D01*
X132550000Y-146849999D01*
X132550000Y-151299492D01*
X132535648Y-151334140D01*
X132501000Y-151348492D01*
X132499516Y-151348470D01*
X130947516Y-151301439D01*
X130913318Y-151286044D01*
X130900000Y-151252461D01*
X130900000Y-147349999D01*
X130628223Y-146831153D01*
X130356445Y-146312305D01*
X130350972Y-146286143D01*
X130549699Y-143454279D01*
X130551042Y-143445830D01*
X130571520Y-143363922D01*
X130590268Y-143288926D01*
X130612595Y-143258794D01*
X130640081Y-143251864D01*
X132706506Y-143347977D01*
G37*
%TD.AperFunction*%
%TD*%
%TA.AperFunction,Conductor*%
%TO.N,GND*%
G36*
X127500676Y-65969685D02*
G01*
X127536811Y-66005217D01*
X127664766Y-66197150D01*
X127685574Y-66263850D01*
X127677697Y-66309472D01*
X127400000Y-67049999D01*
X127400000Y-68676000D01*
X127380315Y-68743039D01*
X127327511Y-68788794D01*
X127276000Y-68800000D01*
X125374000Y-68800000D01*
X125306961Y-68780315D01*
X125261206Y-68727511D01*
X125250000Y-68676000D01*
X125250000Y-67050000D01*
X124969075Y-66347688D01*
X124962454Y-66278133D01*
X124970229Y-66252797D01*
X125067791Y-66025153D01*
X125112292Y-65971289D01*
X125178851Y-65950034D01*
X125181765Y-65950000D01*
X127433637Y-65950000D01*
X127500676Y-65969685D01*
G37*
%TD.AperFunction*%
%TD*%
%TA.AperFunction,Conductor*%
%TO.N,+5V*%
G36*
X129477740Y-76847221D02*
G01*
X129544314Y-76868424D01*
X129588858Y-76922254D01*
X129598917Y-76972286D01*
X129551088Y-82377097D01*
X129530811Y-82443960D01*
X129477604Y-82489246D01*
X129427093Y-82500000D01*
X124899999Y-82500000D01*
X123750001Y-83449998D01*
X123749999Y-83449999D01*
X122162604Y-85583062D01*
X122132502Y-85611810D01*
X120181441Y-86928777D01*
X120114862Y-86949968D01*
X120112066Y-86950000D01*
X116374000Y-86950000D01*
X116306961Y-86930315D01*
X116261206Y-86877511D01*
X116250000Y-86826000D01*
X116250000Y-84600002D01*
X115751533Y-81459657D01*
X115750000Y-81440218D01*
X115750000Y-79796592D01*
X115769685Y-79729553D01*
X115780680Y-79714937D01*
X116062948Y-79392345D01*
X116121908Y-79354855D01*
X116156268Y-79350000D01*
X117938000Y-79350000D01*
X118005039Y-79369685D01*
X118037200Y-79399600D01*
X118290160Y-79736880D01*
X118306091Y-79765228D01*
X118799999Y-80999999D01*
X118800000Y-81000000D01*
X123950000Y-81050000D01*
X125080264Y-80312870D01*
X125123080Y-80295265D01*
X127050000Y-79900000D01*
X127400000Y-78850000D01*
X127400000Y-76926850D01*
X127419685Y-76859811D01*
X127472489Y-76814056D01*
X127526816Y-76802882D01*
X129477740Y-76847221D01*
G37*
%TD.AperFunction*%
%TD*%
%TA.AperFunction,Conductor*%
%TO.N,GND*%
G36*
X139514124Y-61769685D02*
G01*
X139536612Y-61788204D01*
X140611311Y-62909629D01*
X140643483Y-62971650D01*
X140645356Y-63005723D01*
X140603846Y-63503846D01*
X140578662Y-63569019D01*
X140566838Y-63582332D01*
X138599998Y-65500001D01*
X137950000Y-66149999D01*
X137950000Y-66583637D01*
X137930315Y-66650676D01*
X137894783Y-66686811D01*
X137533600Y-66927599D01*
X137466900Y-66948407D01*
X137459655Y-66948318D01*
X136354912Y-66902288D01*
X136288750Y-66879829D01*
X136264815Y-66857778D01*
X136078741Y-66634489D01*
X136050945Y-66570386D01*
X136050000Y-66555106D01*
X136050000Y-64656699D01*
X136069685Y-64589660D01*
X136092885Y-64562910D01*
X137900000Y-63000000D01*
X137944740Y-62597338D01*
X137971708Y-62532884D01*
X137985596Y-62518358D01*
X138696312Y-61886611D01*
X138814764Y-61781321D01*
X138877948Y-61751495D01*
X138897145Y-61750000D01*
X139447085Y-61750000D01*
X139514124Y-61769685D01*
G37*
%TD.AperFunction*%
%TD*%
%TA.AperFunction,Conductor*%
%TO.N,GND*%
G36*
X149460805Y-54243467D02*
G01*
X149523695Y-54273905D01*
X149528099Y-54278099D01*
X150650000Y-55400000D01*
X151504595Y-55542432D01*
X151567486Y-55572870D01*
X151579468Y-55585362D01*
X152012037Y-56104445D01*
X152039833Y-56168548D01*
X152038370Y-56208146D01*
X152007943Y-56360281D01*
X151975493Y-56422159D01*
X151970141Y-56427370D01*
X151450424Y-56903777D01*
X151387704Y-56934567D01*
X151334008Y-56932001D01*
X150850001Y-56800000D01*
X150850000Y-56800000D01*
X149317856Y-56800000D01*
X149282867Y-56794961D01*
X148480333Y-56558921D01*
X148427641Y-56527641D01*
X147581745Y-55681745D01*
X147548260Y-55620422D01*
X147545935Y-55605290D01*
X147505587Y-55161461D01*
X147519121Y-55092917D01*
X147545665Y-55058485D01*
X148555512Y-54140443D01*
X148618357Y-54109914D01*
X148659304Y-54109884D01*
X149460805Y-54243467D01*
G37*
%TD.AperFunction*%
%TD*%
%TA.AperFunction,Conductor*%
%TO.N,GND*%
G36*
X160109571Y-59268742D02*
G01*
X160142142Y-59292142D01*
X160959961Y-60109961D01*
X160993446Y-60171284D01*
X160995965Y-60206476D01*
X160953516Y-60800774D01*
X160929105Y-60866241D01*
X160913621Y-60883347D01*
X159190908Y-62462500D01*
X159128188Y-62493290D01*
X159094779Y-62494477D01*
X158891480Y-62474148D01*
X158688181Y-62453818D01*
X158623433Y-62427560D01*
X158620647Y-62425282D01*
X157748312Y-61690683D01*
X157709712Y-61632443D01*
X157704500Y-61587000D01*
X157746345Y-61001156D01*
X157770756Y-60935692D01*
X157788718Y-60916376D01*
X159620812Y-59325346D01*
X159684334Y-59296254D01*
X159688369Y-59295736D01*
X160040769Y-59256581D01*
X160109571Y-59268742D01*
G37*
%TD.AperFunction*%
%TD*%
%TA.AperFunction,Conductor*%
%TO.N,+7.4V*%
G36*
X171528311Y-133365925D02*
G01*
X172300000Y-133800000D01*
X173996573Y-133751526D01*
X174064146Y-133769287D01*
X174087794Y-133787794D01*
X175313681Y-135013681D01*
X175347166Y-135075004D01*
X175350000Y-135101362D01*
X175350000Y-135612456D01*
X175330315Y-135679495D01*
X175329174Y-135681239D01*
X175190478Y-135889283D01*
X175136913Y-135934144D01*
X175087304Y-135944500D01*
X174301361Y-135944500D01*
X174279383Y-135945678D01*
X174253036Y-135948511D01*
X174243632Y-135951456D01*
X174209609Y-135957082D01*
X172563525Y-135997231D01*
X172450000Y-136000000D01*
X172449998Y-136000000D01*
X172449998Y-136000001D01*
X169981560Y-137678539D01*
X169915055Y-137699958D01*
X169911834Y-137700000D01*
X167033524Y-137700000D01*
X166971044Y-137683109D01*
X166464185Y-137387441D01*
X166416196Y-137336658D01*
X166402750Y-137275743D01*
X166443556Y-136173979D01*
X166465707Y-136107718D01*
X166479780Y-136090901D01*
X166830470Y-135740212D01*
X166876614Y-135660288D01*
X166881539Y-135641904D01*
X166917905Y-135582246D01*
X166980752Y-135551717D01*
X167001314Y-135550000D01*
X169949999Y-135550000D01*
X169950000Y-135550000D01*
X170150000Y-135400000D01*
X170150000Y-135399999D01*
X170151896Y-135396207D01*
X170163457Y-135380167D01*
X170162767Y-135379706D01*
X170213867Y-135303231D01*
X170213868Y-135303229D01*
X170225499Y-135244752D01*
X170225500Y-135244750D01*
X170225500Y-133525862D01*
X170245185Y-133458823D01*
X170261819Y-133438181D01*
X170313681Y-133386319D01*
X170375004Y-133352834D01*
X170401362Y-133350000D01*
X171467519Y-133350000D01*
X171528311Y-133365925D01*
G37*
%TD.AperFunction*%
%TD*%
%TA.AperFunction,Conductor*%
%TO.N,GND*%
G36*
X175415677Y-136169685D02*
G01*
X175436319Y-136186319D01*
X175663681Y-136413681D01*
X175697166Y-136475004D01*
X175700000Y-136501362D01*
X175700000Y-137498638D01*
X175680315Y-137565677D01*
X175663681Y-137586319D01*
X175336319Y-137913681D01*
X175274996Y-137947166D01*
X175248638Y-137950000D01*
X174499999Y-137950000D01*
X174035369Y-138368168D01*
X173972370Y-138398384D01*
X173952417Y-138400000D01*
X172263813Y-138400000D01*
X172196774Y-138380315D01*
X172162910Y-138348073D01*
X171973097Y-138082334D01*
X171950149Y-138016341D01*
X171950000Y-138010261D01*
X171950000Y-136806268D01*
X171969685Y-136739229D01*
X171992345Y-136712948D01*
X172314937Y-136430680D01*
X172378352Y-136401349D01*
X172396592Y-136400000D01*
X174000000Y-136400000D01*
X174213681Y-136186319D01*
X174275004Y-136152834D01*
X174301362Y-136150000D01*
X175348638Y-136150000D01*
X175415677Y-136169685D01*
G37*
%TD.AperFunction*%
%TD*%
%TA.AperFunction,Conductor*%
%TO.N,GND*%
G36*
X186865677Y-83919685D02*
G01*
X186886319Y-83936319D01*
X187113681Y-84163681D01*
X187147166Y-84225004D01*
X187150000Y-84251362D01*
X187150000Y-85768149D01*
X187134651Y-85827907D01*
X186635333Y-86735758D01*
X186585777Y-86785013D01*
X186526682Y-86800000D01*
X186100000Y-86800000D01*
X186099999Y-86800000D01*
X186099999Y-86800001D01*
X185850000Y-87200000D01*
X185850000Y-87415654D01*
X185832329Y-87479451D01*
X185736122Y-87639797D01*
X185684752Y-87687156D01*
X185629793Y-87700000D01*
X185226636Y-87700000D01*
X185159597Y-87680315D01*
X185115727Y-87631454D01*
X185063091Y-87526182D01*
X185050000Y-87470728D01*
X185050000Y-86699999D01*
X184963091Y-86526181D01*
X184950000Y-86470727D01*
X184950000Y-85942545D01*
X184969685Y-85875506D01*
X184976110Y-85866428D01*
X185300000Y-85450000D01*
X185300000Y-84024000D01*
X185319685Y-83956961D01*
X185372489Y-83911206D01*
X185424000Y-83900000D01*
X186798638Y-83900000D01*
X186865677Y-83919685D01*
G37*
%TD.AperFunction*%
%TD*%
%TA.AperFunction,Conductor*%
%TO.N,GND*%
G36*
X177275706Y-129119685D02*
G01*
X177283067Y-129124800D01*
X177601979Y-129363984D01*
X177643800Y-129419955D01*
X177651538Y-129460006D01*
X177699999Y-131349999D01*
X177700000Y-131350001D01*
X178019319Y-131714937D01*
X178048651Y-131778352D01*
X178050000Y-131796592D01*
X178050000Y-132606503D01*
X178030315Y-132673542D01*
X178022828Y-132683965D01*
X177887230Y-132853462D01*
X177829979Y-132893514D01*
X177790402Y-132900000D01*
X177301362Y-132900000D01*
X177234323Y-132880315D01*
X177213681Y-132863681D01*
X177086319Y-132736319D01*
X177052834Y-132674996D01*
X177050000Y-132648638D01*
X177050000Y-132000000D01*
X176450000Y-131250000D01*
X174958078Y-131250000D01*
X174891039Y-131230315D01*
X174862822Y-131205386D01*
X174678739Y-130984486D01*
X174650945Y-130920386D01*
X174650000Y-130905106D01*
X174650000Y-129566362D01*
X174669685Y-129499323D01*
X174705215Y-129463189D01*
X175218761Y-129120826D01*
X175285461Y-129100018D01*
X175287544Y-129100000D01*
X177208667Y-129100000D01*
X177275706Y-129119685D01*
G37*
%TD.AperFunction*%
%TD*%
%TA.AperFunction,Conductor*%
%TO.N,GND*%
G36*
X151442539Y-138519685D02*
G01*
X151488294Y-138572489D01*
X151499500Y-138624000D01*
X151499500Y-139377129D01*
X151515485Y-139457495D01*
X151576375Y-139548624D01*
X151597852Y-139562974D01*
X151667505Y-139609515D01*
X151667508Y-139609515D01*
X151667509Y-139609516D01*
X151724771Y-139620906D01*
X151747867Y-139625500D01*
X151747877Y-139625499D01*
X151749548Y-139625665D01*
X151750377Y-139625999D01*
X151753842Y-139626689D01*
X151753711Y-139627345D01*
X151814338Y-139651820D01*
X151822803Y-139659163D01*
X152550000Y-140350000D01*
X153300000Y-140350000D01*
X153418761Y-140270826D01*
X153485460Y-140250018D01*
X153487544Y-140250000D01*
X153798638Y-140250000D01*
X153865677Y-140269685D01*
X153886319Y-140286319D01*
X154013681Y-140413681D01*
X154047166Y-140475004D01*
X154050000Y-140501362D01*
X154050000Y-141050000D01*
X154250000Y-141250000D01*
X154555106Y-141250000D01*
X154622145Y-141269685D01*
X154634480Y-141278733D01*
X154855384Y-141462820D01*
X154894282Y-141520858D01*
X154900000Y-141558078D01*
X154900000Y-142798638D01*
X154880315Y-142865677D01*
X154863681Y-142886319D01*
X154686319Y-143063681D01*
X154624996Y-143097166D01*
X154598638Y-143100000D01*
X153899999Y-143100000D01*
X153435369Y-143518168D01*
X153372370Y-143548384D01*
X153352417Y-143550000D01*
X152550000Y-143550000D01*
X151527928Y-144466341D01*
X151135328Y-144818327D01*
X151072272Y-144848422D01*
X151052552Y-144850000D01*
X148563813Y-144850000D01*
X148496774Y-144830315D01*
X148462910Y-144798073D01*
X148273097Y-144532334D01*
X148250149Y-144466341D01*
X148250000Y-144460261D01*
X148250000Y-143510647D01*
X148269685Y-143443608D01*
X148297871Y-143412767D01*
X148665143Y-143127110D01*
X148730143Y-143101492D01*
X148744138Y-143101026D01*
X150248109Y-143136002D01*
X150314672Y-143157239D01*
X150328089Y-143167721D01*
X150334716Y-143173674D01*
X150334730Y-143173686D01*
X150334738Y-143173693D01*
X150343136Y-143180460D01*
X150355379Y-143190327D01*
X150426424Y-143227490D01*
X150493456Y-143247173D01*
X150493458Y-143247173D01*
X150493464Y-143247175D01*
X150551362Y-143255500D01*
X150551366Y-143255500D01*
X151748639Y-143255500D01*
X151751180Y-143255363D01*
X151770607Y-143254322D01*
X151770614Y-143254321D01*
X151770618Y-143254321D01*
X151796965Y-143251488D01*
X151873482Y-143227529D01*
X151934805Y-143194044D01*
X151981629Y-143158991D01*
X152058991Y-143081629D01*
X152073693Y-143065262D01*
X152090327Y-143044620D01*
X152127490Y-142973575D01*
X152133676Y-142952506D01*
X152158503Y-142906746D01*
X152250000Y-142800000D01*
X152250000Y-141200000D01*
X151336319Y-140286319D01*
X151302834Y-140224996D01*
X151300000Y-140198638D01*
X151300000Y-139950000D01*
X151282672Y-139928340D01*
X151256164Y-139863694D01*
X151255500Y-139850878D01*
X151255500Y-139742735D01*
X151255499Y-139742723D01*
X151248497Y-139689542D01*
X151231884Y-139627543D01*
X151231883Y-139627539D01*
X151219810Y-139598394D01*
X151214602Y-139583048D01*
X151209224Y-139562974D01*
X151205000Y-139530886D01*
X151205000Y-138674008D01*
X151204999Y-138673991D01*
X151201210Y-138638750D01*
X151200499Y-138625494D01*
X151200499Y-138624000D01*
X151220184Y-138556961D01*
X151272988Y-138511206D01*
X151324499Y-138500000D01*
X151375500Y-138500000D01*
X151442539Y-138519685D01*
G37*
%TD.AperFunction*%
%TD*%
%TA.AperFunction,Conductor*%
%TO.N,/IMU_REGOUT*%
G36*
X150942539Y-138569685D02*
G01*
X150988294Y-138622489D01*
X150999500Y-138674000D01*
X150999500Y-139574264D01*
X151013229Y-139625501D01*
X151023385Y-139663407D01*
X151033386Y-139680728D01*
X151050000Y-139742730D01*
X151050000Y-140350000D01*
X151913681Y-141213681D01*
X151947166Y-141275004D01*
X151950000Y-141301362D01*
X151950000Y-142848638D01*
X151930315Y-142915677D01*
X151913681Y-142936319D01*
X151836319Y-143013681D01*
X151774996Y-143047166D01*
X151748638Y-143050000D01*
X150551362Y-143050000D01*
X150484323Y-143030315D01*
X150463681Y-143013681D01*
X150336319Y-142886319D01*
X150302834Y-142824996D01*
X150300000Y-142798638D01*
X150300000Y-141451362D01*
X150319685Y-141384323D01*
X150336319Y-141363681D01*
X150450000Y-141250000D01*
X150600000Y-141100000D01*
X150600000Y-140606082D01*
X150609438Y-140558632D01*
X150636330Y-140493709D01*
X150655250Y-140350000D01*
X150652413Y-140328454D01*
X150663178Y-140259419D01*
X150667960Y-140250275D01*
X150676614Y-140235288D01*
X150682127Y-140214712D01*
X150700500Y-140146144D01*
X150700500Y-138953856D01*
X150700500Y-138943867D01*
X150700499Y-138943853D01*
X150700499Y-138674000D01*
X150720184Y-138606961D01*
X150772988Y-138561206D01*
X150824499Y-138550000D01*
X150875500Y-138550000D01*
X150942539Y-138569685D01*
G37*
%TD.AperFunction*%
%TD*%
%TA.AperFunction,Conductor*%
%TO.N,GND*%
G36*
X132735007Y-136969685D02*
G01*
X132762116Y-136993302D01*
X133142550Y-137437142D01*
X133171233Y-137500853D01*
X133172208Y-137524782D01*
X133027901Y-140098253D01*
X133004493Y-140164086D01*
X132986136Y-140184291D01*
X132635156Y-140493980D01*
X132571864Y-140523574D01*
X132553115Y-140525000D01*
X130588813Y-140525000D01*
X130521774Y-140505315D01*
X130487910Y-140473074D01*
X130257143Y-140150000D01*
X130173533Y-140032947D01*
X130150586Y-139966954D01*
X130150444Y-139959542D01*
X130174967Y-137727984D01*
X130188048Y-137673902D01*
X130515728Y-137018543D01*
X130563315Y-136967387D01*
X130626636Y-136950000D01*
X132667968Y-136950000D01*
X132735007Y-136969685D01*
G37*
%TD.AperFunction*%
%TD*%
%TA.AperFunction,Conductor*%
%TO.N,GND*%
G36*
X146170510Y-67910003D02*
G01*
X149953878Y-67939638D01*
X150020759Y-67959847D01*
X150034669Y-67970411D01*
X150433744Y-68320477D01*
X150528261Y-68403387D01*
X150565678Y-68462393D01*
X150570486Y-68495517D01*
X150589435Y-70655591D01*
X150570339Y-70722801D01*
X150537631Y-70757498D01*
X149812093Y-71277019D01*
X149746126Y-71300044D01*
X149740525Y-71300198D01*
X147844197Y-71309727D01*
X147777060Y-71290380D01*
X147752989Y-71270407D01*
X146930000Y-70390000D01*
X146929998Y-70389999D01*
X146318510Y-70362619D01*
X146252418Y-70339955D01*
X146224857Y-70313143D01*
X145835472Y-69793963D01*
X145810996Y-69728521D01*
X145810688Y-69717552D01*
X145838022Y-68031989D01*
X145858791Y-67965278D01*
X145912330Y-67920385D01*
X145962006Y-67910000D01*
X146169540Y-67910000D01*
X146170510Y-67910003D01*
G37*
%TD.AperFunction*%
%TD*%
%TA.AperFunction,Conductor*%
%TO.N,GND*%
G36*
X157637931Y-66389685D02*
G01*
X157655792Y-66403623D01*
X157910900Y-66643270D01*
X157946284Y-66703516D01*
X157950000Y-66733646D01*
X157950000Y-68696739D01*
X157930315Y-68763778D01*
X157898784Y-68797131D01*
X157582563Y-69026392D01*
X157516733Y-69049805D01*
X157509779Y-69050000D01*
X157103260Y-69050000D01*
X157036221Y-69030315D01*
X157002868Y-68998784D01*
X156460000Y-68250000D01*
X155843143Y-68250000D01*
X155776104Y-68230315D01*
X155753350Y-68211518D01*
X155624592Y-68076322D01*
X155592614Y-68014203D01*
X155590391Y-67989846D01*
X155599024Y-66884868D01*
X155619232Y-66817987D01*
X155672391Y-66772646D01*
X155725019Y-66761855D01*
X156850000Y-66780000D01*
X156850001Y-66779999D01*
X157122789Y-66419215D01*
X157178923Y-66377612D01*
X157221699Y-66370000D01*
X157570892Y-66370000D01*
X157637931Y-66389685D01*
G37*
%TD.AperFunction*%
%TD*%
%TA.AperFunction,Conductor*%
%TO.N,GND*%
G36*
X115641892Y-84159271D02*
G01*
X115708716Y-84179671D01*
X115745920Y-84217871D01*
X115870348Y-84418338D01*
X115888978Y-84485678D01*
X115888943Y-84487247D01*
X115849999Y-85859999D01*
X115850000Y-85860000D01*
X115987583Y-86013770D01*
X116017615Y-86076856D01*
X116019154Y-86098608D01*
X115999999Y-87199999D01*
X115999999Y-87200000D01*
X116849997Y-88199998D01*
X116849998Y-88199998D01*
X116850000Y-88200000D01*
X118282850Y-88209681D01*
X118349754Y-88229818D01*
X118365025Y-88241566D01*
X119098837Y-88902903D01*
X119135459Y-88962405D01*
X119139822Y-88995411D01*
X119129999Y-92060000D01*
X119948132Y-93248239D01*
X119969937Y-93314619D01*
X119970000Y-93318560D01*
X119970000Y-94680568D01*
X119950315Y-94747607D01*
X119923672Y-94777227D01*
X119442108Y-95164198D01*
X119377520Y-95190847D01*
X119368836Y-95191461D01*
X117782868Y-95247767D01*
X117715172Y-95230473D01*
X117681067Y-95200585D01*
X117324175Y-94747607D01*
X117226320Y-94623406D01*
X117200294Y-94558567D01*
X117199725Y-94547481D01*
X117190000Y-93040000D01*
X115982932Y-91997093D01*
X115945073Y-91938369D01*
X115940000Y-91903264D01*
X115940000Y-89400000D01*
X115939999Y-89399998D01*
X114767753Y-87983534D01*
X114740176Y-87919337D01*
X114739298Y-87906476D01*
X114727903Y-87199999D01*
X114720000Y-86710000D01*
X114719999Y-86709999D01*
X113222291Y-85965915D01*
X113171011Y-85918458D01*
X113153528Y-85850811D01*
X113153584Y-85849359D01*
X113207362Y-84639353D01*
X113230004Y-84573254D01*
X113257911Y-84544865D01*
X113336481Y-84487247D01*
X113777105Y-84164122D01*
X113842803Y-84140353D01*
X113851736Y-84140125D01*
X115641892Y-84159271D01*
G37*
%TD.AperFunction*%
%TD*%
%TA.AperFunction,Conductor*%
%TO.N,GND*%
G36*
X173658329Y-142028807D02*
G01*
X173725072Y-142049468D01*
X173770051Y-142102934D01*
X173771147Y-142105509D01*
X174060812Y-142807726D01*
X174070179Y-142854089D01*
X174090000Y-145520001D01*
X174200982Y-145633982D01*
X174460000Y-145900000D01*
X175186046Y-145900000D01*
X175253085Y-145919685D01*
X175264142Y-145927682D01*
X175501333Y-146120000D01*
X175553130Y-146161997D01*
X175592806Y-146219509D01*
X175599019Y-146260331D01*
X175580718Y-147385822D01*
X175559946Y-147452533D01*
X175551506Y-147463770D01*
X175368671Y-147680464D01*
X175310395Y-147719008D01*
X175273899Y-147724500D01*
X174512707Y-147724500D01*
X174445668Y-147704815D01*
X174427722Y-147690797D01*
X174140001Y-147420000D01*
X173331357Y-146713785D01*
X172640000Y-146110000D01*
X172639999Y-146110000D01*
X172639998Y-146109999D01*
X172209043Y-146118794D01*
X172141616Y-146100482D01*
X172111853Y-146074917D01*
X171738754Y-145633982D01*
X171710477Y-145570090D01*
X171709424Y-145555488D01*
X171708965Y-145520001D01*
X171680413Y-143311938D01*
X171695071Y-143251834D01*
X172288238Y-142143291D01*
X172291957Y-142136820D01*
X172312810Y-142102934D01*
X172333060Y-142070026D01*
X172384958Y-142023249D01*
X172440471Y-142011028D01*
X173658329Y-142028807D01*
G37*
%TD.AperFunction*%
%TD*%
%TA.AperFunction,Conductor*%
%TO.N,GND*%
G36*
X184926740Y-95519589D02*
G01*
X184946309Y-95534966D01*
X185141271Y-95722706D01*
X185175907Y-95783386D01*
X185179248Y-95813760D01*
X185160773Y-97134706D01*
X185140153Y-97201464D01*
X185118346Y-97226373D01*
X184486330Y-97778275D01*
X184422887Y-97807543D01*
X184401782Y-97808838D01*
X183684714Y-97791559D01*
X183618168Y-97770265D01*
X183584284Y-97736011D01*
X183210582Y-97171112D01*
X183190011Y-97104339D01*
X183190000Y-97102697D01*
X183190000Y-96890000D01*
X182990000Y-96710000D01*
X182989999Y-96710000D01*
X182989998Y-96709999D01*
X182760669Y-96717907D01*
X182692991Y-96700545D01*
X182661137Y-96673364D01*
X182528741Y-96514489D01*
X182500945Y-96450386D01*
X182500000Y-96435106D01*
X182500000Y-96249756D01*
X182519685Y-96182717D01*
X182534388Y-96164048D01*
X183123668Y-95547983D01*
X183184229Y-95513146D01*
X183212558Y-95509699D01*
X184859589Y-95500288D01*
X184926740Y-95519589D01*
G37*
%TD.AperFunction*%
%TD*%
M02*
