M48
; DRILL file {KiCad 8.0.1} date 2024-08-25T23:19:21+0530
; FORMAT={-:-/ absolute / metric / decimal}
; #@! TF.CreationDate,2024-08-25T23:19:21+05:30
; #@! TF.GenerationSoftware,Kicad,Pcbnew,8.0.1
; #@! TF.FileFunction,Plated,1,2,PTH
FMAT,2
METRIC
; #@! TA.AperFunction,Plated,PTH,ViaDrill
T1C0.300
; #@! TA.AperFunction,Plated,PTH,ComponentDrill
T2C0.700
; #@! TA.AperFunction,Plated,PTH,ComponentDrill
T3C0.800
; #@! TA.AperFunction,Plated,PTH,ComponentDrill
T4C0.900
; #@! TA.AperFunction,Plated,PTH,ComponentDrill
T5C1.000
; #@! TA.AperFunction,Plated,PTH,ComponentDrill
T6C1.020
%
G90
G05
T1
X113.75Y-85.69
X113.78Y-84.77
X115.58Y-87.57
X116.57Y-90.82
X116.59Y-89.19
X116.59Y-90.02
X116.59Y-91.72
X119.49Y-94.6
X119.52Y-93.79
X125.75Y-66.7
X126.85Y-66.65
X127.25Y-141.3
X128.3Y-144.7
X130.8Y-137.5
X132.6Y-137.6
X133.55Y-149.15
X134.2Y-149.2
X134.3Y-82.5
X137.5Y-64.35
X138.1Y-63.75
X138.75Y-64.85
X140.85Y-91.45
X141.65Y-135.75
X142.2Y-90.05
X142.45Y-141.85
X143.35Y-141.85
X144.8Y-132.55
X145.05Y-147.375
X145.1Y-144.5
X146.05Y-144.55
X146.05Y-147.425
X147.075Y-147.5
X147.15Y-141.85
X147.5Y-135.65
X148.15Y-131.8
X148.45Y-70.84
X149.4Y-56.2
X149.42Y-70.84
X149.55Y-132.4
X149.9Y-55.6
X149.9Y-68.68
X149.92Y-69.61
X150.1Y-140.35
X150.25Y-56.4
X150.65Y-143.65
X150.65Y-144.4
X151.55Y-132.85
X153.65Y-140.65
X154.45Y-141.7
X154.5Y-142.65
X155.1Y-138.85
X156.3Y-137.55
X156.35Y-134.0
X156.55Y-136.85
X157.1Y-134.0
X157.38Y-68.53
X157.42Y-66.87
X157.44Y-67.71
X158.2Y-61.35
X158.75Y-61.85
X164.7Y-138.3
X164.95Y-136.05
X165.0Y-143.0
X165.5Y-140.0
X166.9Y-137.15
X167.1Y-136.05
X167.85Y-132.65
X169.5Y-140.0
X169.5Y-143.0
X172.67Y-142.44
X173.0Y-93.15
X173.43Y-142.45
X173.45Y-146.37
X174.4Y-137.5
X174.95Y-111.05
X175.2Y-137.5
X176.6Y-93.15
X177.2Y-129.85
X177.2Y-130.8
X177.3Y-85.8
X180.05Y-105.05
X180.56Y-94.46
X183.01Y-96.28
X184.15Y-97.42
X185.45Y-87.2
X186.4Y-86.3
T2
X140.855Y-149.325
X142.355Y-149.325
X143.855Y-149.325
X145.355Y-149.325
X146.855Y-149.325
X148.355Y-149.325
X161.575Y-150.275
X163.075Y-150.275
X164.575Y-150.275
X166.075Y-150.275
X167.575Y-150.275
X169.075Y-150.275
T3
X111.9Y-135.9
X111.9Y-137.9
X111.9Y-139.9
X116.9Y-135.9
X116.9Y-137.9
X116.9Y-139.9
T4
X114.225Y-80.7
X116.765Y-80.7
X120.025Y-78.2
X122.565Y-78.2
X136.6Y-59.5
X138.396Y-57.704
X143.2Y-57.8
X144.996Y-56.004
X155.125Y-56.0
X156.921Y-57.796
X161.904Y-57.504
X163.7Y-59.3
X177.46Y-78.2
X180.0Y-78.2
X183.26Y-80.4
X185.8Y-80.4
T5
X122.0Y-135.5
X122.2Y-146.1
X124.5Y-135.5
X124.7Y-146.1
X179.85Y-139.25
X187.45Y-139.25
T6
X126.02Y-78.32
X126.02Y-96.1
X128.56Y-78.32
X128.56Y-96.1
X131.1Y-78.32
X131.1Y-96.1
X133.64Y-78.32
X133.64Y-96.1
X136.18Y-78.32
X136.18Y-96.1
X138.72Y-78.32
X138.72Y-96.1
X141.26Y-78.32
X141.26Y-96.1
X143.8Y-78.32
X143.8Y-96.1
X146.34Y-78.32
X146.34Y-96.1
X148.88Y-78.32
X148.88Y-96.1
X151.42Y-78.32
X151.42Y-96.1
X153.96Y-78.32
X153.96Y-96.1
X156.5Y-78.32
X156.5Y-96.1
X159.04Y-78.32
X159.04Y-96.1
X161.58Y-78.32
X161.58Y-96.1
X164.12Y-78.32
X164.12Y-96.1
X166.66Y-78.32
X166.66Y-96.1
X169.2Y-78.32
X169.2Y-96.1
X171.74Y-78.32
X171.74Y-96.1
X174.05Y-84.67
X174.05Y-87.21
X174.05Y-89.75
X174.28Y-78.32
X174.28Y-96.1
M30
